<?xml version="1.0" encoding="UTF-8"?>
<!DOCTYPE svg PUBLIC "-//W3C//DTD SVG 1.1//EN" "http://www.w3.org/Graphics/SVG/1.1/DTD/svg11.dtd">
<svg xmlns="http://www.w3.org/2000/svg" version="1.1" width="1418px" height="1600px" style="shape-rendering:geometricPrecision; text-rendering:geometricPrecision; image-rendering:optimizeQuality; fill-rule:evenodd; clip-rule:evenodd" xmlns:xlink="http://www.w3.org/1999/xlink">
<g><path style="opacity:1" fill="#0e0e0f" d="M 706.5,-0.5 C 708.167,-0.5 709.833,-0.5 711.5,-0.5C 741.471,17.8158 773.138,32.9825 806.5,45C 947.176,92.7131 1090.51,102.38 1236.5,74C 1244.54,71.9386 1252.54,69.7719 1260.5,67.5C 1266.57,105.209 1277.4,141.542 1293,176.5C 1312.06,218.624 1335.73,257.958 1364,294.5C 1379.68,314.346 1397.51,332.013 1417.5,347.5C 1417.5,348.833 1417.5,350.167 1417.5,351.5C 1375.69,411.269 1354.69,477.936 1354.5,551.5C 1355.55,585.209 1357.38,618.876 1360,652.5C 1360.92,736.027 1357.25,819.36 1349,902.5C 1340.81,979.929 1323.81,1055.26 1298,1128.5C 1245.16,1273.68 1154,1388.51 1024.5,1473C 950.2,1519.57 870.533,1554.57 785.5,1578C 756.833,1585.5 728.167,1592.67 699.5,1599.5C 697.5,1599.5 695.5,1599.5 693.5,1599.5C 693.5,1597.17 693.5,1594.83 693.5,1592.5C 588.597,1570.86 490.597,1532.36 399.5,1477C 265.53,1391.98 171.697,1274.48 118,1124.5C 92.354,1050.91 75.6873,975.239 68,897.5C 60.6765,819.66 57.0098,741.66 57,663.5C 59.8144,626.38 61.6477,589.213 62.5,552C 62.8453,478.144 41.8453,411.311 -0.5,351.5C -0.5,350.167 -0.5,348.833 -0.5,347.5C 4.12906,344.841 8.4624,341.674 12.5,338C 41.6785,310.484 66.8451,279.65 88,245.5C 109.445,210.602 127.112,173.602 141,134.5C 148.203,112.689 153.036,90.3554 155.5,67.5C 196.14,78.2598 237.473,85.0931 279.5,88C 381.119,94.8397 480.786,84.1731 578.5,56C 623.667,42.2491 666.334,23.4158 706.5,-0.5 Z"/></g>
<g><path style="opacity:1" fill="#f8f7f9" d="M 1021.5,110.5 C 1036.47,111.969 1051.64,112.635 1067,112.5C 1076.67,112.5 1086.17,112.166 1095.5,111.5C 1145.84,110.23 1195.51,103.896 1244.5,92.5C 1247.12,113.657 1251.96,134.324 1259,154.5C 1284.39,223.661 1321.73,285.327 1371,339.5C 1378.68,346.345 1386.18,353.345 1393.5,360.5C 1370.37,396.093 1353.21,434.427 1342,475.5C 1337.2,500.13 1334.36,524.964 1333.5,550C 1334.55,585.205 1336.38,620.371 1339,655.5C 1339.67,685.5 1339.67,715.5 1339,745.5C 1336.27,788.87 1333.43,832.203 1330.5,875.5C 1329.28,880.29 1328.61,885.29 1328.5,890.5C 1319.94,987.601 1296.44,1080.6 1258,1169.5C 1195.62,1305.21 1098.79,1408.71 967.5,1480C 883.317,1523.78 794.65,1554.95 701.5,1573.5C 701.64,1571.88 700.973,1570.71 699.5,1570C 586.463,1547.23 482.13,1504.23 386.5,1441C 282.514,1369.18 205.347,1275.34 155,1159.5C 135.532,1112.1 119.866,1063.43 108,1013.5C 93.6949,945.589 85.1949,876.922 82.5,807.5C 82.5715,797.301 81.9049,787.301 80.5,777.5C 77.6902,740.225 76.8568,702.892 78,665.5C 79.4264,640.491 80.9264,615.491 82.5,590.5C 83.8997,580.2 84.5663,569.7 84.5,559C 84.4995,552.99 84.1662,547.157 83.5,541.5C 82.9379,496.924 73.1046,454.591 54,414.5C 45.0021,395.67 34.8354,377.503 23.5,360C 39.6667,346.5 54.5,331.667 68,315.5C 121.14,249.554 156.807,175.22 175,92.5C 200.199,98.9095 225.699,103.743 251.5,107C 368.917,119.812 483.917,108.812 596.5,74C 635.469,61.0116 672.802,44.5116 708.5,24.5C 741.962,43.5612 776.962,59.3946 813.5,72C 881.035,94.1509 950.369,106.984 1021.5,110.5 Z"/></g>
<g><path style="opacity:1" fill="#28166e" d="M 1017.5,125.5 C 1033.14,126.998 1048.97,127.665 1065,127.5C 1075.67,127.5 1086.17,127.167 1096.5,126.5C 1139.69,126.203 1182.35,121.37 1224.5,112C 1226.9,111.186 1229.24,111.353 1231.5,112.5C 1245.62,170.409 1268.79,224.409 1301,274.5C 1321.6,306.948 1345.77,336.614 1373.5,363.5C 1352.19,398.798 1336.36,436.465 1326,476.5C 1318.9,511.143 1316.57,546.143 1319,581.5C 1325.11,649.776 1325.94,718.109 1321.5,786.5C 1320.14,797.306 1319.47,808.306 1319.5,819.5C 1314.96,915.101 1298.13,1008.43 1269,1099.5C 1203.53,1285.31 1080.36,1417.47 899.5,1496C 838.972,1522.24 776.306,1542.24 711.5,1556C 609.538,1537.33 514.205,1501.33 425.5,1448C 289.523,1362.99 196.356,1244.16 146,1091.5C 122.894,1019.3 108.227,945.302 102,869.5C 97.3931,810.909 94.2264,752.242 92.5,693.5C 92.6252,682.488 92.9585,671.488 93.5,660.5C 94.8204,650.694 95.4871,640.694 95.5,630.5C 96.9981,611.864 97.9981,593.197 98.5,574.5C 99.1663,567.508 99.4997,560.341 99.5,553C 99.6325,541.298 98.9658,529.798 97.5,518.5C 94.1394,478.532 83.6394,440.532 66,404.5C 59.0078,390.512 51.5078,376.846 43.5,363.5C 114.292,293.113 161.958,209.28 186.5,112C 221.816,118.54 257.483,123.04 293.5,125.5C 308.304,127.001 323.304,127.668 338.5,127.5C 348.672,127.5 358.672,127.166 368.5,126.5C 466.508,125.061 560.841,106.227 651.5,70C 671.089,61.5389 690.089,52.0389 708.5,41.5C 770.178,75.5239 835.845,99.0239 905.5,112C 942.504,119.167 979.838,123.667 1017.5,125.5 Z"/></g>
<g><path style="opacity:1" fill="#878787" d="M 1021.5,110.5 C 1046.16,111.253 1070.83,111.586 1095.5,111.5C 1086.17,112.166 1076.67,112.5 1067,112.5C 1051.64,112.635 1036.47,111.969 1021.5,110.5 Z"/></g>
<g><path style="opacity:1" fill="#8b84ab" d="M 293.5,125.5 C 318.491,126.319 343.491,126.652 368.5,126.5C 358.672,127.166 348.672,127.5 338.5,127.5C 323.304,127.668 308.304,127.001 293.5,125.5 Z"/></g>
<g><path style="opacity:1" fill="#8b84ab" d="M 1017.5,125.5 C 1043.82,126.317 1070.16,126.65 1096.5,126.5C 1086.17,127.167 1075.67,127.5 1065,127.5C 1048.97,127.665 1033.14,126.998 1017.5,125.5 Z"/></g>
<g><path style="opacity:1" fill="#f5f0f3" d="M 705.5,159.5 C 706.496,159.414 707.329,159.748 708,160.5C 717.155,184.458 725.988,208.458 734.5,232.5C 759.533,233.91 784.533,235.743 809.5,238C 792.688,253.235 775.688,268.235 758.5,283C 756.112,285.05 754.112,287.384 752.5,290C 758.564,313.422 764.397,336.922 770,360.5C 770.798,362.259 770.631,363.926 769.5,365.5C 748.746,351.404 727.746,337.737 706.5,324.5C 685.254,337.737 664.254,351.404 643.5,365.5C 643.167,364.833 642.833,364.167 642.5,363.5C 648.285,338.806 654.285,314.139 660.5,289.5C 641.701,272.205 622.701,255.039 603.5,238C 628.389,235.329 653.389,233.496 678.5,232.5C 687.342,208.152 696.342,183.819 705.5,159.5 Z"/></g>
<g><path style="opacity:1" fill="#da261d" d="M 705.5,177.5 C 707.097,178.737 708.263,180.404 709,182.5C 716.178,201.372 723.345,220.206 730.5,239C 751.194,240.412 771.861,242.079 792.5,244C 776.906,257.716 761.406,271.549 746,285.5C 749.667,307.024 754.5,328.357 760.5,349.5C 759.998,350.521 759.332,350.688 758.5,350C 741.338,338.252 724.005,326.752 706.5,315.5C 688.517,327.373 670.517,338.873 652.5,350C 657.627,328.952 662.96,307.952 668.5,287C 652.633,271.966 636.3,257.466 619.5,243.5C 640.856,241.999 662.189,240.332 683.5,238.5C 690.84,218.145 698.173,197.811 705.5,177.5 Z"/></g>
<g><path style="opacity:1" fill="#f9f6f8" d="M 392.5,185.5 C 393.239,185.369 393.906,185.536 394.5,186C 368.566,219.37 343.732,253.536 320,288.5C 292.593,330.686 272.926,376.352 261,425.5C 248.364,490.37 260.03,550.37 296,605.5C 332.197,660.189 380.364,700.689 440.5,727C 489.173,755.462 516.34,797.962 522,854.5C 523.453,867.475 524.12,880.475 524,893.5C 507.976,856.809 481.809,829.975 445.5,813C 427.064,804.622 408.064,797.622 388.5,792C 358.196,785.34 327.863,779.006 297.5,773C 251.434,757.27 219.267,726.77 201,681.5C 187.346,648.908 181.679,614.908 184,579.5C 185.185,573.87 186.185,568.203 187,562.5C 188.397,556.893 190.397,551.559 193,546.5C 197.988,509.907 205.655,473.907 216,438.5C 218.468,431.386 222.468,425.386 228,420.5C 236.634,387.26 250.3,356.26 269,327.5C 285.827,301.536 304.827,277.203 326,254.5C 348.342,231.658 370.509,208.658 392.5,185.5 Z"/></g>
<g><path style="opacity:1" fill="#f9f6f8" d="M 1236.5,576.5 C 1237.31,588.482 1237.64,600.482 1237.5,612.5C 1233.25,653.213 1219.42,690.213 1196,723.5C 1176.42,747.369 1151.92,763.869 1122.5,773C 1092.09,778.963 1061.76,785.296 1031.5,792C 996.163,801.042 964.163,816.708 935.5,839C 927.928,845.901 921.095,853.401 915,861.5C 908.565,872.267 902.565,883.267 897,894.5C 896.459,886.818 896.626,879.152 897.5,871.5C 898.889,866.731 899.556,861.731 899.5,856.5C 903.246,808.165 923.913,768.998 961.5,739C 968.332,734.416 975.332,730.083 982.5,726C 1059.36,691.805 1114.86,636.305 1149,559.5C 1162.46,525.058 1167.46,489.391 1164,452.5C 1158.76,413.009 1147.42,375.342 1130,339.5C 1116.37,312.237 1100.7,286.237 1083,261.5C 1064.11,236.325 1045.78,210.992 1028,185.5C 1050.42,208.58 1072.75,231.58 1095,254.5C 1123.58,285.668 1148.25,319.668 1169,356.5C 1179.23,376.966 1187.23,398.299 1193,420.5C 1196,422.167 1198.33,424.5 1200,427.5C 1207.66,445.149 1213.33,463.482 1217,482.5C 1221.45,503.045 1225.12,523.711 1228,544.5C 1232.32,554.791 1235.15,565.457 1236.5,576.5 Z"/></g>
<g><path style="opacity:1" fill="#efebec" d="M 552.5,245.5 C 559.241,259.666 564.908,274.332 569.5,289.5C 584.536,289.976 599.536,290.976 614.5,292.5C 602.699,302.134 591.365,312.301 580.5,323C 583.78,337.182 587.113,351.348 590.5,365.5C 590.167,366.167 589.833,366.833 589.5,367.5C 577.167,359.5 564.833,351.5 552.5,343.5C 540.5,351.5 528.5,359.5 516.5,367.5C 515.359,365.579 515.192,363.579 516,361.5C 519.537,348.712 522.703,335.879 525.5,323C 513.992,312.99 502.659,302.823 491.5,292.5C 506.431,290.505 521.431,289.505 536.5,289.5C 541.232,274.639 546.565,259.972 552.5,245.5 Z"/></g>
<g><path style="opacity:1" fill="#f0ecec" d="M 863.5,246.5 C 864.496,246.414 865.329,246.748 866,247.5C 871.625,261.007 876.792,274.674 881.5,288.5C 896.491,289.897 911.491,291.23 926.5,292.5C 914.516,302.152 903.183,312.485 892.5,323.5C 896.035,337.442 899.369,351.442 902.5,365.5C 902.167,366.167 901.833,366.833 901.5,367.5C 889.188,359.681 877.021,351.681 865,343.5C 852.591,351.289 840.425,359.456 828.5,368C 827.668,368.688 827.002,368.521 826.5,367.5C 830.167,352.828 833.834,338.162 837.5,323.5C 826.167,313.167 814.833,302.833 803.5,292.5C 818.471,290.835 833.471,289.502 848.5,288.5C 853.49,274.533 858.49,260.533 863.5,246.5 Z"/></g>
<g><path style="opacity:1" fill="#f8c30c" d="M 552.5,255.5 C 557.864,267.747 562.864,280.247 567.5,293C 579.895,293.301 592.228,294.301 604.5,296C 595.427,304.284 586.261,312.451 577,320.5C 579.344,333.522 581.678,346.522 584,359.5C 573.925,352.424 563.592,345.757 553,339.5C 542.073,346.092 531.407,353.092 521,360.5C 523.415,347.091 526.082,333.758 529,320.5C 519.352,312.353 509.852,304.02 500.5,295.5C 513.218,294.586 525.885,293.419 538.5,292C 543.59,279.989 548.256,267.822 552.5,255.5 Z"/></g>
<g><path style="opacity:1" fill="#f8c30c" d="M 864.5,256.5 C 870.153,268.318 875.153,280.484 879.5,293C 891.862,293.742 904.196,294.742 916.5,296C 907.427,304.284 898.261,312.451 889,320.5C 891.336,333.505 893.669,346.505 896,359.5C 885.925,352.424 875.592,345.757 865,339.5C 854.073,346.092 843.407,353.092 833,360.5C 835.454,347.106 838.121,333.773 841,320.5C 831.352,312.353 821.852,304.02 812.5,295.5C 825.218,294.586 837.885,293.419 850.5,292C 855.318,280.202 859.984,268.369 864.5,256.5 Z"/></g>
<g><path style="opacity:1" fill="#efebec" d="M 449.5,307.5 C 455.114,318.987 459.78,330.987 463.5,343.5C 475.571,343.658 487.571,344.658 499.5,346.5C 490.801,355.201 481.801,363.534 472.5,371.5C 476.221,383.783 478.887,396.117 480.5,408.5C 470.337,401.584 460.003,394.917 449.5,388.5C 439.5,395.167 429.5,401.833 419.5,408.5C 419.167,407.833 418.833,407.167 418.5,406.5C 419.345,403.807 419.845,401.141 420,398.5C 413.519,404.404 406.852,410.071 400,415.5C 401.907,425.638 404.073,435.805 406.5,446C 406.167,446.833 405.833,447.667 405.5,448.5C 396.833,442.833 388.167,437.167 379.5,431.5C 370.833,437.167 362.167,442.833 353.5,448.5C 353.184,442.728 354.351,437.061 357,431.5C 357.701,426.105 358.367,420.772 359,415.5C 351.5,408.667 344,401.833 336.5,395C 346.812,393.975 357.145,392.808 367.5,391.5C 371.503,381.495 375.503,371.495 379.5,361.5C 383.96,371.689 387.96,382.022 391.5,392.5C 401.484,393.463 411.484,393.63 421.5,393C 424.84,385.442 426.173,377.609 425.5,369.5C 416.833,361.833 408.167,354.167 399.5,346.5C 411.742,344.452 424.076,343.452 436.5,343.5C 440.431,331.376 444.764,319.376 449.5,307.5 Z"/></g>
<g><path style="opacity:1" fill="#efebec" d="M 967.5,307.5 C 972.911,318.703 977.577,330.37 981.5,342.5C 993.847,343.713 1006.18,345.047 1018.5,346.5C 1009.14,354.862 999.808,363.195 990.5,371.5C 992.794,378.676 994.46,386.01 995.5,393.5C 1005.51,393.332 1015.51,392.832 1025.5,392C 1029.47,381.77 1033.63,371.603 1038,361.5C 1042.37,371.603 1046.53,381.77 1050.5,392C 1060.82,393.124 1071.15,394.124 1081.5,395C 1074,401.833 1066.5,408.667 1059,415.5C 1058.86,419.504 1059.19,423.504 1060,427.5C 1062.31,434.737 1063.98,442.071 1065,449.5C 1056.26,443.093 1047.26,437.093 1038,431.5C 1029.1,437.036 1020.27,442.702 1011.5,448.5C 1011.67,442.844 1012.83,437.178 1015,431.5C 1016.12,426.174 1016.79,420.84 1017,415.5C 1010.67,409.833 1004.33,404.167 998,398.5C 997.908,401.547 998.408,404.547 999.5,407.5C 999.167,407.833 998.833,408.167 998.5,408.5C 988.337,401.584 978.003,394.917 967.5,388.5C 957.5,395.167 947.5,401.833 937.5,408.5C 937.167,407.833 936.833,407.167 936.5,406.5C 939.483,395.235 942.15,383.902 944.5,372.5C 944.167,371.5 943.833,370.5 943.5,369.5C 934.833,361.833 926.167,354.167 917.5,346.5C 929.736,344.431 942.069,343.431 954.5,343.5C 958.42,331.41 962.754,319.41 967.5,307.5 Z"/></g>
<g><path style="opacity:1" fill="#f8c30f" d="M 449.5,317.5 C 453.632,327.182 457.632,337.015 461.5,347C 471.218,347.767 480.885,348.767 490.5,350C 482.964,356.706 475.631,363.539 468.5,370.5C 471.003,380.523 473.17,390.523 475,400.5C 466.667,394.833 458.333,389.167 450,383.5C 441.667,389.167 433.333,394.833 425,400.5C 426.394,390.197 428.561,380.03 431.5,370C 423.982,362.981 416.315,356.148 408.5,349.5C 418.474,348.279 428.474,347.279 438.5,346.5C 442.626,336.985 446.293,327.319 449.5,317.5 Z"/></g>
<g><path style="opacity:1" fill="#f8c30f" d="M 967.5,317.5 C 971.293,327.276 975.293,337.109 979.5,347C 989.244,347.743 998.911,348.743 1008.5,350C 1001.65,356.353 994.648,362.519 987.5,368.5C 987.167,369.5 986.833,370.5 986.5,371.5C 989.383,381.091 991.55,390.758 993,400.5C 984.667,394.833 976.333,389.167 968,383.5C 959.667,389.167 951.333,394.833 943,400.5C 944.393,390.202 946.56,380.035 949.5,370C 941.982,362.981 934.315,356.148 926.5,349.5C 936.474,348.279 946.474,347.279 956.5,346.5C 960.626,336.985 964.293,327.319 967.5,317.5 Z"/></g>
<g><path style="opacity:1" fill="#da251d" d="M 1130.5,316.5 C 1156.51,350.868 1174.18,389.201 1183.5,431.5C 1185.79,431.244 1187.96,431.577 1190,432.5C 1193.91,441.643 1197.24,450.976 1200,460.5C 1207.11,489.522 1212.78,518.855 1217,548.5C 1225.03,569.414 1228.03,591.081 1226,613.5C 1221.29,654.005 1206.62,690.338 1182,722.5C 1163.49,742.511 1140.99,756.011 1114.5,763C 1093.87,767.216 1073.2,771.216 1052.5,775C 1013.07,783.027 976.398,797.694 942.5,819C 931.772,826.722 921.939,835.556 913,845.5C 918.664,802.539 939.164,768.706 974.5,744C 988.216,736.142 1002.22,728.808 1016.5,722C 1085.15,684.011 1133.98,628.511 1163,555.5C 1178.32,509.865 1180.65,463.532 1170,416.5C 1161.52,381.22 1148.35,347.887 1130.5,316.5 Z"/></g>
<g><path style="opacity:1" fill="#da251d" d="M 286.5,321.5 C 287.043,321.56 287.376,321.893 287.5,322.5C 215.179,456.612 234.179,575.779 344.5,680C 358.298,691.398 372.631,702.064 387.5,712C 407.878,723.856 428.544,735.189 449.5,746C 483.266,770.687 502.766,803.854 508,845.5C 487.777,823.453 463.611,806.953 435.5,796C 395.509,780.73 354.175,770.397 311.5,765C 268.035,754.195 236.535,728.695 217,688.5C 199.236,652.818 192.236,615.151 196,575.5C 203.111,551.284 208.444,526.617 212,501.5C 215.895,477.755 222.228,454.755 231,432.5C 233.041,431.577 235.208,431.244 237.5,431.5C 246.823,391.535 263.157,354.869 286.5,321.5 Z"/></g>
<g><path style="opacity:1" fill="#f8c30f" d="M 379.5,372.5 C 383.448,380.167 387.115,388 390.5,396C 398.491,396.769 406.491,397.435 414.5,398C 407.8,403.703 401.466,409.703 395.5,416C 396.893,423.841 398.893,431.508 401.5,439C 401.167,439.5 400.833,440 400.5,440.5C 393.5,435.833 386.5,431.167 379.5,426.5C 372.753,431.29 365.92,435.957 359,440.5C 358.333,438.833 358.333,437.167 359,435.5C 360.897,428.843 362.731,422.177 364.5,415.5C 358.343,409.511 352.009,403.677 345.5,398C 353.491,397.231 361.491,396.565 369.5,396C 372.977,388.214 376.311,380.38 379.5,372.5 Z"/></g>
<g><path style="opacity:1" fill="#f8c311" d="M 1037.5,371.5 C 1041.63,379.438 1044.96,387.772 1047.5,396.5C 1055.85,396.719 1064.18,397.219 1072.5,398C 1065.99,403.677 1059.66,409.511 1053.5,415.5C 1056.35,423.767 1058.02,432.1 1058.5,440.5C 1052.07,435.536 1045.24,431.202 1038,427.5C 1031.09,431.037 1024.59,435.203 1018.5,440C 1017.67,440.688 1017,440.521 1016.5,439.5C 1018.42,431.651 1020.42,423.818 1022.5,416C 1016.53,409.703 1010.2,403.703 1003.5,398C 1011.98,397.62 1020.32,396.453 1028.5,394.5C 1031.69,386.928 1034.69,379.262 1037.5,371.5 Z"/></g>
<g><path style="opacity:1" fill="#f7f7fa" d="M 725.5,398.5 C 734.791,399.639 743.958,401.306 753,403.5C 760.184,420.04 767.184,436.707 774,453.5C 776.419,441.574 778.253,429.574 779.5,417.5C 777.833,417.5 776.167,417.5 774.5,417.5C 774.552,413.802 774.886,410.135 775.5,406.5C 783.128,407.799 790.795,408.799 798.5,409.5C 798.058,413.154 797.724,416.821 797.5,420.5C 795.5,420.5 793.5,420.5 791.5,420.5C 787.164,447.191 782.83,473.858 778.5,500.5C 773.5,499.833 768.5,499.167 763.5,498.5C 762.498,494.16 761.331,489.826 760,485.5C 752.463,467.88 745.129,450.214 738,432.5C 734.839,448.797 732.005,465.13 729.5,481.5C 731.743,482.474 734.076,482.808 736.5,482.5C 735.886,486.135 735.552,489.802 735.5,493.5C 727.5,492.5 719.5,491.5 711.5,490.5C 711.335,487.15 711.502,483.817 712,480.5C 714.041,479.577 716.208,479.244 718.5,479.5C 722.26,456.515 725.926,433.515 729.5,410.5C 727.955,409.548 726.288,409.215 724.5,409.5C 724.423,405.785 724.756,402.119 725.5,398.5 Z"/></g>
<g><path style="opacity:1" fill="#f8f8fa" d="M 654.5,401.5 C 656.467,401.261 658.301,401.594 660,402.5C 672.34,427.535 684.673,452.535 697,477.5C 698.699,478.406 700.533,478.739 702.5,478.5C 702.5,481.833 702.5,485.167 702.5,488.5C 690.177,490.276 677.844,491.943 665.5,493.5C 664.949,490.193 664.616,486.86 664.5,483.5C 666.854,483.162 669.187,482.662 671.5,482C 670.025,478.579 668.359,475.246 666.5,472C 656.949,472.009 647.616,473.175 638.5,475.5C 638.605,479.548 638.272,483.548 637.5,487.5C 639.833,487.5 642.167,487.5 644.5,487.5C 645.207,490.786 645.54,494.119 645.5,497.5C 637.566,499.02 629.566,500.02 621.5,500.5C 621.167,497.167 620.833,493.833 620.5,490.5C 622.167,490.5 623.833,490.5 625.5,490.5C 629.25,462.168 633.083,433.835 637,405.5C 642.798,403.655 648.631,402.321 654.5,401.5 Z"/></g>
<g><path style="opacity:1" fill="#f9f8fa" d="M 573.5,420.5 C 576.869,422.911 578.369,426.244 578,430.5C 576.414,431.376 574.914,432.376 573.5,433.5C 585.572,453.303 597.405,473.303 609,493.5C 611.12,493.626 613.286,493.959 615.5,494.5C 617.621,497.163 618.287,499.996 617.5,503C 607.546,508.226 597.379,513.06 587,517.5C 584.93,515.037 583.097,512.371 581.5,509.5C 583.128,507.681 585.128,506.347 587.5,505.5C 579.587,490.672 571.42,476.005 563,461.5C 564.371,482.39 568.538,502.724 575.5,522.5C 572.394,525.138 568.894,527.138 565,528.5C 552.845,511.167 539.345,494.833 524.5,479.5C 530.194,495.298 536.361,511.298 543,527.5C 544.753,526.373 546.587,525.373 548.5,524.5C 550.601,527.265 552.267,530.265 553.5,533.5C 547.219,537.224 540.719,540.557 534,543.5C 531.458,541.448 529.625,538.781 528.5,535.5C 529.518,534.148 530.851,533.148 532.5,532.5C 524.209,510.783 516.042,489.116 508,467.5C 505.867,466.582 503.7,466.416 501.5,467C 499.903,464.473 498.57,461.806 497.5,459C 505.283,454.607 513.283,450.44 521.5,446.5C 532.566,457.068 543.4,467.734 554,478.5C 554.382,463.368 553.215,448.368 550.5,433.5C 551.605,432.108 552.939,430.941 554.5,430C 561.173,427.33 567.506,424.163 573.5,420.5 Z"/></g>
<g><path style="opacity:1" fill="#f0eded" d="M 1085.5,431.5 C 1086.75,431.577 1087.58,432.244 1088,433.5C 1091.51,443.188 1095.01,452.855 1098.5,462.5C 1108.91,462.784 1119.24,463.784 1129.5,465.5C 1121.88,471.952 1114.38,478.619 1107,485.5C 1108.64,495.702 1110.81,505.868 1113.5,516C 1113.17,516.833 1112.83,517.667 1112.5,518.5C 1103.83,512.833 1095.17,507.167 1086.5,501.5C 1078.03,506.804 1069.7,512.304 1061.5,518C 1060.4,518.432 1059.73,517.932 1059.5,516.5C 1062.02,506.713 1064.36,496.88 1066.5,487C 1059.16,478.999 1051.16,471.666 1042.5,465C 1053.13,463.504 1063.8,462.337 1074.5,461.5C 1078.17,451.489 1081.84,441.489 1085.5,431.5 Z"/></g>
<g><path style="opacity:1" fill="#efecec" d="M 330.5,431.5 C 331.497,431.47 332.164,431.97 332.5,433C 336.395,442.417 340.062,451.917 343.5,461.5C 353.852,462.732 364.185,464.065 374.5,465.5C 366.877,471.952 359.377,478.619 352,485.5C 353.357,495.939 355.524,506.273 358.5,516.5C 358.167,517.167 357.833,517.833 357.5,518.5C 348.833,512.833 340.167,507.167 331.5,501.5C 322.833,507.167 314.167,512.833 305.5,518.5C 306.403,507.763 308.403,497.097 311.5,486.5C 303.377,479.547 295.377,472.381 287.5,465C 298.089,463.174 308.756,462.341 319.5,462.5C 322.962,452.114 326.629,441.78 330.5,431.5 Z"/></g>
<g><path style="opacity:1" fill="#2d1a71" d="M 645.5,428.5 C 650.597,438.529 655.597,448.696 660.5,459C 653.846,460.307 647.179,461.474 640.5,462.5C 642.298,451.185 643.965,439.852 645.5,428.5 Z"/></g>
<g><path style="opacity:1" fill="#f8c311" d="M 1085.5,441.5 C 1086.5,441.47 1087.16,441.97 1087.5,443C 1090.12,450.853 1093.12,458.519 1096.5,466C 1104.52,466.402 1112.52,467.068 1120.5,468C 1114.83,473.167 1109.17,478.333 1103.5,483.5C 1103.17,484.5 1102.83,485.5 1102.5,486.5C 1104.76,494.417 1106.26,502.417 1107,510.5C 1100.38,505.777 1093.55,501.444 1086.5,497.5C 1079.18,501.983 1071.85,506.149 1064.5,510C 1067.06,501.616 1068.89,493.116 1070,484.5C 1063.83,479 1057.67,473.5 1051.5,468C 1059.79,466.879 1068.12,466.213 1076.5,466C 1079.92,457.99 1082.92,449.823 1085.5,441.5 Z"/></g>
<g><path style="opacity:1" fill="#f8c310" d="M 330.5,441.5 C 331.79,442.058 332.623,443.058 333,444.5C 335.153,451.955 337.986,459.121 341.5,466C 349.523,466.402 357.523,467.068 365.5,468C 359.667,473.167 353.833,478.333 348,483.5C 347.333,485.833 347.333,488.167 348,490.5C 350.573,496.957 351.906,503.624 352,510.5C 345.382,505.777 338.548,501.444 331.5,497.5C 324.185,501.983 316.851,506.149 309.5,510C 312.107,501.628 313.941,493.128 315,484.5C 308.833,479 302.667,473.5 296.5,468C 304.79,466.879 313.124,466.213 321.5,466C 325.032,458.043 328.032,449.877 330.5,441.5 Z"/></g>
<g><path style="opacity:1" fill="#f9f8fb" d="M 892.5,459.5 C 896.182,459.335 899.848,459.501 903.5,460C 904.357,460.689 905.023,461.522 905.5,462.5C 892.433,485.631 879.1,508.631 865.5,531.5C 867.159,532.998 868.825,534.498 870.5,536C 868.695,542.712 865.029,544.045 859.5,540C 851.46,535.653 843.793,530.819 836.5,525.5C 837.513,522.797 839.013,520.464 841,518.5C 842.559,519.029 844.059,519.696 845.5,520.5C 855.5,503.833 865.5,487.167 875.5,470.5C 872.914,469.52 870.247,469.187 867.5,469.5C 867.884,466.231 869.218,463.397 871.5,461C 878.679,460.829 885.679,460.329 892.5,459.5 Z"/></g>
<g><path style="opacity:1" fill="#f9f9fb" d="M 463.5,571.5 C 470.5,570.833 477.5,570.167 484.5,569.5C 491.055,568.973 496.888,566.639 502,562.5C 506.337,553.5 503.504,549.333 493.5,550C 483.719,553.724 474.052,557.724 464.5,562C 443.02,564.069 431.687,554.236 430.5,532.5C 431.984,515.679 440.984,505.346 457.5,501.5C 457.5,499.5 457.5,497.5 457.5,495.5C 460.455,494.841 463.455,494.508 466.5,494.5C 468.829,503.157 471.163,511.823 473.5,520.5C 464.24,519.807 455.24,520.973 446.5,524C 445,525.5 443.5,527 442,528.5C 441.966,535.43 445.466,537.93 452.5,536C 462.056,532.056 471.723,528.389 481.5,525C 492.995,523.14 502.162,526.973 509,536.5C 519.964,555.387 517.131,571.887 500.5,586C 493.611,590.112 486.278,593.112 478.5,595C 475.24,595.784 472.073,595.617 469,594.5C 467.319,586.779 465.486,579.112 463.5,571.5 Z"/></g>
<g><path style="opacity:1" fill="#faf9fb" d="M 944.5,508.5 C 961.291,505.638 972.791,511.972 979,527.5C 979.892,542.825 975.226,556.158 965,567.5C 954.645,579.26 941.811,586.76 926.5,590C 913.5,591.25 904,586.084 898,574.5C 895.516,564.91 896.182,555.577 900,546.5C 909.888,527.759 924.722,515.093 944.5,508.5 Z"/></g>
<g><path style="opacity:1" fill="#28166f" d="M 947.5,520.5 C 952.699,519.383 955.699,521.383 956.5,526.5C 952.108,542.85 944.942,557.85 935,571.5C 931.797,575.688 927.63,577.521 922.5,577C 920.051,575.137 919.051,572.637 919.5,569.5C 922.628,556.958 927.794,545.291 935,534.5C 938.319,529.017 942.486,524.351 947.5,520.5 Z"/></g>
<g><path style="opacity:1" fill="#2d2d2f" d="M 732.5,540.5 C 715.165,539.186 697.832,539.186 680.5,540.5C 688.982,538.779 697.649,537.445 706.5,536.5C 715.351,537.445 724.018,538.779 732.5,540.5 Z"/></g>
<g><path style="opacity:1" fill="#fdfdfd" d="M 732.5,540.5 C 736.862,542.344 741.529,543.344 746.5,543.5C 749.505,545.277 752.838,546.277 756.5,546.5C 782.41,557.057 804.91,572.724 824,593.5C 829.77,601.392 835.27,609.392 840.5,617.5C 842.674,623.182 845.341,628.516 848.5,633.5C 848.402,635.553 849.069,637.22 850.5,638.5C 851.596,643.132 853.263,647.466 855.5,651.5C 855.899,655.116 856.899,658.45 858.5,661.5C 859.751,668.403 861.418,675.069 863.5,681.5C 864.61,691.158 865.61,700.825 866.5,710.5C 866.5,712.167 866.5,713.833 866.5,715.5C 837.167,715.5 807.833,715.5 778.5,715.5C 772.833,715.5 767.167,715.5 761.5,715.5C 762.246,674.084 760.913,632.751 757.5,591.5C 752.833,591.5 748.167,591.5 743.5,591.5C 743.734,597.308 743.067,602.974 741.5,608.5C 738.833,608.5 736.167,608.5 733.5,608.5C 733.5,610.5 733.5,612.5 733.5,614.5C 715.833,614.5 698.167,614.5 680.5,614.5C 680.5,612.5 680.5,610.5 680.5,608.5C 677.5,608.5 674.5,608.5 671.5,608.5C 671.768,606.901 671.434,605.568 670.5,604.5C 670.5,600.167 670.5,595.833 670.5,591.5C 665.5,591.5 660.5,591.5 655.5,591.5C 655.5,595.833 655.5,600.167 655.5,604.5C 655.167,604.5 654.833,604.5 654.5,604.5C 653.174,621.651 652.507,638.984 652.5,656.5C 652.83,676.007 652.497,695.341 651.5,714.5C 616.833,714.5 582.167,714.5 547.5,714.5C 548.167,706.5 548.833,698.5 549.5,690.5C 550.797,685.263 551.464,679.93 551.5,674.5C 553.434,670.112 554.767,665.445 555.5,660.5C 556.434,659.432 556.768,658.099 556.5,656.5C 560.149,647.23 563.816,637.897 567.5,628.5C 586.169,591.495 614.503,564.829 652.5,548.5C 655.397,547.871 658.064,546.871 660.5,545.5C 665.722,544.613 670.722,543.279 675.5,541.5C 677.415,541.784 679.081,541.451 680.5,540.5C 697.832,539.186 715.165,539.186 732.5,540.5 Z"/></g>
<g><path style="opacity:1" fill="#19191b" d="M 732.5,540.5 C 737.471,540.656 742.138,541.656 746.5,543.5C 741.529,543.344 736.862,542.344 732.5,540.5 Z"/></g>
<g><path style="opacity:1" fill="#141317" d="M 675.5,541.5 C 670.722,543.279 665.722,544.613 660.5,545.5C 665.089,542.976 670.089,541.642 675.5,541.5 Z"/></g>
<g><path style="opacity:1" fill="#7a71a2" d="M 97.5,518.5 C 98.9658,529.798 99.6325,541.298 99.5,553C 99.4997,560.341 99.1663,567.508 98.5,574.5C 98.5664,555.824 98.2331,537.157 97.5,518.5 Z"/></g>
<g><path style="opacity:1" fill="#9c9d9d" d="M 83.5,541.5 C 84.1662,547.157 84.4995,552.99 84.5,559C 84.5663,569.7 83.8997,580.2 82.5,590.5C 83.0776,574.173 83.4109,557.839 83.5,541.5 Z"/></g>
<g><path style="opacity:1" fill="#19191c" d="M 756.5,546.5 C 789.186,557.931 815.353,577.931 835,606.5C 837.372,609.91 839.205,613.577 840.5,617.5C 835.27,609.392 829.77,601.392 824,593.5C 804.91,572.724 782.41,557.057 756.5,546.5 Z"/></g>
<g><path style="opacity:1" fill="#19191c" d="M 652.5,548.5 C 614.503,564.829 586.169,591.495 567.5,628.5C 580.847,598.311 601.847,574.811 630.5,558C 637.516,553.989 644.85,550.822 652.5,548.5 Z"/></g>
<g><path style="opacity:1" fill="#7f77a4" d="M 484.5,569.5 C 477.5,570.167 470.5,570.833 463.5,571.5C 462.957,571.44 462.624,571.107 462.5,570.5C 469.803,569.503 477.137,569.169 484.5,569.5 Z"/></g>
<g><path style="opacity:1" fill="#515151" d="M 670.5,604.5 C 669.517,600.702 669.183,596.702 669.5,592.5C 665.167,592.5 660.833,592.5 656.5,592.5C 656.817,596.702 656.483,600.702 655.5,604.5C 655.5,600.167 655.5,595.833 655.5,591.5C 660.5,591.5 665.5,591.5 670.5,591.5C 670.5,595.833 670.5,600.167 670.5,604.5 Z"/></g>
<g><path style="opacity:1" fill="#7b73a0" d="M 1236.5,576.5 C 1238.01,583.438 1238.67,590.604 1238.5,598C 1238.5,603.012 1238.17,607.845 1237.5,612.5C 1237.64,600.482 1237.31,588.482 1236.5,576.5 Z"/></g>
<g><path style="opacity:1" fill="#111017" d="M 840.5,617.5 C 844.207,622.247 846.874,627.581 848.5,633.5C 845.341,628.516 842.674,623.182 840.5,617.5 Z"/></g>
<g><path style="opacity:1" fill="#fdf300" d="M 741.5,682.5 C 740.904,723.164 740.404,763.831 740,804.5C 737.91,808.824 734.41,810.657 729.5,810C 728.409,812.064 728.242,814.231 729,816.5C 731.031,819.355 733.197,822.022 735.5,824.5C 735.5,824.833 735.5,825.167 735.5,825.5C 742.516,842.042 742.016,858.376 734,874.5C 730,879.995 725.834,885.329 721.5,890.5C 719.011,895.473 716.011,900.14 712.5,904.5C 711.761,890.003 711.761,875.336 712.5,860.5C 720.48,852.868 721.647,844.202 716,834.5C 707.079,827.938 700.079,829.605 695,839.5C 692.668,848.052 694.835,855.052 701.5,860.5C 702.29,874.329 702.957,888.162 703.5,902C 703.467,904.61 702.8,906.777 701.5,908.5C 699.078,903.783 696.745,899.116 694.5,894.5C 693.955,892.407 693.122,890.407 692,888.5C 672.748,870.747 668.248,849.747 678.5,825.5C 680.167,822.176 682.334,819.176 685,816.5C 686.578,810.236 684.078,807.736 677.5,809C 675.513,807.681 674.346,805.848 674,803.5C 673.539,770.831 673.039,738.165 672.5,705.5C 672.5,684.167 672.5,662.833 672.5,641.5C 695.5,641.5 718.5,641.5 741.5,641.5C 741.5,655.167 741.5,668.833 741.5,682.5 Z"/></g>
<g><path style="opacity:1" fill="#0e0d14" d="M 850.5,638.5 C 853.129,642.377 854.796,646.71 855.5,651.5C 853.263,647.466 851.596,643.132 850.5,638.5 Z"/></g>
<g><path style="opacity:1" fill="#a9a9a9" d="M 654.5,604.5 C 654.589,622.019 653.922,639.353 652.5,656.5C 652.507,638.984 653.174,621.651 654.5,604.5 Z"/></g>
<g><path style="opacity:1" fill="#100f17" d="M 567.5,628.5 C 563.816,637.897 560.149,647.23 556.5,656.5C 558.612,646.487 562.278,637.154 567.5,628.5 Z"/></g>
<g><path style="opacity:1" fill="#a9a4c2" d="M 95.5,630.5 C 95.4871,640.694 94.8204,650.694 93.5,660.5C 93.2877,650.291 93.9543,640.291 95.5,630.5 Z"/></g>
<g><path style="opacity:1" fill="#faf6f8" d="M 1190.5,911.5 C 1191.65,910.15 1192.32,910.316 1192.5,912C 1185.02,937.111 1176.85,961.945 1168,986.5C 1160.31,1005.56 1150.31,1023.23 1138,1039.5C 1119.84,1060.42 1097,1068.59 1069.5,1064C 1062.45,1063.01 1055.45,1061.85 1048.5,1060.5C 1043.46,1058.6 1038.13,1057.43 1032.5,1057C 1024.66,1056.18 1016.99,1056.34 1009.5,1057.5C 999.769,1058.85 990.769,1062.19 982.5,1067.5C 980.547,1071.12 977.881,1074.12 974.5,1076.5C 974.167,1078.17 973.833,1079.83 973.5,1081.5C 976.229,1099.56 976.063,1117.56 973,1135.5C 967.573,1155.07 956.073,1160.23 938.5,1151C 926.234,1143.4 916.734,1133.23 910,1120.5C 901.264,1103.9 895.764,1086.24 893.5,1067.5C 896.481,1054.32 898.648,1040.99 900,1027.5C 900.188,990.806 899.521,954.139 898,917.5C 905.297,857.058 938.631,825.058 998,821.5C 988.962,828.87 980.962,837.204 974,846.5C 968.647,856.587 965.147,867.254 963.5,878.5C 961.973,886.107 961.307,893.94 961.5,902C 961.667,907.5 961.833,913 962,918.5C 962.333,918.833 962.667,919.167 963,919.5C 963.495,917.527 963.662,915.527 963.5,913.5C 968.895,870.291 990.895,838.791 1029.5,819C 1056.84,808.126 1084.84,799.126 1113.5,792C 1166.49,777.446 1203.66,744.946 1225,694.5C 1228.6,682.352 1232.6,670.352 1237,658.5C 1242.84,685.627 1243.84,712.961 1240,740.5C 1237,754.49 1233,768.157 1228,781.5C 1223.42,807.992 1218.08,834.326 1212,860.5C 1206.27,878.226 1199.1,895.226 1190.5,911.5 Z"/></g>
<g><path style="opacity:1" fill="#faf6f8" d="M 456.5,907.5 C 456.163,911.308 456.663,914.974 458,918.5C 458.333,918.167 458.667,917.833 459,917.5C 459.825,906.659 459.659,895.992 458.5,885.5C 457.776,866.89 451.442,850.556 439.5,836.5C 433.145,831.165 427.811,825.499 423.5,819.5C 437.55,821.596 451.217,825.096 464.5,830C 498.3,845.727 517.3,872.227 521.5,909.5C 522.351,924.149 522.685,938.816 522.5,953.5C 519.379,985.903 519.879,1018.24 524,1050.5C 524.914,1056.49 526.414,1062.32 528.5,1068C 524.702,1090.36 516.869,1111.2 505,1130.5C 495.704,1143.31 483.537,1151.98 468.5,1156.5C 461.88,1155.37 456.714,1152.04 453,1146.5C 447.544,1134.99 445.044,1122.83 445.5,1110C 446.078,1099.15 446.578,1088.31 447,1077.5C 435.265,1063.31 419.932,1056.31 401,1056.5C 383.7,1058.08 366.534,1060.58 349.5,1064C 338.789,1064.84 328.122,1064.51 317.5,1063C 307.41,1059.46 298.41,1054.12 290.5,1047C 272.85,1027.87 259.683,1006.03 251,981.5C 243.306,957.822 235.973,934.155 229,910.5C 238.68,927.199 248.347,943.866 258,960.5C 273.729,982.089 294.896,994.589 321.5,998C 342.134,999.248 362.801,999.915 383.5,1000C 408.497,1001.91 424.997,1014.75 433,1038.5C 433.844,1042.21 434.844,1045.88 436,1049.5C 435.863,1035.32 437.363,1021.32 440.5,1007.5C 428.501,987.821 410.834,977.321 387.5,976C 371.805,975.579 356.139,974.746 340.5,973.5C 336.433,971.946 332.1,971.28 327.5,971.5C 278.833,965.652 244,940.652 223,896.5C 210.776,869.107 202.443,840.44 198,810.5C 196.752,800.092 195.085,789.759 193,779.5C 189.864,769.759 186.531,760.092 183,750.5C 176.883,719.453 177.217,688.453 184,657.5C 188.067,669.034 191.733,680.7 195,692.5C 215.207,742.373 251.04,775.206 302.5,791C 331.737,798.19 360.404,807.19 388.5,818C 427.195,835.516 449.861,865.349 456.5,907.5 Z"/></g>
<g><path style="opacity:1" fill="#19181c" d="M 858.5,661.5 C 859.793,662.842 860.626,664.509 861,666.5C 862.156,671.46 862.989,676.46 863.5,681.5C 861.418,675.069 859.751,668.403 858.5,661.5 Z"/></g>
<g><path style="opacity:1" fill="#0b0a10" d="M 555.5,660.5 C 554.767,665.445 553.434,670.112 551.5,674.5C 551.923,669.46 553.256,664.793 555.5,660.5 Z"/></g>
<g><path style="opacity:1" fill="#1c1b23" d="M 551.5,674.5 C 551.464,679.93 550.797,685.263 549.5,690.5C 548.5,694.5 547.5,698.5 546.5,702.5C 546.708,692.781 548.375,683.448 551.5,674.5 Z"/></g>
<g><path style="opacity:1" fill="#a7a7a7" d="M 549.5,690.5 C 548.833,698.5 548.167,706.5 547.5,714.5C 582.167,714.5 616.833,714.5 651.5,714.5C 616.671,715.498 581.671,715.832 546.5,715.5C 546.5,711.167 546.5,706.833 546.5,702.5C 547.5,698.5 548.5,694.5 549.5,690.5 Z"/></g>
<g><path style="opacity:1" fill="#da261d" d="M 190.5,712.5 C 211.613,752.441 243.279,780.608 285.5,797C 303.555,803.352 321.888,808.686 340.5,813C 358.438,818.091 375.771,824.757 392.5,833C 422.531,849.894 440.031,875.394 445,909.5C 424.292,889.39 399.792,875.89 371.5,869C 335.699,862.133 301.365,850.799 268.5,835C 239,820.167 216.833,798 202,768.5C 194.049,750.695 190.216,732.028 190.5,712.5 Z"/></g>
<g><path style="opacity:1" fill="#da251d" d="M 1230.5,709.5 C 1231.45,753.447 1214.79,789.28 1180.5,817C 1155.05,835.284 1127.05,848.617 1096.5,857C 1077.2,862.126 1057.87,867.126 1038.5,872C 1014.91,879.202 994.409,891.369 977,908.5C 981.832,875.027 998.998,849.86 1028.5,833C 1035.38,829.394 1042.38,826.061 1049.5,823C 1074.01,815.164 1098.67,807.831 1123.5,801C 1172.46,785.879 1208.13,755.379 1230.5,709.5 Z"/></g>
<g><path style="opacity:1" fill="#a6a6a6" d="M 80.5,777.5 C 81.9049,787.301 82.5715,797.301 82.5,807.5C 81.1796,797.694 80.5129,787.694 80.5,777.5 Z"/></g>
<g><path style="opacity:1" fill="#ada7c5" d="M 1321.5,786.5 C 1321.53,797.694 1320.86,808.694 1319.5,819.5C 1319.47,808.306 1320.14,797.306 1321.5,786.5 Z"/></g>
<g><path style="opacity:1" fill="#100f0f" d="M 778.5,715.5 C 807.995,716.498 837.662,716.831 867.5,716.5C 867.795,714.265 867.461,712.265 866.5,710.5C 865.61,700.825 864.61,691.158 863.5,681.5C 865.257,686.564 866.424,691.897 867,697.5C 868.114,707.476 868.947,717.476 869.5,727.5C 868.838,733.771 867.504,739.771 865.5,745.5C 862.514,765.126 856.514,783.793 847.5,801.5C 846.508,808.982 846.175,816.648 846.5,824.5C 809.5,824.5 772.5,824.5 735.5,824.5C 733.197,822.022 731.031,819.355 729,816.5C 728.242,814.231 728.409,812.064 729.5,810C 734.41,810.657 737.91,808.824 740,804.5C 740.404,763.831 740.904,723.164 741.5,682.5C 742.496,668.677 742.829,654.677 742.5,640.5C 742.5,639.167 742.5,637.833 742.5,636.5C 734.157,634.042 725.823,632.042 717.5,630.5C 725.852,630.334 733.852,632.001 741.5,635.5C 742.489,631.893 742.823,628.226 742.5,624.5C 718.833,624.5 695.167,624.5 671.5,624.5C 670.92,628.649 671.586,632.316 673.5,635.5C 672.032,636.779 671.365,638.446 671.5,640.5C 671.169,662.34 671.503,684.006 672.5,705.5C 673.039,738.165 673.539,770.831 674,803.5C 674.346,805.848 675.513,807.681 677.5,809C 684.078,807.736 686.578,810.236 685,816.5C 682.334,819.176 680.167,822.176 678.5,825.5C 641.167,825.5 603.833,825.5 566.5,825.5C 566.666,817.493 566.5,809.493 566,801.5C 557.449,784.348 551.616,766.348 548.5,747.5C 547.655,743.479 546.488,739.479 545,735.5C 544.747,730.961 544.247,726.461 543.5,722C 545.013,715.475 546.013,708.975 546.5,702.5C 546.5,706.833 546.5,711.167 546.5,715.5C 581.671,715.832 616.671,715.498 651.5,714.5C 652.497,695.341 652.83,676.007 652.5,656.5C 653.922,639.353 654.589,622.019 654.5,604.5C 654.833,604.5 655.167,604.5 655.5,604.5C 656.483,600.702 656.817,596.702 656.5,592.5C 660.833,592.5 665.167,592.5 669.5,592.5C 669.183,596.702 669.517,600.702 670.5,604.5C 671.434,605.568 671.768,606.901 671.5,608.5C 673.948,609.473 676.615,609.806 679.5,609.5C 679.5,611.5 679.5,613.5 679.5,615.5C 697.674,615.83 715.674,615.497 733.5,614.5C 733.5,612.5 733.5,610.5 733.5,608.5C 736.167,608.5 738.833,608.5 741.5,608.5C 743.067,602.974 743.734,597.308 743.5,591.5C 748.167,591.5 752.833,591.5 757.5,591.5C 760.913,632.751 762.246,674.084 761.5,715.5C 767.167,715.5 772.833,715.5 778.5,715.5 Z"/></g>
<g><path style="opacity:1" fill="#7a7a7b" d="M 843.5,799.5 C 844.404,800.209 844.737,801.209 844.5,802.5C 829.324,802.829 814.324,802.496 799.5,801.5C 814.538,802.15 829.205,801.483 843.5,799.5 Z"/></g>
<g><path style="opacity:1" fill="#f5f5f6" d="M 743.5,771.5 C 750.863,771.169 758.197,771.503 765.5,772.5C 768.424,777.346 771.09,782.346 773.5,787.5C 771.248,791.994 769.582,796.661 768.5,801.5C 761.8,801.83 755.134,801.497 748.5,800.5C 746.392,795.993 744.392,791.493 742.5,787C 743.369,781.871 743.702,776.704 743.5,771.5 Z"/></g>
<g><path style="opacity:1" fill="#f6f6f6" d="M 647.5,771.5 C 654.508,771.334 661.508,771.5 668.5,772C 670.787,782.009 669.453,791.509 664.5,800.5C 657.866,801.497 651.2,801.83 644.5,801.5C 642.746,796.739 641.079,791.906 639.5,787C 642.3,781.901 644.966,776.734 647.5,771.5 Z"/></g>
<g><path style="opacity:1" fill="#f9f9f9" d="M 843.5,799.5 C 829.205,801.483 814.538,802.15 799.5,801.5C 797.528,796.605 795.528,791.605 793.5,786.5C 796.206,780.954 799.54,775.787 803.5,771C 812.833,770.333 822.167,770.333 831.5,771C 835.982,780.274 839.982,789.774 843.5,799.5 Z"/></g>
<g><path style="opacity:1" fill="#f6f6f6" d="M 580.5,771.5 C 590.522,771.168 600.522,771.501 610.5,772.5C 613.088,776.676 615.921,780.676 619,784.5C 617.822,790.234 615.989,795.901 613.5,801.5C 598.515,802.499 583.515,802.833 568.5,802.5C 572.093,792.061 576.093,781.728 580.5,771.5 Z"/></g>
<g><path style="opacity:1" fill="#d8241c" d="M 865.5,745.5 C 863.087,756.252 859.921,766.919 856,777.5C 853.699,784.1 850.865,790.434 847.5,796.5C 842.98,786.951 838.647,777.285 834.5,767.5C 823.181,766.334 811.848,766.168 800.5,767C 796.277,772.224 792.444,777.724 789,783.5C 785.214,784.795 781.38,784.795 777.5,783.5C 774.248,778.666 771.248,773.666 768.5,768.5C 760.193,767.502 751.86,767.169 743.5,767.5C 743.5,757.5 743.5,747.5 743.5,737.5C 784.167,737.5 824.833,737.5 865.5,737.5C 865.5,740.167 865.5,742.833 865.5,745.5 Z"/></g>
<g><path style="opacity:1" fill="#d9241c" d="M 669.5,767.5 C 661.493,767.334 653.493,767.5 645.5,768C 642.541,772.751 639.707,777.584 637,782.5C 635.178,784.045 633.011,784.712 630.5,784.5C 627.989,784.712 625.822,784.045 624,782.5C 620.871,777.074 617.371,771.907 613.5,767C 602.167,766.333 590.833,766.333 579.5,767C 575.129,776.908 570.629,786.742 566,796.5C 561.961,788.401 558.294,780.068 555,771.5C 553.081,763.271 550.914,755.271 548.5,747.5C 548.5,744.833 548.5,742.167 548.5,739.5C 588.663,738.501 628.997,738.168 669.5,738.5C 669.5,748.167 669.5,757.833 669.5,767.5 Z"/></g>
<g><path style="opacity:1" fill="#b8201a" d="M 669.5,767.5 C 669.5,757.833 669.5,748.167 669.5,738.5C 628.997,738.168 588.663,738.501 548.5,739.5C 547.957,739.44 547.624,739.107 547.5,738.5C 588.495,737.5 629.495,737.167 670.5,737.5C 670.827,747.681 670.494,757.681 669.5,767.5 Z"/></g>
<g><path style="opacity:1" fill="#7f7f7f" d="M 800.5,718.5 C 805.833,718.5 811.167,718.5 816.5,718.5C 816.5,723.833 816.5,729.167 816.5,734.5C 811.167,734.5 805.833,734.5 800.5,734.5C 800.5,729.167 800.5,723.833 800.5,718.5 Z"/></g>
<g><path style="opacity:1" fill="#828282" d="M 780.5,718.5 C 786.5,718.5 792.5,718.5 798.5,718.5C 798.5,723.833 798.5,729.167 798.5,734.5C 792.5,734.5 786.5,734.5 780.5,734.5C 780.5,729.167 780.5,723.833 780.5,718.5 Z"/></g>
<g><path style="opacity:1" fill="#b5b5b6" d="M 743.5,712.5 C 748.5,712.5 753.5,712.5 758.5,712.5C 758.5,719.833 758.5,727.167 758.5,734.5C 753.5,734.5 748.5,734.5 743.5,734.5C 743.5,727.167 743.5,719.833 743.5,712.5 Z"/></g>
<g><path style="opacity:1" fill="#a5a5a6" d="M 655.5,713.5 C 660.305,712.513 665.305,712.179 670.5,712.5C 670.5,719.833 670.5,727.167 670.5,734.5C 665.305,734.821 660.305,734.487 655.5,733.5C 660.167,733.5 664.833,733.5 669.5,733.5C 669.5,726.833 669.5,720.167 669.5,713.5C 664.833,713.5 660.167,713.5 655.5,713.5 Z"/></g>
<g><path style="opacity:1" fill="#818282" d="M 597.5,718.5 C 602.833,718.5 608.167,718.5 613.5,718.5C 613.5,723.833 613.5,729.167 613.5,734.5C 608.167,734.5 602.833,734.5 597.5,734.5C 597.5,729.167 597.5,723.833 597.5,718.5 Z"/></g>
<g><path style="opacity:1" fill="#ececec" d="M 852.5,719.5 C 857.5,719.5 862.5,719.5 867.5,719.5C 867.948,724.041 867.281,728.374 865.5,732.5C 861.217,733.492 856.884,733.826 852.5,733.5C 852.5,728.833 852.5,724.167 852.5,719.5 Z"/></g>
<g><path style="opacity:1" fill="#fafafa" d="M 835.5,719.5 C 840.5,719.5 845.5,719.5 850.5,719.5C 850.5,724.167 850.5,728.833 850.5,733.5C 845.5,733.5 840.5,733.5 835.5,733.5C 835.5,728.833 835.5,724.167 835.5,719.5 Z"/></g>
<g><path style="opacity:1" fill="#f9f9f9" d="M 818.5,719.5 C 823.167,719.5 827.833,719.5 832.5,719.5C 832.5,724.167 832.5,728.833 832.5,733.5C 827.833,733.5 823.167,733.5 818.5,733.5C 818.5,728.833 818.5,724.167 818.5,719.5 Z"/></g>
<g><path style="opacity:1" fill="#fcfcfc" d="M 801.5,719.5 C 806.167,719.5 810.833,719.5 815.5,719.5C 815.5,724.167 815.5,728.833 815.5,733.5C 810.833,733.5 806.167,733.5 801.5,733.5C 801.5,728.833 801.5,724.167 801.5,719.5 Z"/></g>
<g><path style="opacity:1" fill="#fcfcfc" d="M 598.5,719.5 C 603.167,719.5 607.833,719.5 612.5,719.5C 612.5,724.167 612.5,728.833 612.5,733.5C 607.833,733.5 603.167,733.5 598.5,733.5C 598.5,728.833 598.5,724.167 598.5,719.5 Z"/></g>
<g><path style="opacity:1" fill="#7a7b7b" d="M 581.5,733.5 C 580.513,728.695 580.179,723.695 580.5,718.5C 585.5,718.5 590.5,718.5 595.5,718.5C 595.5,723.833 595.5,729.167 595.5,734.5C 590.637,734.819 585.97,734.486 581.5,733.5 Z"/></g>
<g><path style="opacity:1" fill="#fcfcfc" d="M 581.5,733.5 C 581.5,728.833 581.5,724.167 581.5,719.5C 585.833,719.5 590.167,719.5 594.5,719.5C 594.5,724.167 594.5,728.833 594.5,733.5C 590.167,733.5 585.833,733.5 581.5,733.5 Z"/></g>
<g><path style="opacity:1" fill="#8a8b8b" d="M 563.5,719.5 C 568.305,718.513 573.305,718.179 578.5,718.5C 578.821,723.695 578.487,728.695 577.5,733.5C 577.5,728.833 577.5,724.167 577.5,719.5C 572.833,719.5 568.167,719.5 563.5,719.5 Z"/></g>
<g><path style="opacity:1" fill="#fafafa" d="M 563.5,719.5 C 568.167,719.5 572.833,719.5 577.5,719.5C 577.5,724.167 577.5,728.833 577.5,733.5C 572.833,733.5 568.167,733.5 563.5,733.5C 563.5,728.833 563.5,724.167 563.5,719.5 Z"/></g>
<g><path style="opacity:1" fill="#f6f6f6" d="M 546.5,719.5 C 551.167,719.5 555.833,719.5 560.5,719.5C 560.5,724.167 560.5,728.833 560.5,733.5C 556.486,733.666 552.486,733.499 548.5,733C 546.852,728.683 546.186,724.183 546.5,719.5 Z"/></g>
<g><path style="opacity:1" fill="#fdfdfd" d="M 781.5,719.5 C 786.833,719.5 792.167,719.5 797.5,719.5C 797.5,724.167 797.5,728.833 797.5,733.5C 792.167,733.5 786.833,733.5 781.5,733.5C 781.5,728.833 781.5,724.167 781.5,719.5 Z"/></g>
<g><path style="opacity:1" fill="#f3f3f3" d="M 778.5,719.5 C 778.5,724.5 778.5,729.5 778.5,734.5C 772.642,734.822 766.975,734.489 761.5,733.5C 761.5,728.833 761.5,724.167 761.5,719.5C 767.167,719.5 772.833,719.5 778.5,719.5 Z"/></g>
<g><path style="opacity:1" fill="#fcfcfc" d="M 635.5,719.5 C 640.833,719.5 646.167,719.5 651.5,719.5C 651.5,724.167 651.5,728.833 651.5,733.5C 646.167,733.5 640.833,733.5 635.5,733.5C 635.5,728.833 635.5,724.167 635.5,719.5 Z"/></g>
<g><path style="opacity:1" fill="#6a6a6a" d="M 615.5,719.5 C 621.31,718.51 627.31,718.177 633.5,718.5C 633.5,723.833 633.5,729.167 633.5,734.5C 627.31,734.823 621.31,734.49 615.5,733.5C 621.167,733.5 626.833,733.5 632.5,733.5C 632.5,728.833 632.5,724.167 632.5,719.5C 626.833,719.5 621.167,719.5 615.5,719.5 Z"/></g>
<g><path style="opacity:1" fill="#fafafa" d="M 615.5,719.5 C 621.167,719.5 626.833,719.5 632.5,719.5C 632.5,724.167 632.5,728.833 632.5,733.5C 626.833,733.5 621.167,733.5 615.5,733.5C 615.5,728.833 615.5,724.167 615.5,719.5 Z"/></g>
<g><path style="opacity:1" fill="#7d7e7e" d="M 778.5,719.5 C 772.833,719.5 767.167,719.5 761.5,719.5C 761.5,724.167 761.5,728.833 761.5,733.5C 760.513,728.695 760.179,723.695 760.5,718.5C 766.69,718.177 772.69,718.51 778.5,719.5 Z"/></g>
<g><path style="opacity:1" fill="#939494" d="M 635.5,719.5 C 640.975,718.511 646.642,718.178 652.5,718.5C 652.5,723.833 652.5,729.167 652.5,734.5C 646.642,734.822 640.975,734.489 635.5,733.5C 640.833,733.5 646.167,733.5 651.5,733.5C 651.5,728.833 651.5,724.167 651.5,719.5C 646.167,719.5 640.833,719.5 635.5,719.5 Z"/></g>
<g><path style="opacity:1" fill="#707070" d="M 866.5,710.5 C 867.461,712.265 867.795,714.265 867.5,716.5C 837.662,716.831 807.995,716.498 778.5,715.5C 807.833,715.5 837.167,715.5 866.5,715.5C 866.5,713.833 866.5,712.167 866.5,710.5 Z"/></g>
<g><path style="opacity:1" fill="#fefffe" d="M 744.5,713.5 C 748.833,713.5 753.167,713.5 757.5,713.5C 757.5,720.167 757.5,726.833 757.5,733.5C 753.167,733.5 748.833,733.5 744.5,733.5C 744.5,726.833 744.5,720.167 744.5,713.5 Z"/></g>
<g><path style="opacity:1" fill="#fcfcfc" d="M 655.5,713.5 C 660.167,713.5 664.833,713.5 669.5,713.5C 669.5,720.167 669.5,726.833 669.5,733.5C 664.833,733.5 660.167,733.5 655.5,733.5C 655.5,726.833 655.5,720.167 655.5,713.5 Z"/></g>
<g><path style="opacity:1" fill="#818282" d="M 656.5,687.5 C 656.5,694.833 656.5,702.167 656.5,709.5C 660.833,709.5 665.167,709.5 669.5,709.5C 669.5,706.167 669.5,702.833 669.5,699.5C 670.482,702.962 670.815,706.629 670.5,710.5C 665.5,710.5 660.5,710.5 655.5,710.5C 655.175,702.648 655.508,694.982 656.5,687.5 Z"/></g>
<g><path style="opacity:1" fill="#727373" d="M 744.5,687.5 C 744.5,694.833 744.5,702.167 744.5,709.5C 748.833,709.5 753.167,709.5 757.5,709.5C 757.5,702.167 757.5,694.833 757.5,687.5C 758.492,694.982 758.825,702.648 758.5,710.5C 753.5,710.5 748.5,710.5 743.5,710.5C 743.175,702.648 743.508,694.982 744.5,687.5 Z"/></g>
<g><path style="opacity:1" fill="#fafafa" d="M 744.5,687.5 C 748.833,687.5 753.167,687.5 757.5,687.5C 757.5,694.833 757.5,702.167 757.5,709.5C 753.167,709.5 748.833,709.5 744.5,709.5C 744.5,702.167 744.5,694.833 744.5,687.5 Z"/></g>
<g><path style="opacity:1" fill="#fafafa" d="M 656.5,687.5 C 660.833,687.5 665.167,687.5 669.5,687.5C 669.5,691.5 669.5,695.5 669.5,699.5C 669.5,702.833 669.5,706.167 669.5,709.5C 665.167,709.5 660.833,709.5 656.5,709.5C 656.5,702.167 656.5,694.833 656.5,687.5 Z"/></g>
<g><path style="opacity:1" fill="#a5a5a6" d="M 668.5,684.5 C 668.5,677.167 668.5,669.833 668.5,662.5C 664.833,662.5 661.167,662.5 657.5,662.5C 657.795,664.735 657.461,666.735 656.5,668.5C 656.5,666.167 656.5,663.833 656.5,661.5C 660.833,661.5 665.167,661.5 669.5,661.5C 669.825,669.352 669.492,677.018 668.5,684.5 Z"/></g>
<g><path style="opacity:1" fill="#9a9a9a" d="M 756.5,684.5 C 756.5,677.167 756.5,669.833 756.5,662.5C 752.833,662.5 749.167,662.5 745.5,662.5C 745.802,665.059 745.468,667.393 744.5,669.5C 744.5,666.833 744.5,664.167 744.5,661.5C 748.833,661.5 753.167,661.5 757.5,661.5C 757.825,669.352 757.492,677.018 756.5,684.5 Z"/></g>
<g><path style="opacity:1" fill="#fcfcfc" d="M 756.5,684.5 C 752.5,684.5 748.5,684.5 744.5,684.5C 744.5,679.5 744.5,674.5 744.5,669.5C 745.468,667.393 745.802,665.059 745.5,662.5C 749.167,662.5 752.833,662.5 756.5,662.5C 756.5,669.833 756.5,677.167 756.5,684.5 Z"/></g>
<g><path style="opacity:1" fill="#fbfbfb" d="M 668.5,684.5 C 664.5,684.5 660.5,684.5 656.5,684.5C 656.5,679.167 656.5,673.833 656.5,668.5C 657.461,666.735 657.795,664.735 657.5,662.5C 661.167,662.5 664.833,662.5 668.5,662.5C 668.5,669.833 668.5,677.167 668.5,684.5 Z"/></g>
<g><path style="opacity:1" fill="#6f7070" d="M 657.5,649.5 C 657.5,652.5 657.5,655.5 657.5,658.5C 661.167,658.5 664.833,658.5 668.5,658.5C 664.702,659.483 660.702,659.817 656.5,659.5C 656.187,655.958 656.521,652.625 657.5,649.5 Z"/></g>
<g><path style="opacity:1" fill="#fafafb" d="M 745.5,639.5 C 749.167,639.5 752.833,639.5 756.5,639.5C 756.5,645.833 756.5,652.167 756.5,658.5C 752.833,658.5 749.167,658.5 745.5,658.5C 745.5,652.167 745.5,645.833 745.5,639.5 Z"/></g>
<g><path style="opacity:1" fill="#928e10" d="M 671.5,640.5 C 695.167,640.5 718.833,640.5 742.5,640.5C 742.829,654.677 742.496,668.677 741.5,682.5C 741.5,668.833 741.5,655.167 741.5,641.5C 718.5,641.5 695.5,641.5 672.5,641.5C 672.5,662.833 672.5,684.167 672.5,705.5C 671.503,684.006 671.169,662.34 671.5,640.5 Z"/></g>
<g><path style="opacity:1" fill="#fbfbfb" d="M 668.5,658.5 C 664.833,658.5 661.167,658.5 657.5,658.5C 657.5,655.5 657.5,652.5 657.5,649.5C 657.5,646.167 657.5,642.833 657.5,639.5C 661.167,639.5 664.833,639.5 668.5,639.5C 668.5,645.833 668.5,652.167 668.5,658.5 Z"/></g>
<g><path style="opacity:1" fill="#c1c1c1" d="M 745.5,612.5 C 749.167,612.5 752.833,612.5 756.5,612.5C 756.5,620.5 756.5,628.5 756.5,636.5C 752.833,636.5 749.167,636.5 745.5,636.5C 745.5,628.5 745.5,620.5 745.5,612.5 Z"/></g>
<g><path style="opacity:1" fill="#26156c" d="M 717.5,630.5 C 725.823,632.042 734.157,634.042 742.5,636.5C 742.5,637.833 742.5,639.167 742.5,640.5C 718.833,640.5 695.167,640.5 671.5,640.5C 671.365,638.446 672.032,636.779 673.5,635.5C 675.786,635.405 677.786,634.738 679.5,633.5C 692.006,630.894 704.672,629.894 717.5,630.5 Z"/></g>
<g><path style="opacity:1" fill="#d3241c" d="M 717.5,630.5 C 706.638,629.204 695.638,629.37 684.5,631C 682.509,631.374 680.842,632.207 679.5,633.5C 676.99,633.054 674.99,633.72 673.5,635.5C 671.586,632.316 670.92,628.649 671.5,624.5C 695.167,624.5 718.833,624.5 742.5,624.5C 742.823,628.226 742.489,631.893 741.5,635.5C 733.852,632.001 725.852,630.334 717.5,630.5 Z"/></g>
<g><path style="opacity:1" fill="#241108" d="M 679.5,633.5 C 677.786,634.738 675.786,635.405 673.5,635.5C 674.99,633.72 676.99,633.054 679.5,633.5 Z"/></g>
<g><path style="opacity:1" fill="#1e0f0c" d="M 717.5,630.5 C 704.672,629.894 692.006,630.894 679.5,633.5C 680.842,632.207 682.509,631.374 684.5,631C 695.638,629.37 706.638,629.204 717.5,630.5 Z"/></g>
<g><path style="opacity:1" fill="#dbdbdb" d="M 735.5,617.5 C 737.833,617.5 740.167,617.5 742.5,617.5C 742.5,619.167 742.5,620.833 742.5,622.5C 740.167,622.5 737.833,622.5 735.5,622.5C 735.5,620.833 735.5,619.167 735.5,617.5 Z"/></g>
<g><path style="opacity:1" fill="#dedede" d="M 707.5,617.5 C 713.5,617.5 719.5,617.5 725.5,617.5C 725.5,619.167 725.5,620.833 725.5,622.5C 719.5,622.5 713.5,622.5 707.5,622.5C 707.5,620.833 707.5,619.167 707.5,617.5 Z"/></g>
<g><path style="opacity:1" fill="#dcdcdc" d="M 697.5,617.5 C 700.5,617.5 703.5,617.5 706.5,617.5C 706.5,619.167 706.5,620.833 706.5,622.5C 703.5,622.5 700.5,622.5 697.5,622.5C 697.5,620.833 697.5,619.167 697.5,617.5 Z"/></g>
<g><path style="opacity:1" fill="#d4d4d4" d="M 687.5,617.5 C 690.5,617.5 693.5,617.5 696.5,617.5C 696.5,619.167 696.5,620.833 696.5,622.5C 693.5,622.5 690.5,622.5 687.5,622.5C 687.5,620.833 687.5,619.167 687.5,617.5 Z"/></g>
<g><path style="opacity:1" fill="#ececec" d="M 726.5,617.5 C 729.167,617.5 731.833,617.5 734.5,617.5C 734.5,619.167 734.5,620.833 734.5,622.5C 731.833,622.5 729.167,622.5 726.5,622.5C 726.5,620.833 726.5,619.167 726.5,617.5 Z"/></g>
<g><path style="opacity:1" fill="#e3e3e3" d="M 671.5,617.5 C 676.5,617.5 681.5,617.5 686.5,617.5C 686.5,619.167 686.5,620.833 686.5,622.5C 681.5,622.5 676.5,622.5 671.5,622.5C 671.5,620.833 671.5,619.167 671.5,617.5 Z"/></g>
<g><path style="opacity:1" fill="#797979" d="M 671.5,608.5 C 674.5,608.5 677.5,608.5 680.5,608.5C 680.5,610.5 680.5,612.5 680.5,614.5C 698.167,614.5 715.833,614.5 733.5,614.5C 715.674,615.497 697.674,615.83 679.5,615.5C 679.5,613.5 679.5,611.5 679.5,609.5C 676.615,609.806 673.948,609.473 671.5,608.5 Z"/></g>
<g><path style="opacity:1" fill="#f1f1f1" d="M 671.5,611.5 C 673.167,611.5 674.833,611.5 676.5,611.5C 676.5,612.833 676.5,614.167 676.5,615.5C 674.833,615.5 673.167,615.5 671.5,615.5C 671.5,614.167 671.5,612.833 671.5,611.5 Z"/></g>
<g><path style="opacity:1" fill="#fefefe" d="M 746.5,613.5 C 749.5,613.5 752.5,613.5 755.5,613.5C 755.5,620.833 755.5,628.167 755.5,635.5C 752.5,635.5 749.5,635.5 746.5,635.5C 746.5,628.167 746.5,620.833 746.5,613.5 Z"/></g>
<g><path style="opacity:1" fill="#efefef" d="M 657.5,612.5 C 661.167,612.5 664.833,612.5 668.5,612.5C 668.5,620.5 668.5,628.5 668.5,636.5C 664.833,636.5 661.167,636.5 657.5,636.5C 657.5,628.5 657.5,620.5 657.5,612.5 Z"/></g>
<g><path style="opacity:1" fill="#e4e4e4" d="M 735.5,610.5 C 737.833,610.5 740.167,610.5 742.5,610.5C 742.5,612.167 742.5,613.833 742.5,615.5C 740.167,615.5 737.833,615.5 735.5,615.5C 735.5,613.833 735.5,612.167 735.5,610.5 Z"/></g>
<g><path style="opacity:1" fill="#efefef" d="M 747.5,595.5 C 749.5,595.5 751.5,595.5 753.5,595.5C 753.5,600.167 753.5,604.833 753.5,609.5C 751.5,609.5 749.5,609.5 747.5,609.5C 747.5,604.833 747.5,600.167 747.5,595.5 Z"/></g>
<g><path style="opacity:1" fill="#e0e0e0" d="M 659.5,595.5 C 661.833,595.5 664.167,595.5 666.5,595.5C 666.5,600.167 666.5,604.833 666.5,609.5C 664.167,609.5 661.833,609.5 659.5,609.5C 659.5,604.833 659.5,600.167 659.5,595.5 Z"/></g>
<g><path style="opacity:1" fill="#28166f" d="M 205.5,797.5 C 224.262,820.757 247.262,838.591 274.5,851C 287.124,856.767 300.124,861.767 313.5,866C 340.013,872.727 366.346,880.06 392.5,888C 418.27,899.103 439.27,916.103 455.5,939C 452.552,954.96 449.052,970.793 445,986.5C 444.692,945.903 425.525,919.069 387.5,906C 358.121,900.261 328.788,894.261 299.5,888C 277.096,882.531 256.429,873.198 237.5,860C 228.439,852.615 221.272,843.782 216,833.5C 212.183,821.56 208.683,809.56 205.5,797.5 Z"/></g>
<g><path style="opacity:1" fill="#28166f" d="M 1215.5,796.5 C 1216.04,796.56 1216.38,796.893 1216.5,797.5C 1212.54,808.33 1209.04,819.33 1206,830.5C 1198.96,846.099 1188.13,858.266 1173.5,867C 1159.35,875.24 1144.35,881.573 1128.5,886C 1118.81,888.226 1109.14,890.56 1099.5,893C 1079.39,896.029 1059.39,899.695 1039.5,904C 998.618,915.259 977.451,942.092 976,984.5C 971.9,969.295 968.4,953.962 965.5,938.5C 986.485,909.681 1014.15,890.514 1048.5,881C 1088.79,873.68 1127.12,860.68 1163.5,842C 1183.84,830.321 1201.17,815.154 1215.5,796.5 Z"/></g>
<g><path style="opacity:1" fill="#0e0c21" d="M 847.5,801.5 C 847.5,809.5 847.5,817.5 847.5,825.5C 810.167,825.5 772.833,825.5 735.5,825.5C 735.5,825.167 735.5,824.833 735.5,824.5C 772.5,824.5 809.5,824.5 846.5,824.5C 846.175,816.648 846.508,808.982 847.5,801.5 Z"/></g>
<g><path style="opacity:1" fill="#1e1917" d="M 712.5,860.5 C 710.769,875.641 710.269,890.974 711,906.5C 711.717,905.956 712.217,905.289 712.5,904.5C 716.011,900.14 719.011,895.473 721.5,890.5C 721.435,890.938 721.601,891.272 722,891.5C 730.476,880.015 741.643,872.682 755.5,869.5C 745.805,872.851 737.138,878.018 729.5,885C 722.107,893.126 715.44,901.792 709.5,911C 707.5,911.667 705.5,911.667 703.5,911C 702.244,910.583 701.577,909.75 701.5,908.5C 702.8,906.777 703.467,904.61 703.5,902C 702.957,888.162 702.29,874.329 701.5,860.5C 694.835,855.052 692.668,848.052 695,839.5C 700.079,829.605 707.079,827.938 716,834.5C 721.647,844.202 720.48,852.868 712.5,860.5 Z"/></g>
<g><path style="opacity:1" fill="#da261d" d="M 456.5,839.5 C 486.372,851.499 504.206,873.499 510,905.5C 511.029,914.632 511.529,923.799 511.5,933C 509.866,964.15 509.366,995.317 510,1026.5C 510.17,1040.86 512.337,1054.86 516.5,1068.5C 513.353,1086.11 507.52,1102.77 499,1118.5C 492.044,1130.96 481.877,1139.62 468.5,1144.5C 465.223,1143.06 462.723,1140.73 461,1137.5C 456.745,1124.49 455.411,1111.15 457,1097.5C 458.052,1087.42 459.552,1077.42 461.5,1067.5C 458.482,1067.66 455.482,1067.5 452.5,1067C 451.789,1065.75 450.956,1064.58 450,1063.5C 448.088,1056.64 447.255,1049.64 447.5,1042.5C 448.027,1030.37 449.527,1018.37 452,1006.5C 460.259,977.278 466.259,947.612 470,917.5C 473.71,889.946 469.21,863.946 456.5,839.5 Z"/></g>
<g><path style="opacity:1" fill="#da251d" d="M 962.5,839.5 C 963.376,839.369 964.043,839.702 964.5,840.5C 958.052,851.675 953.886,863.675 952,876.5C 949.358,899.991 950.358,923.325 955,946.5C 960.539,970.119 965.873,993.786 971,1017.5C 973.092,1030.43 973.759,1043.43 973,1056.5C 972.989,1065.02 968.822,1068.68 960.5,1067.5C 961.576,1078.17 962.743,1088.84 964,1099.5C 965.711,1113.3 964.045,1126.63 959,1139.5C 957.182,1142 954.848,1143.67 952,1144.5C 940.553,1139.44 931.22,1131.77 924,1121.5C 914.315,1105.11 908.149,1087.45 905.5,1068.5C 908.589,1055.04 910.423,1041.37 911,1027.5C 911.572,995.32 911.072,963.153 909.5,931C 907.838,898.957 918.838,872.29 942.5,851C 949.097,846.871 955.764,843.038 962.5,839.5 Z"/></g>
<g><path style="opacity:1" fill="#da251d" d="M 1198.5,861.5 C 1191.61,890.085 1177.27,914.585 1155.5,935C 1135.34,949.948 1112.67,958.614 1087.5,961C 1066.52,962.666 1045.52,963.999 1024.5,965C 1011.25,967.042 999.421,972.208 989,980.5C 990.102,951.051 1004.27,930.551 1031.5,919C 1053.05,912.556 1075.05,907.889 1097.5,905C 1125.69,900.603 1152.36,891.603 1177.5,878C 1185.3,873.445 1192.3,867.945 1198.5,861.5 Z"/></g>
<g><path style="opacity:1" fill="#da261d" d="M 222.5,862.5 C 236.753,874.799 252.753,884.299 270.5,891C 282.703,895.067 295.037,898.734 307.5,902C 330.18,906.338 352.847,910.671 375.5,915C 405.909,921.743 424.742,940.243 432,970.5C 432.667,973.833 432.667,977.167 432,980.5C 421.215,972.233 409.048,967.067 395.5,965C 371.737,964.508 348.07,962.842 324.5,960C 280.583,953.082 249.75,929.249 232,888.5C 227.92,880.186 224.753,871.52 222.5,862.5 Z"/></g>
<g><path style="opacity:1" fill="#38363e" d="M 660.5,870.5 C 652.2,869.629 643.867,869.295 635.5,869.5C 642.264,867.247 649.264,866.913 656.5,868.5C 658.333,868.585 659.666,869.252 660.5,870.5 Z"/></g>
<g><path style="opacity:1" fill="#f8f8f8" d="M 859.5,904.5 C 863.852,904.154 867.519,902.488 870.5,899.5C 871.822,899.33 872.989,899.663 874,900.5C 875.92,908.616 877.753,916.616 879.5,924.5C 880.774,931.172 880.774,937.839 879.5,944.5C 878.007,946.902 877.007,949.569 876.5,952.5C 875.778,952.918 875.278,953.584 875,954.5C 874.536,953.906 874.369,953.239 874.5,952.5C 875.595,946.954 876.928,941.454 878.5,936C 877.787,930.357 876.621,930.19 875,935.5C 864.475,974.597 853.475,1013.6 842,1052.5C 841.194,1056.61 841.36,1059.94 842.5,1062.5C 843.404,1063.21 843.737,1064.21 843.5,1065.5C 842.566,1069.37 841.066,1073.04 839,1076.5C 837.426,1077.85 835.593,1078.51 833.5,1078.5C 825.404,1075.29 817.404,1071.79 809.5,1068C 807.26,1067.02 804.927,1066.52 802.5,1066.5C 801.432,1065.57 800.099,1065.23 798.5,1065.5C 796.337,1064.53 794.004,1063.7 791.5,1063C 782.657,1062.18 773.99,1062.34 765.5,1063.5C 764.833,1063.5 764.167,1063.5 763.5,1063.5C 756.104,1063.72 748.77,1064.56 741.5,1066C 739.509,1066.37 737.842,1067.21 736.5,1068.5C 732.494,1069.22 728.494,1070.06 724.5,1071C 722.68,1071.2 721.347,1072.03 720.5,1073.5C 711.161,1073.67 701.827,1073.5 692.5,1073C 686.938,1071.03 681.271,1069.53 675.5,1068.5C 671.645,1065.96 667.312,1064.96 662.5,1065.5C 662.167,1065.5 661.833,1065.5 661.5,1065.5C 659.401,1064.39 657.067,1063.72 654.5,1063.5C 648.559,1062.09 642.392,1061.42 636,1061.5C 630.579,1061.33 625.413,1061.99 620.5,1063.5C 615.827,1064.22 611.16,1065.06 606.5,1066C 597.38,1070.31 588.214,1074.48 579,1078.5C 576.594,1078.3 574.594,1077.3 573,1075.5C 571.06,1072.07 569.894,1068.41 569.5,1064.5C 570.833,1064.5 571.5,1063.83 571.5,1062.5C 571.5,1059.83 571.5,1057.17 571.5,1054.5C 572.999,1054.04 573.999,1052.71 574.5,1050.5C 574.5,1048.17 574.5,1045.83 574.5,1043.5C 574.5,1042.5 574.5,1041.5 574.5,1040.5C 575.5,1040.5 576.5,1040.5 577.5,1040.5C 577.5,1038.83 577.5,1037.17 577.5,1035.5C 576.463,1026.35 574.63,1017.35 572,1008.5C 562.693,975.273 553.693,941.939 545,908.5C 544.424,905.876 543.09,905.209 541,906.5C 540.779,910.57 541.279,914.57 542.5,918.5C 543.371,921.272 543.371,923.938 542.5,926.5C 541.028,923.731 539.861,920.731 539,917.5C 537.923,919.116 537.423,920.949 537.5,923C 537.725,925.528 538.058,928.028 538.5,930.5C 538.737,931.791 538.404,932.791 537.5,933.5C 536.778,933.082 536.278,932.416 536,931.5C 535.667,931.833 535.333,932.167 535,932.5C 534.457,935.868 534.624,939.201 535.5,942.5C 535.633,945.925 534.967,946.258 533.5,943.5C 533.134,941.095 532.467,938.762 531.5,936.5C 532.302,933.551 532.636,930.551 532.5,927.5C 533.581,924.373 534.247,921.04 534.5,917.5C 536.25,913.817 536.917,909.817 536.5,905.5C 537.314,903.219 538.648,901.219 540.5,899.5C 559.383,909.873 577.383,908.373 594.5,895C 606.315,883.431 619.982,874.931 635.5,869.5C 643.867,869.295 652.2,869.629 660.5,870.5C 671.837,875.812 681.837,883.145 690.5,892.5C 693.676,898.189 697.342,903.523 701.5,908.5C 701.577,909.75 702.244,910.583 703.5,911C 705.5,911.667 707.5,911.667 709.5,911C 715.44,901.792 722.107,893.126 729.5,885C 737.138,878.018 745.805,872.851 755.5,869.5C 760.838,868.998 766.172,868.831 771.5,869C 790.001,873.708 806.001,882.708 819.5,896C 831.421,906.041 844.754,908.875 859.5,904.5 Z"/></g>
<g><path style="opacity:1" fill="#968fb4" d="M 899.5,856.5 C 899.556,861.731 898.889,866.731 897.5,871.5C 897.444,866.269 898.111,861.269 899.5,856.5 Z"/></g>
<g><path style="opacity:1" fill="#1d1c22" d="M 660.5,870.5 C 673.3,873.911 683.3,881.244 690.5,892.5C 681.837,883.145 671.837,875.812 660.5,870.5 Z"/></g>
<g><path style="opacity:1" fill="#161519" d="M 635.5,869.5 C 619.982,874.931 606.315,883.431 594.5,895C 577.383,908.373 559.383,909.873 540.5,899.5C 538.648,901.219 537.314,903.219 536.5,905.5C 535.68,901.802 537.013,899.469 540.5,898.5C 553.207,906.362 566.54,907.529 580.5,902C 593.11,893.722 605.444,885.056 617.5,876C 623.241,872.956 629.241,870.789 635.5,869.5 Z"/></g>
<g><path style="opacity:1" fill="#6c6d6d" d="M 1330.5,875.5 C 1330.7,880.75 1330.03,885.75 1328.5,890.5C 1328.61,885.29 1329.28,880.29 1330.5,875.5 Z"/></g>
<g><path style="opacity:1" fill="#a19bbc" d="M 963.5,878.5 C 962.385,890.327 962.385,901.993 963.5,913.5C 963.662,915.527 963.495,917.527 963,919.5C 962.667,919.167 962.333,918.833 962,918.5C 961.833,913 961.667,907.5 961.5,902C 961.307,893.94 961.973,886.107 963.5,878.5 Z"/></g>
<g><path style="opacity:1" fill="#221d22" d="M 690.5,892.5 C 691.794,893.29 692.961,894.29 694,895.5C 694.399,895.272 694.565,894.938 694.5,894.5C 696.745,899.116 699.078,903.783 701.5,908.5C 697.342,903.523 693.676,898.189 690.5,892.5 Z"/></g>
<g><path style="opacity:1" fill="#ada80a" d="M 712.5,860.5 C 711.761,875.336 711.761,890.003 712.5,904.5C 712.217,905.289 711.717,905.956 711,906.5C 710.269,890.974 710.769,875.641 712.5,860.5 Z"/></g>
<g><path style="opacity:1" fill="#1d1c22" d="M 859.5,904.5 C 844.754,908.875 831.421,906.041 819.5,896C 806.001,882.708 790.001,873.708 771.5,869C 766.172,868.831 760.838,868.998 755.5,869.5C 764.847,866.663 774.181,867.163 783.5,871C 789.287,873.394 794.954,876.06 800.5,879C 810.27,887.438 820.603,895.104 831.5,902C 833.5,902.667 835.5,903.333 837.5,904C 844.826,904.5 852.159,904.666 859.5,904.5 Z"/></g>
<g><path style="opacity:1" fill="#110f17" d="M 870.5,899.5 C 867.519,902.488 863.852,904.154 859.5,904.5C 862.836,902.269 866.503,900.603 870.5,899.5 Z"/></g>
<g><path style="opacity:1" fill="#151418" d="M 870.5,899.5 C 872.994,897.923 874.827,898.59 876,901.5C 877.623,909.11 878.789,916.777 879.5,924.5C 877.753,916.616 875.92,908.616 874,900.5C 872.989,899.663 871.822,899.33 870.5,899.5 Z"/></g>
<g><path style="opacity:1" fill="#383938" d="M 536.5,905.5 C 536.917,909.817 536.25,913.817 534.5,917.5C 534.539,913.267 535.205,909.267 536.5,905.5 Z"/></g>
<g><path style="opacity:1" fill="#aba5c3" d="M 458.5,885.5 C 459.659,895.992 459.825,906.659 459,917.5C 458.667,917.833 458.333,918.167 458,918.5C 456.663,914.974 456.163,911.308 456.5,907.5C 457.314,909.631 457.814,911.964 458,914.5C 458.5,904.839 458.666,895.172 458.5,885.5 Z"/></g>
<g><path style="opacity:1" fill="#231f1c" d="M 705.5,915.5 C 706.5,915.5 707.5,915.5 708.5,915.5C 708.5,964.833 708.5,1014.17 708.5,1063.5C 707.178,1063.67 706.011,1063.34 705,1062.5C 704.172,1013.43 704.339,964.429 705.5,915.5 Z"/></g>
<g><path style="opacity:1" fill="#0c0c0d" d="M 597.5,921.5 C 602.5,921.5 607.5,921.5 612.5,921.5C 612.5,949.167 612.5,976.833 612.5,1004.5C 606.5,1004.5 600.5,1004.5 594.5,1004.5C 594.833,986.488 594.5,968.488 593.5,950.5C 588.181,955.991 581.847,959.657 574.5,961.5C 574.334,955.491 574.501,949.491 575,943.5C 585.683,939.316 593.183,931.983 597.5,921.5 Z"/></g>
<g><path style="opacity:1" fill="#818282" d="M 597.5,921.5 C 602.64,920.512 607.974,920.179 613.5,920.5C 613.5,948.833 613.5,977.167 613.5,1005.5C 606.978,1005.82 600.645,1005.49 594.5,1004.5C 600.5,1004.5 606.5,1004.5 612.5,1004.5C 612.5,976.833 612.5,949.167 612.5,921.5C 607.5,921.5 602.5,921.5 597.5,921.5 Z"/></g>
<g><path style="opacity:1" fill="#0c0c0d" d="M 653.5,921.5 C 673.596,920.093 684.763,929.427 687,949.5C 687.749,960.532 687.415,971.532 686,982.5C 682.801,997.701 673.468,1005.7 658,1006.5C 645.588,1005.93 637.754,999.595 634.5,987.5C 640.362,985.233 646.362,984.566 652.5,985.5C 655.407,993.582 659.907,994.582 666,988.5C 668.41,982.377 669.41,976.044 669,969.5C 658.958,980.159 648.958,980.159 639,969.5C 632.988,958.32 631.988,946.653 636,934.5C 639.691,927.091 645.525,922.757 653.5,921.5 Z"/></g>
<g><path style="opacity:1" fill="#0d0d0e" d="M 738.5,921.5 C 749.361,920.008 759.195,922.342 768,928.5C 773.956,938.139 773.956,947.806 768,957.5C 766.926,958.618 765.76,959.618 764.5,960.5C 773.973,967.072 777.473,976.072 775,987.5C 770.827,1000.85 761.66,1007.18 747.5,1006.5C 727.976,1005.51 719.143,995.173 721,975.5C 722.332,968.999 725.832,963.999 731.5,960.5C 727.518,957.878 725.018,954.211 724,949.5C 721.238,936.018 726.072,926.684 738.5,921.5 Z"/></g>
<g><path style="opacity:1" fill="#0c0d0e" d="M 790.5,922.5 C 805.167,922.5 819.833,922.5 834.5,922.5C 834.5,928.5 834.5,934.5 834.5,940.5C 824.5,940.5 814.5,940.5 804.5,940.5C 803.495,944.521 803.495,948.521 804.5,952.5C 814.854,947.714 824.021,949.381 832,957.5C 837.241,965.742 838.908,974.742 837,984.5C 833.582,999.242 824.249,1006.57 809,1006.5C 794.931,1005.61 786.097,998.273 782.5,984.5C 788.74,982.928 795.073,981.928 801.5,981.5C 801.683,989.523 805.683,993.023 813.5,992C 819.212,986.331 821.045,979.497 819,971.5C 816.396,964.28 811.563,962.114 804.5,965C 802.898,967.111 800.898,968.611 798.5,969.5C 794.175,969.005 790.008,968.005 786,966.5C 786.903,951.8 788.403,937.133 790.5,922.5 Z"/></g>
<g><path style="opacity:1" fill="#28166f" d="M 1190.5,911.5 C 1182.32,927.847 1173.49,943.847 1164,959.5C 1151.99,976.257 1136.15,987.757 1116.5,994C 1108.52,995.797 1100.52,997.463 1092.5,999C 1070.48,999.119 1048.48,999.786 1026.5,1001C 1005.55,1006.79 992.545,1020.29 987.5,1041.5C 986.732,1042.26 986.232,1043.26 986,1044.5C 985.819,1041.31 985.319,1038.31 984.5,1035.5C 984.012,1025.89 982.678,1016.39 980.5,1007C 992.14,989.342 1008.47,979.008 1029.5,976C 1056.35,975.382 1083.01,973.048 1109.5,969C 1144.45,960.866 1171.45,941.7 1190.5,911.5 Z"/></g>
<g><path style="opacity:1" fill="#a59fbe" d="M 521.5,909.5 C 523.042,917.775 523.709,926.275 523.5,935C 523.5,941.343 523.166,947.509 522.5,953.5C 522.685,938.816 522.351,924.149 521.5,909.5 Z"/></g>
<g><path style="opacity:1" fill="#151419" d="M 532.5,927.5 C 532.636,930.551 532.302,933.551 531.5,936.5C 532.467,938.762 533.134,941.095 533.5,943.5C 533.5,944.5 533.5,945.5 533.5,946.5C 530.097,940.291 529.763,933.958 532.5,927.5 Z"/></g>
<g><path style="opacity:1" fill="#f6f6f6" d="M 743.5,935.5 C 753.655,934.829 757.488,939.496 755,949.5C 750.333,954.833 745.667,954.833 741,949.5C 739.806,944.369 740.639,939.702 743.5,935.5 Z"/></g>
<g><path style="opacity:1" fill="#f6f6f6" d="M 655.5,935.5 C 661.843,934.755 666.01,937.422 668,943.5C 670.001,951.181 668.167,957.681 662.5,963C 656.691,964.345 652.857,962.178 651,956.5C 650.333,951.5 650.333,946.5 651,941.5C 652.332,939.34 653.832,937.34 655.5,935.5 Z"/></g>
<g><path style="opacity:1" fill="#333334" d="M 879.5,924.5 C 880.916,928.268 881.916,932.268 882.5,936.5C 882.095,939.505 881.095,942.171 879.5,944.5C 880.774,937.839 880.774,931.172 879.5,924.5 Z"/></g>
<g><path style="opacity:1" fill="#1c1817" d="M 537.5,933.5 C 548.062,974.086 559.396,1014.42 571.5,1054.5C 571.5,1057.17 571.5,1059.83 571.5,1062.5C 569.557,1059.12 568.057,1055.45 567,1051.5C 557.172,1014.86 546.672,978.531 535.5,942.5C 534.624,939.201 534.457,935.868 535,932.5C 535.333,932.167 535.667,931.833 536,931.5C 536.278,932.416 536.778,933.082 537.5,933.5 Z"/></g>
<g><path style="opacity:1" fill="#1e1e1e" d="M 879.5,944.5 C 879.258,948.479 878.258,952.146 876.5,955.5C 876.5,954.5 876.5,953.5 876.5,952.5C 877.007,949.569 878.007,946.902 879.5,944.5 Z"/></g>
<g><path style="opacity:1" fill="#1e1a18" d="M 866.5,932.5 C 856.323,967.573 846.656,1002.91 837.5,1038.5C 837.44,1039.04 837.107,1039.38 836.5,1039.5C 835.34,1035.54 835.173,1031.54 836,1027.5C 846.566,986.654 857.4,945.987 868.5,905.5C 871.488,905.155 872.821,906.488 872.5,909.5C 870.03,917.046 868.03,924.712 866.5,932.5 Z"/></g>
<g><path style="opacity:1" fill="#1f1d26" d="M 536.5,956.5 C 537.891,958.96 539.058,961.626 540,964.5C 541.731,969.647 542.897,974.98 543.5,980.5C 540.169,972.882 537.835,964.882 536.5,956.5 Z"/></g>
<g><path style="opacity:1" fill="#1d1917" d="M 542.5,926.5 C 552.424,965.827 563.09,1004.83 574.5,1043.5C 574.5,1045.83 574.5,1048.17 574.5,1050.5C 572.716,1049.43 571.549,1047.76 571,1045.5C 560.844,1006.83 550.01,968.495 538.5,930.5C 538.058,928.028 537.725,925.528 537.5,923C 537.423,920.949 537.923,919.116 539,917.5C 539.861,920.731 541.028,923.731 542.5,926.5 Z"/></g>
<g><path style="opacity:1" fill="#212123" d="M 876.5,955.5 C 875.256,962.823 873.256,969.823 870.5,976.5C 870.338,974.473 870.505,972.473 871,970.5C 872.528,965.274 874.362,960.274 876.5,955.5 Z"/></g>
<g><path style="opacity:1" fill="#1f1b19" d="M 577.5,1035.5 C 576.71,1036.61 576.21,1037.94 576,1039.5C 565.131,998.934 553.964,958.601 542.5,918.5C 541.279,914.57 540.779,910.57 541,906.5C 543.09,905.209 544.424,905.876 545,908.5C 553.693,941.939 562.693,975.273 572,1008.5C 574.63,1017.35 576.463,1026.35 577.5,1035.5 Z"/></g>
<g><path style="opacity:1" fill="#f6f6f6" d="M 744.5,967.5 C 749.814,966.74 753.647,968.74 756,973.5C 757.393,979.924 756.227,985.757 752.5,991C 746.406,993.705 742.239,991.872 740,985.5C 738.226,978.523 739.726,972.523 744.5,967.5 Z"/></g>
<g><path style="opacity:1" fill="#958eb4" d="M 327.5,971.5 C 332.1,971.28 336.433,971.946 340.5,973.5C 335.9,973.72 331.567,973.054 327.5,971.5 Z"/></g>
<g><path style="opacity:1" fill="#d8d7d7" d="M 538.5,930.5 C 550.01,968.495 560.844,1006.83 571,1045.5C 571.549,1047.76 572.716,1049.43 574.5,1050.5C 573.999,1052.71 572.999,1054.04 571.5,1054.5C 559.396,1014.42 548.062,974.086 537.5,933.5C 538.404,932.791 538.737,931.791 538.5,930.5 Z"/></g>
<g><path style="opacity:1" fill="#dbdbda" d="M 542.5,918.5 C 553.964,958.601 565.131,998.934 576,1039.5C 576.21,1037.94 576.71,1036.61 577.5,1035.5C 577.5,1037.17 577.5,1038.83 577.5,1040.5C 576.5,1040.5 575.5,1040.5 574.5,1040.5C 574.5,1041.5 574.5,1042.5 574.5,1043.5C 563.09,1004.83 552.424,965.827 542.5,926.5C 543.371,923.938 543.371,921.272 542.5,918.5 Z"/></g>
<g><path style="opacity:1" fill="#da251d" d="M 265.5,985.5 C 284.74,1000.75 306.74,1009.25 331.5,1011C 351.876,1011.06 372.209,1011.73 392.5,1013C 408.77,1018.94 419.103,1030.27 423.5,1047C 411.581,1045.59 399.581,1045.26 387.5,1046C 370.467,1049.44 353.3,1051.94 336,1053.5C 324.018,1053.46 313.185,1049.96 303.5,1043C 286.22,1026.96 273.553,1007.79 265.5,985.5 Z"/></g>
<g><path style="opacity:1" fill="#da261d" d="M 1155.5,984.5 C 1148.76,1004.85 1137.76,1023.02 1122.5,1039C 1110.99,1049.17 1097.49,1054.01 1082,1053.5C 1064.42,1051.65 1046.92,1049.15 1029.5,1046C 1019.04,1045.03 1008.7,1045.53 998.5,1047.5C 1002.37,1029.13 1013.37,1017.3 1031.5,1012C 1050.5,1011.67 1069.5,1011.33 1088.5,1011C 1107.52,1008.88 1125.52,1003.55 1142.5,995C 1147.31,992.015 1151.64,988.515 1155.5,984.5 Z"/></g>
<g><path style="opacity:1" fill="#19181c" d="M 870.5,976.5 C 868.28,986.819 865.28,996.819 861.5,1006.5C 863.325,996.036 866.325,986.036 870.5,976.5 Z"/></g>
<g><path style="opacity:1" fill="#d9d9d8" d="M 866.5,932.5 C 866.216,934.415 866.549,936.081 867.5,937.5C 858.759,971.714 849.426,1005.71 839.5,1039.5C 839.657,1038.13 839.49,1036.79 839,1035.5C 838.768,1036.74 838.268,1037.74 837.5,1038.5C 846.656,1002.91 856.323,967.573 866.5,932.5 Z"/></g>
<g><path style="opacity:1" fill="#1f1e23" d="M 546.5,991.5 C 551.605,1004.41 555.605,1017.74 558.5,1031.5C 553.896,1018.43 549.896,1005.1 546.5,991.5 Z"/></g>
<g><path style="opacity:1" fill="#1e1a19" d="M 839.5,1039.5 C 849.426,1005.71 858.759,971.714 867.5,937.5C 869.434,930.925 871.434,924.258 873.5,917.5C 875.395,919.867 875.895,922.534 875,925.5C 863.15,967.906 851.15,1010.24 839,1052.5C 838.294,1048.11 838.46,1043.78 839.5,1039.5 Z"/></g>
<g><path style="opacity:1" fill="#1b1b1b" d="M 861.5,1006.5 C 860.277,1013.82 858.277,1020.82 855.5,1027.5C 856.727,1020.17 858.727,1013.17 861.5,1006.5 Z"/></g>
<g><path style="opacity:1" fill="#1e1917" d="M 645.5,1021.5 C 663.334,1020.63 680.334,1023.8 696.5,1031C 699.21,1032.46 699.876,1034.46 698.5,1037C 688.437,1033.9 678.104,1031.23 667.5,1029C 650.57,1027.38 633.903,1028.72 617.5,1033C 605.491,1037.09 593.658,1041.59 582,1046.5C 578.854,1044.7 578.687,1042.54 581.5,1040C 601.871,1029.95 623.204,1023.78 645.5,1021.5 Z"/></g>
<g><path style="opacity:1" fill="#1e1a17" d="M 751.5,1021.5 C 779.397,1021.23 805.73,1027.39 830.5,1040C 832.229,1041.79 832.896,1043.96 832.5,1046.5C 820.028,1041.71 807.362,1037.21 794.5,1033C 767.757,1025.69 741.59,1027.19 716,1037.5C 713.681,1036.59 713.014,1034.92 714,1032.5C 717.055,1030.48 720.222,1028.65 723.5,1027C 732.759,1024.05 742.092,1022.21 751.5,1021.5 Z"/></g>
<g><path style="opacity:1" fill="#1c1917" d="M 874.5,952.5 C 862.967,988.769 852.301,1025.44 842.5,1062.5C 841.36,1059.94 841.194,1056.61 842,1052.5C 853.475,1013.6 864.475,974.597 875,935.5C 876.621,930.19 877.787,930.357 878.5,936C 876.928,941.454 875.595,946.954 874.5,952.5 Z"/></g>
<g><path style="opacity:1" fill="#1f1b18" d="M 631.5,1033.5 C 652.732,1031.64 673.398,1034.14 693.5,1041C 697.866,1042.7 698.366,1044.86 695,1047.5C 654.998,1033.75 616.665,1037.41 580,1058.5C 578.513,1056.73 578.18,1054.73 579,1052.5C 581.087,1051.21 583.254,1050.04 585.5,1049C 600.698,1043.1 616.032,1037.93 631.5,1033.5 Z"/></g>
<g><path style="opacity:1" fill="#1f1b19" d="M 744.5,1033.5 C 776.404,1031.27 806.237,1037.94 834,1053.5C 834.884,1055.64 834.384,1057.31 832.5,1058.5C 803.515,1042.6 772.515,1036.77 739.5,1041C 731.753,1042.41 724.253,1044.58 717,1047.5C 715.368,1045.97 715.201,1044.31 716.5,1042.5C 725.708,1038.74 735.041,1035.74 744.5,1033.5 Z"/></g>
<g><path style="opacity:1" fill="#222224" d="M 855.5,1027.5 C 854.591,1033.49 852.924,1039.15 850.5,1044.5C 851.099,1038.42 852.766,1032.75 855.5,1027.5 Z"/></g>
<g><path style="opacity:1" fill="#161618" d="M 558.5,1031.5 C 560.568,1034.76 561.568,1038.43 561.5,1042.5C 559.742,1039.15 558.742,1035.48 558.5,1031.5 Z"/></g>
<g><path style="opacity:1" fill="#242424" d="M 561.5,1042.5 C 563.68,1045.38 564.68,1048.71 564.5,1052.5C 562.899,1049.45 561.899,1046.12 561.5,1042.5 Z"/></g>
<g><path style="opacity:1" fill="#201c19" d="M 634.5,1045.5 C 655.351,1044.59 675.685,1047.25 695.5,1053.5C 696.085,1056.26 695.085,1057.93 692.5,1058.5C 684.523,1055.12 676.19,1053.29 667.5,1053C 643.653,1050.02 620.653,1053.02 598.5,1062C 591.835,1064.42 585.335,1067.25 579,1070.5C 576.681,1069.59 576.014,1067.92 577,1065.5C 595.203,1055.8 614.37,1049.14 634.5,1045.5 Z"/></g>
<g><path style="opacity:1" fill="#201c1a" d="M 749.5,1045.5 C 767.891,1044.51 785.891,1046.68 803.5,1052C 813.455,1055.91 823.455,1059.91 833.5,1064C 835.229,1065.79 835.896,1067.96 835.5,1070.5C 822.713,1065.22 809.713,1060.38 796.5,1056C 775.277,1052.17 753.944,1051.51 732.5,1054C 727.582,1055.81 722.582,1057.31 717.5,1058.5C 717.027,1055.17 718.36,1053 721.5,1052C 730.713,1048.71 740.046,1046.55 749.5,1045.5 Z"/></g>
<g><path style="opacity:1" fill="#877fab" d="M 984.5,1035.5 C 985.319,1038.31 985.819,1041.31 986,1044.5C 986.232,1043.26 986.732,1042.26 987.5,1041.5C 987.382,1044.69 986.549,1047.69 985,1050.5C 984.501,1045.51 984.334,1040.51 984.5,1035.5 Z"/></g>
<g><path style="opacity:1" fill="#cccbcb" d="M 874.5,952.5 C 874.369,953.239 874.536,953.906 875,954.5C 875.278,953.584 875.778,952.918 876.5,952.5C 876.5,953.5 876.5,954.5 876.5,955.5C 874.362,960.274 872.528,965.274 871,970.5C 870.505,972.473 870.338,974.473 870.5,976.5C 866.325,986.036 863.325,996.036 861.5,1006.5C 858.727,1013.17 856.727,1020.17 855.5,1027.5C 852.766,1032.75 851.099,1038.42 850.5,1044.5C 847.438,1051.07 845.438,1058.07 844.5,1065.5C 844.167,1065.5 843.833,1065.5 843.5,1065.5C 843.737,1064.21 843.404,1063.21 842.5,1062.5C 852.301,1025.44 862.967,988.769 874.5,952.5 Z"/></g>
<g><path style="opacity:1" fill="#cccccb" d="M 535.5,942.5 C 546.672,978.531 557.172,1014.86 567,1051.5C 568.057,1055.45 569.557,1059.12 571.5,1062.5C 571.5,1063.83 570.833,1064.5 569.5,1064.5C 568.136,1060.38 566.469,1056.38 564.5,1052.5C 564.68,1048.71 563.68,1045.38 561.5,1042.5C 561.568,1038.43 560.568,1034.76 558.5,1031.5C 555.605,1017.74 551.605,1004.41 546.5,991.5C 545.055,988.063 544.055,984.397 543.5,980.5C 542.897,974.98 541.731,969.647 540,964.5C 539.058,961.626 537.891,958.96 536.5,956.5C 536.976,952.622 535.976,949.288 533.5,946.5C 533.5,945.5 533.5,944.5 533.5,943.5C 534.967,946.258 535.633,945.925 535.5,942.5 Z"/></g>
<g><path style="opacity:1" fill="#18191b" d="M 850.5,1044.5 C 849.277,1051.82 847.277,1058.82 844.5,1065.5C 845.438,1058.07 847.438,1051.07 850.5,1044.5 Z"/></g>
<g><path style="opacity:1" fill="#9e96bc" d="M 1009.5,1057.5 C 1016.99,1056.34 1024.66,1056.18 1032.5,1057C 1038.13,1057.43 1043.46,1058.6 1048.5,1060.5C 1035.63,1058.02 1022.63,1057.02 1009.5,1057.5 Z"/></g>
<g><path style="opacity:1" fill="#6a6a69" d="M 654.5,1063.5 C 652.833,1063.5 651.167,1063.5 649.5,1063.5C 641.5,1063.5 633.5,1063.5 625.5,1063.5C 623.833,1063.5 622.167,1063.5 620.5,1063.5C 625.413,1061.99 630.579,1061.33 636,1061.5C 642.392,1061.42 648.559,1062.09 654.5,1063.5 Z"/></g>
<g><path style="opacity:1" fill="#070312" d="M 649.5,1063.5 C 651.167,1063.5 652.833,1063.5 654.5,1063.5C 657.067,1063.72 659.401,1064.39 661.5,1065.5C 657.21,1065.8 653.21,1065.14 649.5,1063.5 Z"/></g>
<g><path style="opacity:1" fill="#141417" d="M 765.5,1063.5 C 773.99,1062.34 782.657,1062.18 791.5,1063C 794.004,1063.7 796.337,1064.53 798.5,1065.5C 787.565,1063.94 776.565,1063.27 765.5,1063.5 Z"/></g>
<g><path style="opacity:1" fill="#212122" d="M 763.5,1063.5 C 754.649,1065.27 745.649,1066.93 736.5,1068.5C 737.842,1067.21 739.509,1066.37 741.5,1066C 748.77,1064.56 756.104,1063.72 763.5,1063.5 Z"/></g>
<g><path style="opacity:1" fill="#282829" d="M 662.5,1065.5 C 667.312,1064.96 671.645,1065.96 675.5,1068.5C 670.948,1067.94 666.615,1066.94 662.5,1065.5 Z"/></g>
<g><path style="opacity:1" fill="#1e1d24" d="M 675.5,1068.5 C 681.271,1069.53 686.938,1071.03 692.5,1073C 701.827,1073.5 711.161,1073.67 720.5,1073.5C 704.966,1077 689.966,1075.33 675.5,1068.5 Z"/></g>
<g><path style="opacity:1" fill="#131219" d="M 843.5,1065.5 C 843.833,1065.5 844.167,1065.5 844.5,1065.5C 844.157,1073.15 840.49,1078.15 833.5,1080.5C 823.246,1075.54 812.913,1070.87 802.5,1066.5C 804.927,1066.52 807.26,1067.02 809.5,1068C 817.404,1071.79 825.404,1075.29 833.5,1078.5C 835.593,1078.51 837.426,1077.85 839,1076.5C 841.066,1073.04 842.566,1069.37 843.5,1065.5 Z"/></g>
<g><path style="opacity:1" fill="#1c1c1d" d="M 736.5,1068.5 C 731.453,1070.77 726.12,1072.43 720.5,1073.5C 721.347,1072.03 722.68,1071.2 724.5,1071C 728.494,1070.06 732.494,1069.22 736.5,1068.5 Z"/></g>
<g><path style="opacity:1" fill="#202022" d="M 564.5,1052.5 C 566.469,1056.38 568.136,1060.38 569.5,1064.5C 569.894,1068.41 571.06,1072.07 573,1075.5C 574.594,1077.3 576.594,1078.3 579,1078.5C 588.214,1074.48 597.38,1070.31 606.5,1066C 611.16,1065.06 615.827,1064.22 620.5,1063.5C 622.167,1063.5 623.833,1063.5 625.5,1063.5C 618.157,1064.74 610.823,1066.58 603.5,1069C 595.242,1072.71 587.076,1076.55 579,1080.5C 576.113,1080.1 573.779,1078.76 572,1076.5C 568.388,1068.83 565.888,1060.83 564.5,1052.5 Z"/></g>
<g><path style="opacity:1" fill="#d8241e" d="M 696.5,1123.5 C 690.645,1124.07 684.978,1125.4 679.5,1127.5C 672.459,1113.65 661.125,1105.82 645.5,1104C 626.924,1100.41 611.424,1105.58 599,1119.5C 588.778,1135.48 590.945,1149.65 605.5,1162C 616.883,1169.1 629.216,1172.6 642.5,1172.5C 649.607,1171.62 656.274,1169.62 662.5,1166.5C 672.145,1161.53 678.478,1153.86 681.5,1143.5C 687.374,1141.43 693.374,1139.77 699.5,1138.5C 697.748,1154.5 690.415,1167.34 677.5,1177C 672.752,1180.04 667.752,1182.54 662.5,1184.5C 656.546,1185.76 650.546,1186.76 644.5,1187.5C 619.912,1190.58 599.412,1182.92 583,1164.5C 567.352,1140.1 570.852,1118.94 593.5,1101C 624.195,1082.25 654.195,1083.25 683.5,1104C 686.316,1107.78 689.483,1111.28 693,1114.5C 695.05,1117.15 696.216,1120.15 696.5,1123.5 Z"/></g>
<g><path style="opacity:1" fill="#d8251e" d="M 767.5,1187.5 C 761.311,1187.45 755.311,1186.45 749.5,1184.5C 734.711,1179.34 723.211,1170.01 715,1156.5C 713.538,1150.37 712.038,1144.37 710.5,1138.5C 716.505,1139.89 722.505,1141.39 728.5,1143C 729.066,1143.99 729.733,1144.83 730.5,1145.5C 733.679,1155.35 740.013,1162.35 749.5,1166.5C 754.863,1170.02 760.863,1172.02 767.5,1172.5C 788.635,1174.85 804.802,1167.18 816,1149.5C 821.396,1133.8 817.229,1121.3 803.5,1112C 790.131,1104.33 775.798,1101.66 760.5,1104C 746.501,1106.65 736.834,1114.48 731.5,1127.5C 725.207,1126.06 718.874,1124.73 712.5,1123.5C 716.763,1113.06 723.763,1104.9 733.5,1099C 762.994,1082.65 791.66,1083.99 819.5,1103C 834.74,1114.04 840.574,1128.88 837,1147.5C 828.233,1170.26 811.733,1183.43 787.5,1187C 780.842,1187.5 774.175,1187.67 767.5,1187.5 Z"/></g>
<g><path style="opacity:1" fill="#29166e" d="M 679.5,1127.5 C 663.366,1133.47 651.533,1144.14 644,1159.5C 642.805,1163.75 642.305,1168.08 642.5,1172.5C 629.216,1172.6 616.883,1169.1 605.5,1162C 590.945,1149.65 588.778,1135.48 599,1119.5C 611.424,1105.58 626.924,1100.41 645.5,1104C 661.125,1105.82 672.459,1113.65 679.5,1127.5 Z"/></g>
<g><path style="opacity:1" fill="#29156e" d="M 767.5,1172.5 C 764.804,1150.13 752.804,1135.13 731.5,1127.5C 736.834,1114.48 746.501,1106.65 760.5,1104C 775.798,1101.66 790.131,1104.33 803.5,1112C 817.229,1121.3 821.396,1133.8 816,1149.5C 804.802,1167.18 788.635,1174.85 767.5,1172.5 Z"/></g>
<g><path style="opacity:1" fill="#0d0d0f" d="M 295.5,1111.5 C 321.847,1132 349.18,1151.17 377.5,1169C 388.959,1175.27 400.792,1180.77 413,1185.5C 416.989,1179.53 420.989,1173.53 425,1167.5C 426.019,1166.31 427.186,1165.31 428.5,1164.5C 581.675,1252.62 741.008,1265.45 906.5,1203C 933.907,1192.3 960.24,1179.46 985.5,1164.5C 990.898,1170.95 995.564,1177.95 999.5,1185.5C 1025.66,1175.09 1049.99,1161.59 1072.5,1145C 1087.42,1133.95 1102.26,1122.79 1117,1111.5C 1115.81,1125.24 1113.81,1138.9 1111,1152.5C 1107.5,1165.99 1103.83,1179.33 1100,1192.5C 1124.29,1197.8 1148.79,1202.14 1173.5,1205.5C 1134.1,1237.4 1093.44,1267.57 1051.5,1296C 1041.5,1301.67 1031.5,1307.33 1021.5,1313C 1010.95,1317.59 999.949,1319.26 988.5,1318C 984.047,1316.27 979.714,1314.27 975.5,1312C 971.989,1309.15 968.489,1306.32 965,1303.5C 818.469,1374.99 667.969,1384.49 513.5,1332C 491.148,1323.66 469.315,1314.16 448,1303.5C 432.2,1318.79 414.033,1322.29 393.5,1314C 370.997,1301.92 349.33,1288.59 328.5,1274C 298.596,1252.1 269.262,1229.43 240.5,1206C 264.497,1201.66 288.497,1197.16 312.5,1192.5C 304.406,1166.03 298.739,1139.03 295.5,1111.5 Z"/></g>
<g><path style="opacity:1" fill="#f9f7f9" d="M 696.5,1123.5 C 701.833,1123.5 707.167,1123.5 712.5,1123.5C 718.874,1124.73 725.207,1126.06 731.5,1127.5C 752.804,1135.13 764.804,1150.13 767.5,1172.5C 760.863,1172.02 754.863,1170.02 749.5,1166.5C 746.397,1156.72 740.063,1149.72 730.5,1145.5C 729.733,1144.83 729.066,1143.99 728.5,1143C 722.505,1141.39 716.505,1139.89 710.5,1138.5C 706.833,1138.5 703.167,1138.5 699.5,1138.5C 693.374,1139.77 687.374,1141.43 681.5,1143.5C 671.854,1148.47 665.521,1156.14 662.5,1166.5C 656.274,1169.62 649.607,1171.62 642.5,1172.5C 642.305,1168.08 642.805,1163.75 644,1159.5C 651.533,1144.14 663.366,1133.47 679.5,1127.5C 684.978,1125.4 690.645,1124.07 696.5,1123.5 Z"/></g>
<g><path style="opacity:1" fill="#fcfcfc" d="M 304.5,1129.5 C 320.933,1141.56 337.599,1153.39 354.5,1165C 372.238,1175.87 390.238,1186.2 408.5,1196C 396.507,1218.83 386.841,1242.66 379.5,1267.5C 398.532,1278.35 417.532,1289.18 436.5,1300C 421.368,1310.63 405.701,1311.3 389.5,1302C 344.102,1274.63 300.769,1244.3 259.5,1211C 275.181,1208.73 290.848,1206.4 306.5,1204C 312.884,1202.04 319.217,1200.2 325.5,1198.5C 320.938,1189.51 317.105,1180.18 314,1170.5C 309.976,1157.02 306.81,1143.35 304.5,1129.5 Z"/></g>
<g><path style="opacity:1" fill="#fcfcfc" d="M 1106.5,1129.5 C 1107.65,1129.79 1108.32,1130.62 1108.5,1132C 1106.59,1139.79 1104.76,1147.63 1103,1155.5C 1098.6,1170.48 1093.6,1185.15 1088,1199.5C 1109.16,1204.99 1130.66,1208.99 1152.5,1211.5C 1109.84,1245.98 1064.84,1277.15 1017.5,1305C 1003.94,1310.45 990.943,1309.45 978.5,1302C 976.193,1300.17 976.526,1298.51 979.5,1297C 996.965,1287.1 1014.3,1276.93 1031.5,1266.5C 1031.83,1265.67 1032.17,1264.83 1032.5,1264C 1025.26,1240.27 1016.1,1217.44 1005,1195.5C 1041.17,1176.85 1075,1154.85 1106.5,1129.5 Z"/></g>
<g><path style="opacity:1" fill="#29166e" d="M 699.5,1138.5 C 703.167,1138.5 706.833,1138.5 710.5,1138.5C 712.038,1144.37 713.538,1150.37 715,1156.5C 723.211,1170.01 734.711,1179.34 749.5,1184.5C 732.17,1208.57 709.503,1214.73 681.5,1203C 673.338,1198.67 667.005,1192.5 662.5,1184.5C 667.752,1182.54 672.752,1180.04 677.5,1177C 690.415,1167.34 697.748,1154.5 699.5,1138.5 Z"/></g>
<g><path style="opacity:1" fill="#2b166e" d="M 681.5,1143.5 C 678.478,1153.86 672.145,1161.53 662.5,1166.5C 665.521,1156.14 671.854,1148.47 681.5,1143.5 Z"/></g>
<g><path style="opacity:1" fill="#2e186f" d="M 730.5,1145.5 C 740.063,1149.72 746.397,1156.72 749.5,1166.5C 740.013,1162.35 733.679,1155.35 730.5,1145.5 Z"/></g>
<g><path style="opacity:1" fill="#f9f9f9" d="M 429.5,1175.5 C 459.601,1191.7 490.601,1205.86 522.5,1218C 627.52,1254.56 734.187,1259.56 842.5,1233C 891.463,1220.1 937.963,1201.26 982,1176.5C 999.673,1202.19 1012.84,1230.19 1021.5,1260.5C 1021.47,1262.03 1020.8,1263.2 1019.5,1264C 937.559,1313.54 848.892,1343.54 753.5,1354C 648.552,1361.28 548.552,1342.61 453.5,1298C 432.085,1287.46 411.085,1276.13 390.5,1264C 389.978,1263.44 389.645,1262.77 389.5,1262C 399.487,1231.5 412.82,1202.67 429.5,1175.5 Z"/></g>
<g><path style="opacity:1" fill="#f8f8fa" d="M 662.5,1184.5 C 667.005,1192.5 673.338,1198.67 681.5,1203C 709.503,1214.73 732.17,1208.57 749.5,1184.5C 755.311,1186.45 761.311,1187.45 767.5,1187.5C 758.381,1205.45 744.048,1216.95 724.5,1222C 696.288,1228.7 672.121,1221.86 652,1201.5C 648.712,1197.26 646.212,1192.59 644.5,1187.5C 650.546,1186.76 656.546,1185.76 662.5,1184.5 Z"/></g>
<g><path style="opacity:1" fill="#0e0f10" d="M 436.5,1200.5 C 446.236,1205.04 455.903,1209.87 465.5,1215C 475.451,1224.22 477.284,1235.05 471,1247.5C 466.312,1253.42 460.478,1254.92 453.5,1252C 450.006,1250.42 446.673,1248.59 443.5,1246.5C 441.699,1251.27 440.033,1256.11 438.5,1261C 439.992,1263.32 441.659,1265.49 443.5,1267.5C 442.67,1269.83 441.837,1272.16 441,1274.5C 434.072,1270.36 426.905,1266.69 419.5,1263.5C 418.507,1260.76 418.841,1258.1 420.5,1255.5C 422.343,1255.24 424.343,1255.08 426.5,1255C 431.444,1241.46 435.444,1227.62 438.5,1213.5C 438.333,1212.5 438.167,1211.5 438,1210.5C 436.513,1209.84 435.347,1208.84 434.5,1207.5C 435.577,1205.27 436.244,1202.94 436.5,1200.5 Z"/></g>
<g><path style="opacity:1" fill="#0f1011" d="M 966.5,1203.5 C 971.036,1209.24 974.536,1215.57 977,1222.5C 975.333,1224.17 973.667,1225.83 972,1227.5C 967.792,1221.81 962.292,1218.98 955.5,1219C 948.828,1222.68 945.828,1228.34 946.5,1236C 946.108,1247.54 950.108,1257.21 958.5,1265C 971.263,1266.05 975.93,1260.22 972.5,1247.5C 969.874,1246.55 967.208,1246.55 964.5,1247.5C 963.862,1244.24 963.862,1241.07 964.5,1238C 971.5,1234.83 978.5,1231.67 985.5,1228.5C 986.552,1230.54 987.219,1232.71 987.5,1235C 985.755,1237.08 984.422,1239.42 983.5,1242C 985.563,1248.81 987.563,1255.65 989.5,1262.5C 987.863,1264.75 985.696,1266.42 983,1267.5C 981.981,1266.31 980.814,1265.31 979.5,1264.5C 967.033,1282.32 953.866,1282.98 940,1266.5C 931.049,1249.88 931.382,1233.55 941,1217.5C 946.74,1211.05 953.907,1208.05 962.5,1208.5C 962.281,1207.32 962.614,1206.32 963.5,1205.5C 964.739,1205.06 965.739,1204.39 966.5,1203.5 Z"/></g>
<g><path style="opacity:1" fill="#f2f2f2" d="M 450.5,1219.5 C 462.831,1222.65 465.498,1229.49 458.5,1240C 454.256,1241.01 450.423,1240.18 447,1237.5C 446.333,1235.17 446.333,1232.83 447,1230.5C 448.674,1226.98 449.84,1223.31 450.5,1219.5 Z"/></g>
<g><path style="opacity:1" fill="#0e0f10" d="M 912.5,1229.5 C 914.427,1232.14 914.927,1235.14 914,1238.5C 911.456,1239.21 910.289,1240.88 910.5,1243.5C 913.764,1261.32 917.43,1278.98 921.5,1296.5C 918.422,1297.2 915.422,1298.2 912.5,1299.5C 911.833,1299.17 911.167,1298.83 910.5,1298.5C 901.472,1285.97 892.639,1273.3 884,1260.5C 885.997,1272.5 888.33,1284.5 891,1296.5C 892.796,1297.77 894.629,1297.77 896.5,1296.5C 900.181,1301.53 899.181,1305.03 893.5,1307C 888.669,1309.08 883.669,1310.58 878.5,1311.5C 878.62,1309.27 878.287,1307.1 877.5,1305C 878.232,1303.23 879.565,1302.07 881.5,1301.5C 882.022,1300.39 882.355,1299.23 882.5,1298C 879.428,1284.55 876.595,1271.05 874,1257.5C 872.135,1255.33 869.969,1254.99 867.5,1256.5C 866.741,1253.84 866.074,1251.18 865.5,1248.5C 870.512,1245.54 875.846,1243.04 881.5,1241C 882.944,1240.22 884.277,1240.39 885.5,1241.5C 892.139,1251.31 898.972,1260.97 906,1270.5C 905.531,1262.4 904.198,1254.4 902,1246.5C 900.267,1244.4 898.267,1244.07 896,1245.5C 895.468,1242.74 894.634,1240.07 893.5,1237.5C 899.773,1234.42 906.106,1231.75 912.5,1229.5 Z"/></g>
<g><path style="opacity:1" fill="#0f1011" d="M 506.5,1234.5 C 510.578,1235.14 514.411,1236.47 518,1238.5C 519.599,1258.83 521.266,1279.16 523,1299.5C 525.842,1302.79 526.175,1306.46 524,1310.5C 516.53,1307.73 509.03,1305.07 501.5,1302.5C 500.888,1296.69 503.388,1293.36 509,1292.5C 509.789,1288.91 509.622,1285.41 508.5,1282C 503.379,1280.29 498.379,1278.63 493.5,1277C 491.881,1279.57 490.548,1282.24 489.5,1285C 490.257,1287.38 491.591,1289.38 493.5,1291C 492.713,1293.1 492.38,1295.27 492.5,1297.5C 486.333,1296 480.333,1294 474.5,1291.5C 473.932,1288.59 473.932,1285.59 474.5,1282.5C 476.467,1282.74 478.301,1282.41 480,1281.5C 489.364,1266.1 498.197,1250.44 506.5,1234.5 Z"/></g>
<g><path style="opacity:1" fill="#0e0f0f" d="M 549.5,1250.5 C 557.535,1252.37 565.535,1254.37 573.5,1256.5C 573.5,1259.17 573.5,1261.83 573.5,1264.5C 570.635,1264.05 568.135,1264.72 566,1266.5C 563.7,1279.6 561.867,1292.77 560.5,1306C 560.544,1307.76 560.878,1309.43 561.5,1311C 571.354,1313.07 578.021,1309.41 581.5,1300C 583.678,1299.83 585.511,1300.67 587,1302.5C 584.291,1310.12 581.458,1317.78 578.5,1325.5C 565.901,1322.18 553.234,1319.18 540.5,1316.5C 540.5,1313.5 540.5,1310.5 540.5,1307.5C 543.119,1307.77 545.619,1307.44 548,1306.5C 550.153,1292.55 551.986,1278.55 553.5,1264.5C 553.801,1260.82 552.134,1259.16 548.5,1259.5C 548.704,1256.48 549.037,1253.48 549.5,1250.5 Z"/></g>
<g><path style="opacity:1" fill="#dedede" d="M 506.5,1253.5 C 507.29,1254.61 507.79,1255.94 508,1257.5C 508.499,1262.15 508.666,1266.82 508.5,1271.5C 504.555,1271.52 501.222,1270.19 498.5,1267.5C 501.165,1262.84 503.831,1258.17 506.5,1253.5 Z"/></g>
<g><path style="opacity:1" fill="#0d0e0f" d="M 831.5,1256.5 C 832.5,1256.5 833.5,1256.5 834.5,1256.5C 841.985,1273.87 849.818,1291.21 858,1308.5C 859.356,1309.38 860.856,1309.71 862.5,1309.5C 862.274,1312.25 862.607,1314.92 863.5,1317.5C 855.652,1319.94 847.652,1321.6 839.5,1322.5C 839.5,1319.5 839.5,1316.5 839.5,1313.5C 841.635,1313.85 842.968,1313.02 843.5,1311C 842.599,1308.13 841.599,1305.3 840.5,1302.5C 839.833,1302.17 839.167,1301.83 838.5,1301.5C 833.875,1302.76 829.208,1303.76 824.5,1304.5C 823.56,1308.46 823.393,1312.46 824,1316.5C 825.667,1317.17 827.333,1317.83 829,1318.5C 829.497,1320.81 829.663,1323.14 829.5,1325.5C 823.269,1327.31 816.936,1328.64 810.5,1329.5C 810.62,1327.27 810.287,1325.1 809.5,1323C 811.08,1321.28 812.58,1319.44 814,1317.5C 816.56,1298.14 819.56,1278.81 823,1259.5C 825.949,1258.56 828.783,1257.56 831.5,1256.5 Z"/></g>
<g><path style="opacity:1" fill="#0e0e0f" d="M 605.5,1264.5 C 619.869,1266.5 634.202,1268.5 648.5,1270.5C 648.878,1276.69 649.545,1282.86 650.5,1289C 650.786,1292.53 649.119,1294.37 645.5,1294.5C 642.849,1282.86 635.516,1277.19 623.5,1277.5C 622.042,1283.41 621.376,1289.41 621.5,1295.5C 628.587,1296.75 631.921,1293.75 631.5,1286.5C 633.071,1287.31 634.738,1287.64 636.5,1287.5C 636.127,1296.52 635.46,1305.52 634.5,1314.5C 632.5,1314.5 630.5,1314.5 628.5,1314.5C 630.383,1307.21 627.716,1303.55 620.5,1303.5C 619.861,1310.15 619.527,1316.81 619.5,1323.5C 632.584,1327.54 641.417,1323.21 646,1310.5C 647.973,1311.64 649.807,1312.97 651.5,1314.5C 648.675,1322.14 646.009,1329.81 643.5,1337.5C 629.437,1335.79 615.437,1333.62 601.5,1331C 600.556,1328.28 600.223,1325.45 600.5,1322.5C 602.467,1322.74 604.301,1322.41 606,1321.5C 608.439,1305.91 609.772,1290.25 610,1274.5C 608.644,1273.62 607.144,1273.29 605.5,1273.5C 605.5,1270.5 605.5,1267.5 605.5,1264.5 Z"/></g>
<g><path style="opacity:1" fill="#0d0e0e" d="M 769.5,1268.5 C 789.156,1267.65 795.322,1276.32 788,1294.5C 786.5,1296 785,1297.5 783.5,1299C 793.469,1302.77 797.302,1309.93 795,1320.5C 793.264,1327.24 789.097,1331.74 782.5,1334C 770.871,1335.83 759.205,1337.33 747.5,1338.5C 747.5,1335.5 747.5,1332.5 747.5,1329.5C 751.338,1329.99 753.338,1328.33 753.5,1324.5C 752.925,1310.12 751.759,1295.79 750,1281.5C 748.301,1280.59 746.467,1280.26 744.5,1280.5C 744.5,1277.5 744.5,1274.5 744.5,1271.5C 752.988,1270.67 761.321,1269.67 769.5,1268.5 Z"/></g>
<g><path style="opacity:1" fill="#0d0e0e" d="M 728.5,1332.5 C 728.5,1335.17 728.5,1337.83 728.5,1340.5C 720.833,1340.5 713.167,1340.5 705.5,1340.5C 705.5,1337.83 705.5,1335.17 705.5,1332.5C 707.722,1332.82 709.556,1332.16 711,1330.5C 711.667,1315.83 711.667,1301.17 711,1286.5C 706.201,1304.66 702.368,1322.99 699.5,1341.5C 696.833,1341.5 694.167,1341.5 691.5,1341.5C 688.979,1325.34 685.646,1309.34 681.5,1293.5C 681.769,1291.57 681.269,1289.9 680,1288.5C 679.173,1302.67 679.339,1316.67 680.5,1330.5C 681.635,1332.21 683.302,1332.88 685.5,1332.5C 685.5,1335.5 685.5,1338.5 685.5,1341.5C 678.833,1341.5 672.167,1341.5 665.5,1341.5C 665.5,1338.5 665.5,1335.5 665.5,1332.5C 667.722,1332.82 669.556,1332.16 671,1330.5C 671.667,1315.17 671.667,1299.83 671,1284.5C 669.301,1283.59 667.467,1283.26 665.5,1283.5C 665.5,1280.5 665.5,1277.5 665.5,1274.5C 673.167,1274.5 680.833,1274.5 688.5,1274.5C 691.019,1287.56 693.853,1300.56 697,1313.5C 700.526,1300.65 703.36,1287.65 705.5,1274.5C 713.5,1274.5 721.5,1274.5 729.5,1274.5C 729.5,1277.5 729.5,1280.5 729.5,1283.5C 727.533,1283.26 725.699,1283.59 724,1284.5C 723.167,1300.18 723.334,1315.84 724.5,1331.5C 725.736,1332.25 727.07,1332.58 728.5,1332.5 Z"/></g>
<g><path style="opacity:1" fill="#e2e2e2" d="M 828.5,1276.5 C 831.385,1281.11 833.718,1286.11 835.5,1291.5C 835.182,1292.65 834.516,1293.48 833.5,1294C 830.832,1294.57 828.166,1295.07 825.5,1295.5C 826.392,1289.15 827.392,1282.81 828.5,1276.5 Z"/></g>
<g><path style="opacity:1" fill="#efefef" d="M 762.5,1279.5 C 767.179,1279.33 771.845,1279.5 776.5,1280C 780.5,1284.67 780.5,1289.33 776.5,1294C 772.414,1296.05 768.08,1296.89 763.5,1296.5C 762.78,1290.86 762.447,1285.2 762.5,1279.5 Z"/></g>
<g><path style="opacity:1" fill="#a7a7a8" d="M 681.5,1293.5 C 680.505,1305.66 680.171,1317.99 680.5,1330.5C 679.339,1316.67 679.173,1302.67 680,1288.5C 681.269,1289.9 681.769,1291.57 681.5,1293.5 Z"/></g>
<g><path style="opacity:1" fill="#f3f3f3" d="M 766.5,1305.5 C 781.485,1303.66 785.818,1309.5 779.5,1323C 775.078,1325.1 770.412,1325.94 765.5,1325.5C 765.712,1319.96 765.378,1314.46 764.5,1309C 764.862,1307.57 765.528,1306.4 766.5,1305.5 Z"/></g>
<g><path style="opacity:1" fill="#484849" d="M 728.5,1332.5 C 729.477,1335.29 729.81,1338.29 729.5,1341.5C 721.316,1341.83 713.316,1341.49 705.5,1340.5C 713.167,1340.5 720.833,1340.5 728.5,1340.5C 728.5,1337.83 728.5,1335.17 728.5,1332.5 Z"/></g>
</svg>
