<?xml version="1.0" encoding="UTF-8"?>
<!DOCTYPE svg PUBLIC "-//W3C//DTD SVG 1.1//EN" "http://www.w3.org/Graphics/SVG/1.1/DTD/svg11.dtd">
<svg xmlns="http://www.w3.org/2000/svg" version="1.1" width="891px" height="997px" style="shape-rendering:geometricPrecision; text-rendering:geometricPrecision; image-rendering:optimizeQuality; fill-rule:evenodd; clip-rule:evenodd" xmlns:xlink="http://www.w3.org/1999/xlink">
<g><path style="opacity:0.981" fill="#201b16" d="M 439.5,-0.5 C 442.5,-0.5 445.5,-0.5 448.5,-0.5C 486.302,13.7247 523.969,28.5581 561.5,44C 586.981,55.2286 610.647,69.2286 632.5,86C 640.784,93.2777 647.951,101.444 654,110.5C 667.377,137.092 664.877,162.092 646.5,185.5C 647.621,188.047 649.288,189.047 651.5,188.5C 676.788,147.954 709.122,141.121 748.5,168C 803.129,212.448 850.463,263.281 890.5,320.5C 890.5,336.5 890.5,352.5 890.5,368.5C 888.347,407.024 883.514,445.357 876,483.5C 871.248,505.423 863.915,526.423 854,546.5C 838.723,570.938 816.889,579.771 788.5,573C 784.238,572.06 780.072,570.894 776,569.5C 774.885,571 774.052,572.667 773.5,574.5C 782.193,578.344 790.859,582.511 799.5,587C 821.294,601.103 829.461,620.936 824,646.5C 803.646,720.392 768.813,786.225 719.5,844C 665.944,862.806 610.944,875.139 554.5,881C 539.833,881.667 525.167,881.667 510.5,881C 493.009,880.842 477.842,875.009 465,863.5C 453.958,848.009 449.124,830.676 450.5,811.5C 448.833,811.5 447.167,811.5 445.5,811.5C 445.475,856.03 423.142,879.863 378.5,883C 349.474,884.294 320.808,881.627 292.5,875C 250.442,865.486 209.109,853.486 168.5,839C 120.864,780.234 87.0305,714.067 67,640.5C 63.2111,617.252 71.3778,599.752 91.5,588C 100.137,583.677 109.137,580.343 118.5,578C 117.331,575.993 116.665,573.827 116.5,571.5C 101.071,576.054 85.404,577.221 69.5,575C 54.7894,571.739 43.2894,563.906 35,551.5C 23.6118,529.002 15.6118,505.336 11,480.5C 5.17977,450.602 1.34644,420.602 -0.5,390.5C -0.5,376.833 -0.5,363.167 -0.5,349.5C 0.376122,342.322 1.20946,334.989 2,327.5C 2.25652,323.623 3.25652,319.957 5,316.5C 27.6133,286.951 50.9466,257.951 75,229.5C 89.9007,212.598 106.067,197.098 123.5,183C 137.524,171.485 153.19,162.819 170.5,157C 189.016,151.37 205.683,154.703 220.5,167C 227.698,173.864 234.532,181.03 241,188.5C 242.771,187.696 244.271,186.529 245.5,185C 233.61,171.55 226.61,155.883 224.5,138C 226.293,121.08 233.626,107.08 246.5,96C 267.622,78.2625 290.622,63.2625 315.5,51C 356.121,31.8481 397.454,14.6814 439.5,-0.5 Z"/></g>
<g><path style="opacity:1" fill="#fef400" d="M 441.5,10.5 C 481.032,23.8454 520.032,38.6787 558.5,55C 581.645,65.3962 603.311,78.0628 623.5,93C 657.916,121.522 660.583,152.688 631.5,186.5C 638.323,193.156 645.323,199.656 652.5,206C 654.113,206.089 655.28,205.255 656,203.5C 663.384,186.116 675.551,173.283 692.5,165C 701.057,162.103 709.724,161.77 718.5,164C 726.442,166.969 733.775,170.969 740.5,176C 794.059,219.548 840.559,269.381 880,325.5C 880.217,381.116 874.55,436.116 863,490.5C 858.938,504.353 854.271,518.019 849,531.5C 839.034,556.902 820.534,567.402 793.5,563C 785.699,561.3 778.033,559.133 770.5,556.5C 769.833,556.833 769.167,557.167 768.5,557.5C 764.592,565.977 761.258,574.643 758.5,583.5C 777.364,586.681 793.53,595.015 807,608.5C 813.747,618.16 816.081,628.827 814,640.5C 794.511,712.656 761.011,777.156 713.5,834C 660.734,852.962 606.401,864.962 550.5,870C 536.5,870.667 522.5,870.667 508.5,870C 479.44,868.606 463.94,853.439 462,824.5C 461.302,816.472 461.468,808.472 462.5,800.5C 452.833,800.5 443.167,800.5 433.5,800.5C 439.99,844.166 421.323,867.999 377.5,872C 350.506,873.501 323.839,871.167 297.5,865C 256.113,855.82 215.446,844.153 175.5,830C 131.432,774.708 99.2652,712.875 79,644.5C 73.028,620.277 81.528,603.443 104.5,594C 113.508,590.248 122.841,587.748 132.5,586.5C 130.065,576.697 126.732,567.197 122.5,558C 112.363,560.782 102.03,563.115 91.5,565C 65.3285,567.833 47.4952,557 38,532.5C 24.4387,495.698 16.1054,457.698 13,418.5C 10.8709,393.874 10.2042,369.207 11,344.5C 11.4284,337.404 12.4284,330.404 14,323.5C 38.8192,290.006 65.1525,257.673 93,226.5C 111.796,206.69 132.629,189.523 155.5,175C 167.228,167.901 179.894,164.901 193.5,166C 200.49,167.662 206.824,170.662 212.5,175C 222.234,184.065 231.234,193.731 239.5,204C 240.167,204.667 240.833,204.667 241.5,204C 247.642,197.769 253.975,191.769 260.5,186C 251.719,176.282 244.552,165.449 239,153.5C 234.389,143.473 234.389,133.473 239,123.5C 243.995,115.691 249.829,108.525 256.5,102C 279.152,83.6612 303.819,68.3279 330.5,56C 366.916,39.1462 403.916,23.9796 441.5,10.5 Z"/></g>
<g><path style="opacity:1" fill="#dfa334" d="M 462.5,236.5 C 450.167,236.5 437.833,236.5 425.5,236.5C 422.599,221.629 421.432,206.629 422,191.5C 423.773,185.287 426.106,179.287 429,173.5C 430.972,162.272 427.472,153.106 418.5,146C 445.459,145.427 460.959,158.594 465,185.5C 465.991,202.597 465.158,219.597 462.5,236.5 Z"/></g>
<g><path style="opacity:1" fill="#dfa334" d="M 508.5,244.5 C 496.622,241.53 484.622,239.197 472.5,237.5C 472.155,224.752 472.988,212.085 475,199.5C 476.136,195.757 477.47,192.09 479,188.5C 482.333,183.167 485.667,177.833 489,172.5C 491.232,163.342 489.399,155.009 483.5,147.5C 502.336,148.879 514.169,158.879 519,177.5C 520.372,185.125 520.706,192.792 520,200.5C 517.102,215.426 513.269,230.093 508.5,244.5 Z"/></g>
<g><path style="opacity:1" fill="#dfa334" d="M 418.5,237.5 C 405.366,238.861 392.366,241.527 379.5,245.5C 375.761,235.444 372.927,225.111 371,214.5C 370.4,201.029 371.067,187.695 373,174.5C 369.934,168.1 365.434,162.933 359.5,159C 375.643,155.33 389.477,159.496 401,171.5C 405.721,178.276 409.388,185.609 412,193.5C 415.027,208.334 417.193,223.001 418.5,237.5 Z"/></g>
<g><path style="opacity:1" fill="#dfa334" d="M 550.5,260.5 C 538.879,255.516 527.212,250.849 515.5,246.5C 519.157,232.715 524.323,219.382 531,206.5C 537.088,200.749 542.755,194.749 548,188.5C 549.147,185.245 549.98,181.912 550.5,178.5C 549.457,173.463 548.624,168.463 548,163.5C 570.263,174.028 578.596,191.362 573,215.5C 568.643,232.214 561.143,247.214 550.5,260.5 Z"/></g>
<g><path style="opacity:1" fill="#dfa334" d="M 368.5,249.5 C 356.662,253.421 345.328,258.421 334.5,264.5C 330.089,256.68 325.922,248.68 322,240.5C 320.667,236.5 319.333,232.5 318,228.5C 317.024,216.819 316.024,205.152 315,193.5C 310.398,187.898 304.898,183.398 298.5,180C 323.286,171.149 341.786,178.315 354,201.5C 361.355,216.732 366.188,232.732 368.5,249.5 Z"/></g>
<g><path style="opacity:1" fill="#dfa334" d="M 589.5,286.5 C 579.491,278.166 568.825,270.833 557.5,264.5C 563.143,254.559 569.31,244.892 576,235.5C 581.723,229.112 588.557,224.279 596.5,221C 602.004,218.16 605.171,213.66 606,207.5C 606.995,202.547 607.662,197.547 608,192.5C 626.385,206.032 631.051,223.366 622,244.5C 617.513,253.977 611.847,262.644 605,270.5C 599.63,275.702 594.464,281.035 589.5,286.5 Z"/></g>
<g><path style="opacity:1" fill="#dfa334" d="M 328.5,267.5 C 318.188,273.995 308.188,280.995 298.5,288.5C 288.723,278.886 280.223,268.219 273,256.5C 270.503,249.359 268.837,242.026 268,234.5C 266.881,229.761 264.381,225.928 260.5,223C 255.36,220.094 250.027,217.76 244.5,216C 264.56,203.362 283.227,205.029 300.5,221C 312.734,234.615 322.068,250.115 328.5,267.5 Z"/></g>
<g><path style="opacity:1" fill="#dfa334" d="M 621.5,316.5 C 613.167,307.5 604.5,298.833 595.5,290.5C 603.084,280.021 612.084,270.855 622.5,263C 631.769,258.859 641.102,255.026 650.5,251.5C 655.692,245.107 658.858,237.774 660,229.5C 675.561,249.423 675.228,269.09 659,288.5C 648.016,300 635.516,309.333 621.5,316.5 Z"/></g>
<g><path style="opacity:1" fill="#faf9f7" d="M 425.5,236.5 C 437.833,236.5 450.167,236.5 462.5,236.5C 465.625,237.479 468.958,237.813 472.5,237.5C 484.622,239.197 496.622,241.53 508.5,244.5C 510.599,245.612 512.933,246.279 515.5,246.5C 527.212,250.849 538.879,255.516 550.5,260.5C 552.336,262.588 554.669,263.921 557.5,264.5C 568.825,270.833 579.491,278.166 589.5,286.5C 591.246,288.252 593.246,289.585 595.5,290.5C 604.5,298.833 613.167,307.5 621.5,316.5C 623.458,319.792 625.791,322.792 628.5,325.5C 636.249,335.992 643.249,346.992 649.5,358.5C 650.561,361.622 651.895,364.622 653.5,367.5C 659.255,379.02 663.921,391.02 667.5,403.5C 668.167,406.5 668.833,409.5 669.5,412.5C 672.483,424.635 674.483,436.969 675.5,449.5C 675.5,452.5 675.5,455.5 675.5,458.5C 675.791,471.561 675.124,484.561 673.5,497.5C 672.539,499.265 672.205,501.265 672.5,503.5C 670.099,517.057 666.432,530.39 661.5,543.5C 661.167,544.833 660.833,546.167 660.5,547.5C 655.587,559.992 649.587,571.992 642.5,583.5C 640.075,586.589 638.075,589.922 636.5,593.5C 628.91,603.764 620.91,613.764 612.5,623.5C 610.167,625.167 608.167,627.167 606.5,629.5C 596.764,637.91 586.764,645.91 576.5,653.5C 573.953,654.934 571.619,656.6 569.5,658.5C 558.206,665.313 546.539,671.313 534.5,676.5C 531.982,677.264 529.649,678.264 527.5,679.5C 514.199,683.822 500.866,687.488 487.5,690.5C 485.585,690.216 483.919,690.549 482.5,691.5C 465.215,693.175 447.881,693.842 430.5,693.5C 421.096,693.155 411.762,692.155 402.5,690.5C 398.713,689.082 394.713,688.082 390.5,687.5C 378.403,684.69 366.737,680.69 355.5,675.5C 352.833,674.5 350.167,673.5 347.5,672.5C 336.549,667.024 325.883,661.024 315.5,654.5C 313.14,652.147 310.473,650.147 307.5,648.5C 297.88,641.214 288.88,633.214 280.5,624.5C 278.833,622.167 276.833,620.167 274.5,618.5C 266.337,608.822 258.671,598.822 251.5,588.5C 250.66,586.147 249.326,584.147 247.5,582.5C 241.267,570.703 235.6,558.703 230.5,546.5C 230.204,544.597 229.537,542.93 228.5,541.5C 224.302,528.6 220.969,515.6 218.5,502.5C 218.632,499.43 218.299,496.43 217.5,493.5C 215.966,480.552 215.299,467.552 215.5,454.5C 215.5,453.167 215.5,451.833 215.5,450.5C 216.802,438.578 218.469,426.578 220.5,414.5C 222.279,410.406 223.612,406.073 224.5,401.5C 227.726,389.72 232.059,378.387 237.5,367.5C 239.105,364.622 240.439,361.622 241.5,358.5C 247.32,348.198 253.653,338.198 260.5,328.5C 262.984,326.2 264.984,323.533 266.5,320.5C 274.806,311.86 283.139,303.193 291.5,294.5C 294.432,293.2 296.766,291.2 298.5,288.5C 308.188,280.995 318.188,273.995 328.5,267.5C 330.784,267.025 332.784,266.025 334.5,264.5C 345.328,258.421 356.662,253.421 368.5,249.5C 372.167,248.167 375.833,246.833 379.5,245.5C 392.366,241.527 405.366,238.861 418.5,237.5C 421.059,237.802 423.393,237.468 425.5,236.5 Z"/></g>
<g><path style="opacity:1" fill="#211c19" d="M 422.5,244.5 C 501.823,239.422 567.323,266.755 619,326.5C 671.07,395.565 681.403,470.565 650,551.5C 613.695,629.262 552.862,673.762 467.5,685C 373.206,690.442 301.373,653.275 252,573.5C 214.002,501.135 214.002,428.801 252,356.5C 291.014,292.231 347.847,254.897 422.5,244.5 Z"/></g>
<g><path style="opacity:1" fill="#dfa334" d="M 291.5,294.5 C 283.139,303.193 274.806,311.86 266.5,320.5C 254.743,313.927 244.243,305.594 235,295.5C 230.279,288.724 226.612,281.391 224,273.5C 217.087,265.56 208.254,262.06 197.5,263C 214.027,245.453 232.693,242.786 253.5,255C 268.698,265.698 281.365,278.865 291.5,294.5 Z"/></g>
<g><path style="opacity:1" fill="#f9f8f8" d="M 436.5,255.5 C 448.699,254.818 460.699,255.985 472.5,259C 478.542,262.748 480.042,267.915 477,274.5C 474.555,277.64 471.388,279.64 467.5,280.5C 472.975,285.43 476.975,291.43 479.5,298.5C 474.167,299.833 468.833,299.833 463.5,298.5C 460.921,293.008 458.088,287.675 455,282.5C 453.416,281.139 451.582,280.472 449.5,280.5C 448.646,286.121 448.313,291.788 448.5,297.5C 443.463,297.587 438.463,297.254 433.5,296.5C 434.334,282.82 435.334,269.153 436.5,255.5 Z"/></g>
<g><path style="opacity:1" fill="#f7f6f6" d="M 411.5,257.5 C 413.467,257.261 415.301,257.594 417,258.5C 417.567,261.168 418.067,263.834 418.5,266.5C 410.46,267.625 402.46,268.958 394.5,270.5C 394.993,272.806 395.326,275.139 395.5,277.5C 403.145,275.726 410.812,274.059 418.5,272.5C 418.963,275.482 419.296,278.482 419.5,281.5C 412.02,282.524 404.687,284.191 397.5,286.5C 398.374,288.747 398.708,291.08 398.5,293.5C 407.165,291.834 415.832,290.167 424.5,288.5C 425.051,291.807 425.384,295.14 425.5,298.5C 412.748,300.737 400.081,303.403 387.5,306.5C 383.642,292.688 380.642,278.688 378.5,264.5C 389.769,262.905 400.769,260.571 411.5,257.5 Z"/></g>
<g><path style="opacity:1" fill="#231e1b" d="M 450.5,264.5 C 454.56,264.485 458.56,264.985 462.5,266C 463.833,268 463.833,270 462.5,272C 458.514,272.499 454.514,272.666 450.5,272.5C 450.5,269.833 450.5,267.167 450.5,264.5 Z"/></g>
<g><path style="opacity:1" fill="#f8f8f7" d="M 501.5,265.5 C 508.867,265.178 515.867,266.678 522.5,270C 529.254,273.01 532.254,278.177 531.5,285.5C 527.405,285.192 523.405,284.359 519.5,283C 518.219,276.362 514.385,273.862 508,275.5C 507.289,277.367 507.789,278.867 509.5,280C 514.94,283.109 520.107,286.609 525,290.5C 529.932,296.757 529.432,302.591 523.5,308C 512.536,312.001 502.203,310.667 492.5,304C 487.576,299.983 485.576,294.816 486.5,288.5C 490.866,289.341 495.199,290.341 499.5,291.5C 500.328,299.67 504.661,302.67 512.5,300.5C 513.614,299.277 513.781,297.944 513,296.5C 508.101,292.301 502.934,288.468 497.5,285C 491.211,276.824 492.545,270.324 501.5,265.5 Z"/></g>
<g><path style="opacity:1" fill="#f7f7f7" d="M 360.5,272.5 C 362.117,273.589 362.95,275.256 363,277.5C 364.318,291.16 365.484,304.826 366.5,318.5C 362.444,320.025 358.444,321.859 354.5,324C 353.167,324.667 351.833,324.667 350.5,324C 339.329,314.992 328.329,305.825 317.5,296.5C 321.602,294.033 325.768,291.7 330,289.5C 337.672,296.506 345.338,303.506 353,310.5C 352.454,300.965 351.287,291.465 349.5,282C 349.833,280.833 350.167,279.667 350.5,278.5C 354.229,276.977 357.562,274.977 360.5,272.5 Z"/></g>
<g><path style="opacity:1" fill="#dfa334" d="M 649.5,358.5 C 643.249,346.992 636.249,335.992 628.5,325.5C 635.936,320.578 643.269,315.411 650.5,310C 653.167,308.667 655.833,307.333 658.5,306C 668.57,303.883 678.57,301.55 688.5,299C 691,297.833 692.833,296 694,293.5C 696.876,289.081 699.21,284.414 701,279.5C 713.147,302.115 709.314,321.615 689.5,338C 685.167,341 680.833,344 676.5,347C 667.74,351.379 658.74,355.213 649.5,358.5 Z"/></g>
<g><path style="opacity:1" fill="#f9f9f9" d="M 550.5,284.5 C 555.315,286.406 559.649,289.073 563.5,292.5C 556.403,304.371 549.069,316.038 541.5,327.5C 537.367,325.198 533.367,322.698 529.5,320C 536.754,308.263 543.754,296.429 550.5,284.5 Z"/></g>
<g><path style="opacity:1" fill="#dfa334" d="M 260.5,328.5 C 253.653,338.198 247.32,348.198 241.5,358.5C 227.733,353.95 214.733,347.783 202.5,340C 196.904,334.407 192.07,328.24 188,321.5C 180.463,316.034 172.129,314.367 163,316.5C 162.167,316.167 161.333,315.833 160.5,315.5C 172.964,294.954 190.63,288.788 213.5,297C 231.224,304.522 246.891,315.022 260.5,328.5 Z"/></g>
<g><path style="opacity:1" fill="#f9f9f9" d="M 575.5,301.5 C 587.562,310.554 598.895,320.554 609.5,331.5C 607.5,334.167 605.167,336.5 602.5,338.5C 599.349,335.85 596.349,333.016 593.5,330C 592.5,329.333 591.5,329.333 590.5,330C 583.989,337.343 577.322,344.51 570.5,351.5C 566.345,349.178 563.012,346.012 560.5,342C 566.78,334.049 573.447,326.383 580.5,319C 577.133,315.297 573.466,311.964 569.5,309C 572.118,306.894 574.118,304.394 575.5,301.5 Z"/></g>
<g><path style="opacity:1" fill="#f6f6f7" d="M 431.5,306.5 C 497.126,303.892 547.626,329.892 583,384.5C 611.58,437.795 611.58,491.128 583,544.5C 547.076,599.88 495.909,625.713 429.5,622C 366.824,612.973 322.991,579.473 298,521.5C 275.662,455.695 288.829,398.195 337.5,349C 364.278,324.778 395.611,310.611 431.5,306.5 Z"/></g>
<g><path style="opacity:1" fill="#fafafa" d="M 303.5,310.5 C 313.557,320.055 323.557,329.889 333.5,340C 330,343.5 326.5,347 323,350.5C 312.952,340.954 303.452,330.954 294.5,320.5C 297.522,317.147 300.522,313.813 303.5,310.5 Z"/></g>
<g><path style="opacity:1" fill="#677bb3" d="M 428.5,313.5 C 486.346,309.852 533.179,330.518 569,375.5C 600.7,421.744 606.367,471.077 586,523.5C 557.777,582.688 510.777,613.355 445,615.5C 390.853,613.932 348.52,590.932 318,546.5C 291.18,501.432 287.18,454.432 306,405.5C 330.699,353.296 371.532,322.629 428.5,313.5 Z"/></g>
<g><path style="opacity:1" fill="#fcfcfd" d="M 442.5,314.5 C 443.117,314.611 443.617,314.944 444,315.5C 446.815,332.54 449.815,349.54 453,366.5C 454.681,359.441 456.515,352.441 458.5,345.5C 460.168,352.857 461.835,360.19 463.5,367.5C 466,360.167 468.5,352.833 471,345.5C 471.333,353.5 471.667,361.5 472,369.5C 475.394,361.712 479.061,354.045 483,346.5C 482.108,355.518 481.108,364.518 480,373.5C 485.417,364.331 491.083,355.331 497,346.5C 494.198,356.571 491.198,366.571 488,376.5C 495,368.167 502,359.833 509,351.5C 504.138,362.418 499.472,373.418 495,384.5C 505.667,371.833 516.333,359.167 527,346.5C 519.509,361.812 511.676,377.145 503.5,392.5C 503.667,392.833 503.833,393.167 504,393.5C 509.517,389.406 514.85,385.073 520,380.5C 516.742,387.354 513.742,394.354 511,401.5C 517.615,397.219 523.948,392.553 530,387.5C 530.667,388.167 530.667,388.833 530,389.5C 524.624,394.989 520.29,400.989 517,407.5C 524.779,403.192 532.612,399.359 540.5,396C 534.358,402.231 528.025,408.231 521.5,414C 522,414.167 522.5,414.333 523,414.5C 532.064,410.702 541.231,407.535 550.5,405C 542.167,410.667 533.833,416.333 525.5,422C 536.474,419.872 547.474,417.872 558.5,416C 551.167,419.667 543.833,423.333 536.5,427C 537.167,427.167 537.833,427.333 538.5,427.5C 553.398,423.523 568.398,420.356 583.5,418C 566.833,425.667 550.167,433.333 533.5,441C 541.164,440.945 548.831,440.945 556.5,441C 548.955,444.939 541.288,448.606 533.5,452C 542.167,452.333 550.833,452.667 559.5,453C 551.489,455.336 543.489,457.669 535.5,460C 544.833,461.667 554.167,463.333 563.5,465C 554.414,466.007 545.414,467.34 536.5,469C 546.167,472 555.833,475 565.5,478C 555.503,477.917 545.503,477.917 535.5,478C 545.531,482.683 555.531,487.35 565.5,492C 557.117,490.945 548.784,489.612 540.5,488C 555.651,494.743 570.651,501.743 585.5,509C 568.468,505.794 551.468,502.46 534.5,499C 539.833,503 545.167,507 550.5,511C 543.144,510.128 535.81,509.128 528.5,508C 534.5,513 540.5,518 546.5,523C 538.5,520 530.5,517 522.5,514C 528.551,520.596 534.718,527.096 541,533.5C 541.667,534.167 541.667,534.833 541,535.5C 533.306,529.838 525.473,525.171 517.5,521.5C 524.26,530.154 530.26,538.82 535.5,547.5C 527.685,540.852 520.018,534.019 512.5,527C 511.833,526.333 511.167,526.333 510.5,527C 516.059,536.287 520.893,545.787 525,555.5C 518.667,548.5 512.333,541.5 506,534.5C 513.48,551.124 521.813,567.458 531,583.5C 531.667,584.5 531.667,585.5 531,586.5C 520.044,572.542 508.71,558.875 497,545.5C 499.07,552.381 500.736,559.381 502,566.5C 497,560.5 492,554.5 487,548.5C 488.112,556.451 489.945,564.284 492.5,572C 492.167,572.167 491.833,572.333 491.5,572.5C 487.08,565.329 482.914,557.996 479,550.5C 479.605,560.162 480.272,569.829 481,579.5C 477.33,570.489 473.664,561.489 470,552.5C 469.667,563.833 469.333,575.167 469,586.5C 466.416,575.58 464.082,564.58 462,553.5C 459.619,565.121 457.452,576.788 455.5,588.5C 454.562,576.475 453.396,564.475 452,552.5C 450.389,571.826 448.889,591.159 447.5,610.5C 444.603,592.515 441.77,574.515 439,556.5C 437.153,563.556 435.153,570.556 433,577.5C 431.607,570.138 430.107,562.805 428.5,555.5C 425.908,562.776 423.408,570.109 421,577.5C 420.667,569.833 420.333,562.167 420,554.5C 416.016,562.469 412.016,570.469 408,578.5C 408.962,569.096 410.296,559.763 412,550.5C 406.248,559.672 400.248,568.672 394,577.5C 397.531,567.239 400.865,556.906 404,546.5C 396.646,555.65 389.146,563.983 381.5,571.5C 387.014,560.811 392.18,550.144 397,539.5C 385.376,554.126 373.376,568.459 361,582.5C 367.98,566.875 375.813,551.542 384.5,536.5C 384.333,536.167 384.167,535.833 384,535.5C 378.85,540.073 373.517,544.406 368,548.5C 370.742,541.354 373.742,534.354 377,527.5C 370.922,532.122 364.755,536.622 358.5,541C 357.833,541.667 357.167,541.667 356.5,541C 361.833,534.667 367.167,528.333 372.5,522C 372.167,521.833 371.833,521.667 371.5,521.5C 363.3,526.267 354.967,530.433 346.5,534C 353.025,528.231 359.358,522.231 365.5,516C 365,515.833 364.5,515.667 364,515.5C 354.652,519.44 345.152,522.606 335.5,525C 344.833,519 354.167,513 363.5,507C 352.078,509.023 340.744,511.357 329.5,514C 338.374,509.063 347.374,504.396 356.5,500C 356,499.833 355.5,499.667 355,499.5C 339.556,503.571 324.056,507.071 308.5,510C 324.044,502.061 339.711,494.395 355.5,487C 348.167,487 340.833,487 333.5,487C 340.833,483.333 348.167,479.667 355.5,476C 346.833,475.667 338.167,475.333 329.5,475C 337.559,472.869 345.559,470.536 353.5,468C 344.378,466.51 335.378,464.843 326.5,463C 335.51,461.74 344.51,460.406 353.5,459C 343.121,456.155 332.788,453.155 322.5,450C 333.158,450.266 343.824,450.266 354.5,450C 344.5,445.667 334.5,441.333 324.5,437C 335.169,438.334 345.836,439.667 356.5,441C 340.5,434.333 324.5,427.667 308.5,421C 325.833,423.667 343.167,426.333 360.5,429C 354.5,425 348.5,421 342.5,417C 350.459,418.215 358.459,419.215 366.5,420C 359.55,415.385 352.884,410.385 346.5,405C 346.833,404.833 347.167,404.667 347.5,404.5C 355.097,407.862 362.764,410.695 370.5,413C 363.628,406.656 357.628,400.156 352.5,393.5C 360.245,397.454 367.745,401.788 375,406.5C 369.932,398.057 363.932,390.057 357,382.5C 356.333,381.833 356.333,381.167 357,380.5C 364.5,386.667 372,392.833 379.5,399C 380.332,399.688 380.998,399.521 381.5,398.5C 375.488,389.093 370.154,379.759 365.5,370.5C 373.183,377.35 380.35,384.683 387,392.5C 378.1,377.586 368.266,363.086 357.5,349C 371.464,360.279 384.964,372.446 398,385.5C 395.137,378.578 392.47,371.578 390,364.5C 395.468,368.967 400.635,373.8 405.5,379C 406.167,379.667 406.833,379.667 407.5,379C 404.237,371.359 401.571,363.859 399.5,356.5C 404.142,362.976 408.975,369.309 414,375.5C 412.667,366.833 411.333,358.167 410,349.5C 414,356.833 418,364.167 422,371.5C 421.847,361.487 421.514,351.487 421,341.5C 424.531,351.092 427.864,360.759 431,370.5C 431.734,359.491 432.567,348.491 433.5,337.5C 436.238,347.354 438.405,357.354 440,367.5C 441.113,349.844 441.946,332.177 442.5,314.5 Z"/></g>
<g><path style="opacity:1" fill="#fafafa" d="M 279.5,334.5 C 291.66,341.413 303.327,349.08 314.5,357.5C 312.539,361.258 310.205,364.758 307.5,368C 297.88,369.385 288.214,370.385 278.5,371C 285.007,375.086 291.34,379.42 297.5,384C 295.358,387.795 292.858,391.295 290,394.5C 277.807,387.796 266.307,380.129 255.5,371.5C 257.957,368.086 260.291,364.586 262.5,361C 271.833,360 281.167,359 290.5,358C 284.362,354.028 278.362,349.862 272.5,345.5C 275.094,341.974 277.427,338.308 279.5,334.5 Z"/></g>
<g><path style="opacity:1" fill="#dfa334" d="M 667.5,403.5 C 663.921,391.02 659.255,379.02 653.5,367.5C 663.814,362.001 674.48,357.168 685.5,353C 696.857,352.051 708.191,351.051 719.5,350C 726.16,345.674 730.993,339.841 734,332.5C 742.55,355.512 736.717,373.679 716.5,387C 701.184,395.415 684.851,400.915 667.5,403.5 Z"/></g>
<g><path style="opacity:1" fill="#dfa334" d="M 237.5,367.5 C 232.059,378.387 227.726,389.72 224.5,401.5C 207.355,400.381 191.355,395.548 176.5,387C 170.567,378.956 162.733,374.123 153,372.5C 147.334,373.167 142.001,374.834 137,377.5C 144.229,353.671 160.396,343.504 185.5,347C 190.234,347.683 194.9,348.683 199.5,350C 212.582,355.043 225.249,360.876 237.5,367.5 Z"/></g>
<g><path style="opacity:1" fill="#f9f9f9" d="M 619.5,355.5 C 621.604,355.201 623.604,355.534 625.5,356.5C 628.05,360.549 630.383,364.716 632.5,369C 624.059,381.273 615.059,393.106 605.5,404.5C 601.915,400.339 599.748,395.672 599,390.5C 600.353,389.315 601.52,387.981 602.5,386.5C 599.959,381.918 597.293,377.418 594.5,373C 591.801,373.438 589.135,373.272 586.5,372.5C 584.292,368.583 581.959,364.75 579.5,361C 592.935,358.833 606.269,356.999 619.5,355.5 Z"/></g>
<g><path style="opacity:1" fill="#2d2825" d="M 615.5,367.5 C 616.873,367.343 618.207,367.51 619.5,368C 615.631,371.534 612.131,375.367 609,379.5C 607.247,376.995 605.747,374.329 604.5,371.5C 608.142,369.915 611.808,368.581 615.5,367.5 Z"/></g>
<g><path style="opacity:1" fill="#f7f7f7" d="M 245.5,396.5 C 256.175,397.671 266.508,400.171 276.5,404C 283.085,409.357 285.251,416.191 283,424.5C 281.884,431.538 279.051,437.705 274.5,443C 269.894,446.033 264.894,447.033 259.5,446C 251.48,444.161 243.48,442.328 235.5,440.5C 236.341,436.134 237.341,431.801 238.5,427.5C 239.5,427.167 240.5,426.833 241.5,426.5C 249.249,428.542 257.083,430.208 265,431.5C 268.274,431.699 270.607,430.366 272,427.5C 273.023,423.683 272.523,420.183 270.5,417C 261.23,414.516 251.896,412.349 242.5,410.5C 243.245,405.773 244.245,401.106 245.5,396.5 Z"/></g>
<g><path style="opacity:1" fill="#dfa334" d="M 675.5,449.5 C 674.483,436.969 672.483,424.635 669.5,412.5C 684.573,406.319 700.239,403.819 716.5,405C 732.455,411.735 745.122,407.902 754.5,393.5C 758.732,419.861 748.066,437.027 722.5,445C 707.09,448.998 691.424,450.498 675.5,449.5 Z"/></g>
<g><path style="opacity:1" fill="#dfa334" d="M 220.5,414.5 C 218.469,426.578 216.802,438.578 215.5,450.5C 202.378,450.054 189.378,448.554 176.5,446C 167.912,443.709 160.579,439.376 154.5,433C 149.194,429.966 143.527,428.966 137.5,430C 132.724,431.738 128.057,433.405 123.5,435C 131.414,408.027 149.414,396.694 177.5,401C 192.578,403.513 206.912,408.013 220.5,414.5 Z"/></g>
<g><path style="opacity:1" fill="#f7f7f6" d="M 633.5,402.5 C 639.023,402.178 643.523,404.178 647,408.5C 652.798,417.761 653.798,427.428 650,437.5C 648.587,439.414 646.753,440.747 644.5,441.5C 642.863,437.623 641.529,433.623 640.5,429.5C 640.703,427.792 641.536,426.459 643,425.5C 644.418,421.163 643.252,417.829 639.5,415.5C 638.914,415.709 638.414,416.043 638,416.5C 637.667,423.5 637.333,430.5 637,437.5C 634.865,445.638 629.698,448.805 621.5,447C 616.269,444.768 612.769,440.935 611,435.5C 608.071,429.118 607.071,422.451 608,415.5C 614.599,402.495 619.099,402.828 621.5,416.5C 620.797,418.769 619.63,420.769 618,422.5C 616.902,426.505 617.735,430.005 620.5,433C 623.217,434.033 625.051,433.2 626,430.5C 626.333,423.833 626.667,417.167 627,410.5C 628.305,407.039 630.471,404.372 633.5,402.5 Z"/></g>
<g><path style="opacity:1" fill="#dfa334" d="M 215.5,454.5 C 215.299,467.552 215.966,480.552 217.5,493.5C 205.286,495.901 192.953,496.734 180.5,496C 171.381,492.69 162.215,489.524 153,486.5C 144.595,487.536 137.595,491.202 132,497.5C 130.948,479.765 138.115,466.599 153.5,458C 166.634,452.422 180.301,450.422 194.5,452C 201.469,453.162 208.469,453.996 215.5,454.5 Z"/></g>
<g><path style="opacity:1" fill="#dfa334" d="M 673.5,497.5 C 675.124,484.561 675.791,471.561 675.5,458.5C 690.004,456.646 704.337,457.479 718.5,461C 724.812,465.488 731.812,468.321 739.5,469.5C 746.816,468.259 753.316,465.259 759,460.5C 758.493,482.684 747.327,496.184 725.5,501C 707.909,503.615 690.576,502.448 673.5,497.5 Z"/></g>
<g><path style="opacity:1" fill="#dfa334" d="M 218.5,502.5 C 220.969,515.6 224.302,528.6 228.5,541.5C 214.92,546.376 200.92,549.709 186.5,551.5C 179.779,550.32 173.112,548.82 166.5,547C 161.561,546.531 156.894,547.531 152.5,550C 148.355,553.399 144.688,557.233 141.5,561.5C 137.317,536.698 146.984,519.865 170.5,511C 186.119,506.077 202.119,504.243 218.5,505.5C 218.5,504.5 218.5,503.5 218.5,502.5 Z"/></g>
<g><path style="opacity:1" fill="#dfa334" d="M 672.5,503.5 C 672.97,504.693 673.97,505.36 675.5,505.5C 688.156,506.83 700.156,510.33 711.5,516C 716.99,521.825 723.323,526.491 730.5,530C 738.467,530.807 745.967,529.307 753,525.5C 749.248,542.586 738.748,553.086 721.5,557C 712.78,557.839 704.113,557.505 695.5,556C 683.873,552.515 672.54,548.348 661.5,543.5C 666.432,530.39 670.099,517.057 672.5,503.5 Z"/></g>
<g><path style="opacity:1" fill="#f6f5f5" d="M 275.5,530.5 C 280.503,530.085 284.67,531.752 288,535.5C 290,538.833 292,542.167 294,545.5C 296.478,551.848 295.645,557.681 291.5,563C 290.365,563.749 289.365,563.583 288.5,562.5C 287.041,560.417 285.708,558.25 284.5,556C 288.813,549.884 287.813,544.551 281.5,540C 278.273,539.226 276.94,540.559 277.5,544C 277.853,547.959 278.687,551.792 280,555.5C 283.169,568.306 278.336,574.473 265.5,574C 257.631,569.442 252.797,562.608 251,553.5C 250.069,547.628 251.902,542.795 256.5,539C 257.167,538.333 257.833,538.333 258.5,539C 260.032,541.034 261.365,543.201 262.5,545.5C 258.104,552.173 258.771,558.34 264.5,564C 268.976,566.533 271.31,565.199 271.5,560C 269.407,552.281 268.573,544.447 269,536.5C 270.494,533.686 272.66,531.686 275.5,530.5 Z"/></g>
<g><path style="opacity:1" fill="#f7f7f6" d="M 600.5,540.5 C 615.829,541.067 631.162,541.733 646.5,542.5C 645.167,545.167 643.833,547.833 642.5,550.5C 638.878,551.325 635.211,551.825 631.5,552C 628.188,556.818 625.522,561.984 623.5,567.5C 624.742,570.977 626.742,573.977 629.5,576.5C 627.833,579.167 626.167,581.833 624.5,584.5C 615.104,573.389 605.938,562.056 597,550.5C 597.829,547.148 598.996,543.815 600.5,540.5 Z"/></g>
<g><path style="opacity:1" fill="#dfa334" d="M 230.5,546.5 C 235.6,558.703 241.267,570.703 247.5,582.5C 236.258,589.62 224.258,595.453 211.5,600C 201.468,600.905 191.468,601.905 181.5,603C 175.208,607.401 170.708,613.235 168,620.5C 158.181,597.969 163.347,579.802 183.5,566C 197.242,557.551 212.075,551.718 228,548.5C 229.376,548.316 230.209,547.649 230.5,546.5 Z"/></g>
<g><path style="opacity:1" fill="#dfa334" d="M 660.5,547.5 C 666.308,551.297 672.642,554.464 679.5,557C 684.167,560 688.833,563 693.5,566C 699.414,572.521 705.081,579.188 710.5,586C 712.717,587.275 715.051,588.275 717.5,589C 723.521,589.33 729.521,589.33 735.5,589C 724.536,607.481 708.536,614.481 687.5,610C 670.611,604.257 655.611,595.424 642.5,583.5C 649.587,571.992 655.587,559.992 660.5,547.5 Z"/></g>
<g><path style="opacity:1" fill="#25201d" d="M 608.5,551.5 C 613.348,550.186 618.348,550.186 623.5,551.5C 621.988,555.201 619.988,558.534 617.5,561.5C 614.478,558.147 611.478,554.813 608.5,551.5 Z"/></g>
<g><path style="opacity:1" fill="#f5f5f5" d="M 583.5,569.5 C 585.067,570.681 585.901,572.347 586,574.5C 587.461,582.141 588.795,589.808 590,597.5C 594.167,601.667 598.333,605.833 602.5,610C 600.951,611.214 599.785,612.714 599,614.5C 597.867,616.211 596.367,616.711 594.5,616C 591.167,612.667 587.833,609.333 584.5,606C 574.563,604.099 564.563,602.599 554.5,601.5C 556.69,599.144 558.69,596.644 560.5,594C 567.136,594.446 573.803,594.946 580.5,595.5C 579.823,589.96 578.823,584.46 577.5,579C 577.667,577.833 577.833,576.667 578,575.5C 580.04,573.63 581.873,571.63 583.5,569.5 Z"/></g>
<g><path style="opacity:1" fill="#f8f8f8" d="M 309.5,572.5 C 317.456,579.294 324.623,586.961 331,595.5C 333.891,601.897 332.391,607.064 326.5,611C 321.525,612.226 317.025,611.393 313,608.5C 312.876,616.333 311.709,623.999 309.5,631.5C 307.183,629.684 305.016,627.684 303,625.5C 302.475,618.275 302.975,611.108 304.5,604C 304.207,600.581 302.541,598.081 299.5,596.5C 294.888,599.608 290.722,603.275 287,607.5C 284.65,605.317 282.483,602.984 280.5,600.5C 290.187,591.145 299.854,581.812 309.5,572.5 Z"/></g>
<g><path style="opacity:1" fill="#282320" d="M 311.5,584.5 C 315.831,587.998 319.664,591.998 323,596.5C 323.089,602.736 320.256,604.569 314.5,602C 310.984,598.651 307.651,595.151 304.5,591.5C 306.548,588.785 308.882,586.452 311.5,584.5 Z"/></g>
<g><path style="opacity:1" fill="#dfa334" d="M 251.5,588.5 C 258.671,598.822 266.337,608.822 274.5,618.5C 265.548,628.29 255.548,636.79 244.5,644C 241.618,645.608 238.618,646.941 235.5,648C 217.426,648.408 207.259,657.574 205,675.5C 191.171,657.431 191.171,639.431 205,621.5C 218.458,607.529 233.958,596.529 251.5,588.5 Z"/></g>
<g><path style="opacity:1" fill="#dfa334" d="M 636.5,593.5 C 646.61,598.763 655.777,605.43 664,613.5C 668.694,621.717 673.527,629.883 678.5,638C 685.929,642.13 693.929,644.13 702.5,644C 684.779,662.964 664.779,665.631 642.5,652C 631.039,644.039 621.039,634.539 612.5,623.5C 620.91,613.764 628.91,603.764 636.5,593.5 Z"/></g>
<g><path style="opacity:1" fill="#f7f7f7" d="M 352.5,610.5 C 354.783,610.608 356.783,611.441 358.5,613C 360.211,614.133 360.711,615.633 360,617.5C 353.068,628.376 345.901,639.043 338.5,649.5C 336.201,648.365 334.034,647.032 332,645.5C 331.333,644.5 331.333,643.5 332,642.5C 338.662,631.682 345.496,621.015 352.5,610.5 Z"/></g>
<g><path style="opacity:1" fill="#f6f6f6" d="M 532.5,612.5 C 545.456,620.653 558.123,629.319 570.5,638.5C 568.062,640.804 565.229,642.47 562,643.5C 559,641.833 556,640.167 553,638.5C 548.102,641.033 543.269,643.699 538.5,646.5C 537.673,650.459 537.173,654.459 537,658.5C 534.579,659.961 532.079,661.294 529.5,662.5C 527.635,648.187 525.969,633.854 524.5,619.5C 524.608,618.558 524.941,617.725 525.5,617C 528.239,615.974 530.572,614.474 532.5,612.5 Z"/></g>
<g><path style="opacity:1" fill="#f9f8f8" d="M 399.5,673.5 C 399.832,662.813 399.499,652.146 398.5,641.5C 397.893,641.624 397.56,641.957 397.5,642.5C 393.011,649.472 388.511,656.472 384,663.5C 380.266,668.046 375.933,668.379 371,664.5C 370.845,650.156 371.345,635.822 372.5,621.5C 374.933,622.73 377.433,623.73 380,624.5C 380.333,633.5 380.667,642.5 381,651.5C 386.167,644.333 391.333,637.167 396.5,630C 399.824,630.489 403.157,631.323 406.5,632.5C 407.332,642.149 407.832,651.816 408,661.5C 412.959,653.75 417.792,645.917 422.5,638C 425.502,638.158 428.502,638.658 431.5,639.5C 424.624,652.236 416.957,664.57 408.5,676.5C 405.422,675.649 402.422,674.649 399.5,673.5 Z"/></g>
<g><path style="opacity:1" fill="#dfa334" d="M 280.5,624.5 C 288.88,633.214 297.88,641.214 307.5,648.5C 300.234,662.527 290.901,675.027 279.5,686C 273.506,689.894 267.173,693.227 260.5,696C 253.146,703.202 249.98,712.036 251,722.5C 234.21,708.127 230.21,690.794 239,670.5C 244.018,659.956 250.852,650.789 259.5,643C 266.371,636.625 273.371,630.458 280.5,624.5 Z"/></g>
<g><path style="opacity:1" fill="#25201d" d="M 534.5,624.5 C 538.866,627.016 542.866,630.016 546.5,633.5C 543.429,635.898 540.095,637.898 536.5,639.5C 535.504,634.538 534.837,629.538 534.5,624.5 Z"/></g>
<g><path style="opacity:1" fill="#f5f5f4" d="M 496.5,628.5 C 497.5,628.5 498.5,628.5 499.5,628.5C 501.139,636.86 502.972,645.193 505,653.5C 506.972,666.535 501.305,673.201 488,673.5C 481.467,673.802 477.301,670.802 475.5,664.5C 477.794,662.612 480.461,661.278 483.5,660.5C 485.68,666.669 489.513,668.002 495,664.5C 494.74,653.442 492.907,642.609 489.5,632C 491.548,630.168 493.881,629.001 496.5,628.5 Z"/></g>
<g><path style="opacity:1" fill="#dfa334" d="M 606.5,629.5 C 618.883,637.384 628.717,647.717 636,660.5C 637.7,667.275 640.367,673.608 644,679.5C 650.663,684.377 658.163,686.877 666.5,687C 650.646,702.252 632.979,704.586 613.5,694C 606.682,688.846 600.182,683.346 594,677.5C 588.195,669.386 582.362,661.386 576.5,653.5C 586.764,645.91 596.764,637.91 606.5,629.5 Z"/></g>
<g><path style="opacity:1" fill="#fbfbfb" d="M 452.5,637.5 C 453.306,650.817 453.639,664.15 453.5,677.5C 450.5,677.5 447.5,677.5 444.5,677.5C 444.819,672.637 444.486,667.97 443.5,663.5C 443.5,658.833 443.5,654.167 443.5,649.5C 443.5,645.5 443.5,641.5 443.5,637.5C 446.5,637.5 449.5,637.5 452.5,637.5 Z"/></g>
<g><path style="opacity:1" fill="#908e8c" d="M 452.5,637.5 C 449.5,637.5 446.5,637.5 443.5,637.5C 443.5,641.5 443.5,645.5 443.5,649.5C 442.515,645.366 442.182,641.032 442.5,636.5C 446.042,636.187 449.375,636.521 452.5,637.5 Z"/></g>
<g><path style="opacity:1" fill="#dfa334" d="M 315.5,654.5 C 325.883,661.024 336.549,667.024 347.5,672.5C 342.52,685.466 336.687,698.132 330,710.5C 326.067,716.434 320.9,720.934 314.5,724C 304.714,732.012 302.047,742.012 306.5,754C 305.423,755.543 304.089,755.543 302.5,754C 283.075,740.593 277.575,722.759 286,700.5C 293.587,683.644 303.42,668.31 315.5,654.5 Z"/></g>
<g><path style="opacity:1" fill="#dfa334" d="M 569.5,658.5 C 578.343,668.523 585.843,679.523 592,691.5C 593.426,698.484 594.76,705.484 596,712.5C 597.505,717.355 600.338,721.188 604.5,724C 609.207,726.023 613.874,728.023 618.5,730C 612.743,732.876 606.743,735.209 600.5,737C 588.009,739.278 577.009,736.278 567.5,728C 562.966,723.801 558.799,719.301 555,714.5C 547.346,702.186 540.513,689.52 534.5,676.5C 546.539,671.313 558.206,665.313 569.5,658.5 Z"/></g>
<g><path style="opacity:1" fill="#7e7b7a" d="M 397.5,642.5 C 397.56,641.957 397.893,641.624 398.5,641.5C 399.499,652.146 399.832,662.813 399.5,673.5C 398.833,663.167 398.167,652.833 397.5,642.5 Z"/></g>
<g><path style="opacity:1" fill="#a6a5a3" d="M 443.5,663.5 C 444.486,667.97 444.819,672.637 444.5,677.5C 447.5,677.5 450.5,677.5 453.5,677.5C 450.375,678.479 447.042,678.813 443.5,678.5C 443.5,673.5 443.5,668.5 443.5,663.5 Z"/></g>
<g><path style="opacity:1" fill="#dfa334" d="M 355.5,675.5 C 366.737,680.69 378.403,684.69 390.5,687.5C 389.053,701.568 385.886,715.235 381,728.5C 375.333,736.167 369.667,743.833 364,751.5C 363.333,756.5 363.333,761.5 364,766.5C 365.639,769.742 366.639,773.076 367,776.5C 338.845,764.745 329.512,744.079 339,714.5C 343.979,701.217 349.479,688.217 355.5,675.5 Z"/></g>
<g><path style="opacity:1" fill="#dfa334" d="M 527.5,679.5 C 533.951,690.414 538.784,702.081 542,714.5C 541.834,723.827 541.834,733.161 542,742.5C 545.639,749.973 551.139,755.639 558.5,759.5C 540.338,766.576 524.838,762.909 512,748.5C 499.93,731.13 493.097,711.797 491.5,690.5C 490.167,690.5 488.833,690.5 487.5,690.5C 500.866,687.488 514.199,683.822 527.5,679.5 Z"/></g>
<g><path style="opacity:1" fill="#dfa334" d="M 402.5,690.5 C 411.762,692.155 421.096,693.155 430.5,693.5C 432.948,694.473 435.615,694.806 438.5,694.5C 438.853,707.542 438.353,720.542 437,733.5C 433.494,742.847 429.161,751.847 424,760.5C 423.043,769.338 425.21,777.338 430.5,784.5C 407.599,782.431 395.099,769.764 393,746.5C 392.273,727.179 395.439,708.512 402.5,690.5 Z"/></g>
<g><path style="opacity:1" fill="#dfa335" d="M 482.5,691.5 C 487.843,705.221 490.01,719.554 489,734.5C 487.621,740.256 485.954,745.923 484,751.5C 482.736,762.974 486.903,771.974 496.5,778.5C 474.885,781.778 459.718,773.444 451,753.5C 448.57,747.715 447.07,741.715 446.5,735.5C 445.691,723.518 445.358,711.518 445.5,699.5C 445.5,697.833 445.5,696.167 445.5,694.5C 443.167,694.5 440.833,694.5 438.5,694.5C 435.615,694.806 432.948,694.473 430.5,693.5C 447.881,693.842 465.215,693.175 482.5,691.5 Z"/></g>
<g><path style="opacity:1" fill="#efc416" d="M 445.5,699.5 C 445.358,711.518 445.691,723.518 446.5,735.5C 444.965,728.736 444.298,721.736 444.5,714.5C 444.501,709.322 444.834,704.322 445.5,699.5 Z"/></g>
<g><path style="opacity:0.991" fill="#1f1a17" d="M 471.5,996.5 C 449.167,996.5 426.833,996.5 404.5,996.5C 299.865,991.094 198.865,968.761 101.5,929.5C 102.833,925.833 104.167,922.167 105.5,918.5C 70.1685,905.777 35.3352,891.777 1,876.5C 0.617425,877.056 0.117425,877.389 -0.5,877.5C -0.5,876.833 -0.5,876.167 -0.5,875.5C 8.24786,867.285 18.5812,861.785 30.5,859C 35.8832,856.983 40.5499,853.983 44.5,850C 39.1134,837.844 34.1134,825.511 29.5,813C 29.8333,812.5 30.1667,812 30.5,811.5C 69.1621,834.162 110.162,851.329 153.5,863C 158.029,867.281 159.362,872.447 157.5,878.5C 157.818,879.647 158.484,880.481 159.5,881C 349.246,939.254 538.912,938.92 728.5,880C 725.243,870.691 728.076,864.191 737,860.5C 737.893,861.081 738.893,861.415 740,861.5C 780.953,849.44 820.119,833.107 857.5,812.5C 857.833,812.833 858.167,813.167 858.5,813.5C 853.5,825.5 848.5,837.5 843.5,849.5C 846.023,853.182 849.356,856.015 853.5,858C 862.323,860.941 870.99,864.274 879.5,868C 882.979,870.312 885.979,873.146 888.5,876.5C 853.005,891.438 817.339,905.772 781.5,919.5C 783.182,922.645 783.849,925.812 783.5,929C 682.975,968.203 578.975,990.703 471.5,996.5 Z"/></g>
<g><path style="opacity:1" fill="#f5f5f4" d="M 116.5,863.5 C 123.979,864.911 131.479,866.244 139,867.5C 143.018,867.715 146.685,866.715 150,864.5C 155.091,867.408 156.757,871.742 155,877.5C 154.612,878.428 153.945,879.095 153,879.5C 142.856,875.894 132.69,872.728 122.5,870C 117.407,884.446 112.407,898.946 107.5,913.5C 104.914,914.48 102.247,914.813 99.5,914.5C 104.969,897.426 110.636,880.426 116.5,863.5 Z"/></g>
<g><path style="opacity:1" fill="#f3f3f3" d="M 763.5,864.5 C 765.5,864.5 767.5,864.5 769.5,864.5C 775.167,881.167 780.833,897.833 786.5,914.5C 783.881,914.768 781.381,914.435 779,913.5C 773.865,898.906 769.032,884.239 764.5,869.5C 753.899,872.534 743.399,875.867 733,879.5C 730.653,874.956 731.153,870.789 734.5,867C 744.447,869.209 754.113,868.376 763.5,864.5 Z"/></g>
<g><path style="opacity:1" fill="#f3d101" d="M 139.5,895.5 C 142.704,896.901 146.037,897.901 149.5,898.5C 146.631,907.775 143.964,917.108 141.5,926.5C 138.123,926.041 134.789,925.374 131.5,924.5C 133.758,914.724 136.425,905.058 139.5,895.5 Z"/></g>
<g><path style="opacity:1" fill="#f2d001" d="M 744.5,897.5 C 745.5,897.5 746.5,897.5 747.5,897.5C 750.322,907.123 752.989,916.789 755.5,926.5C 752.472,926.339 749.639,927.006 747,928.5C 741.709,925.379 736.543,922.046 731.5,918.5C 731.654,922.799 732.654,927.133 734.5,931.5C 731.511,933.662 728.177,934.662 724.5,934.5C 722.342,925.524 719.675,916.691 716.5,908C 719.552,904.986 723.219,903.986 727.5,905C 731.833,908.167 736.167,911.333 740.5,914.5C 740.898,909.819 739.898,905.319 737.5,901C 739.858,899.724 742.192,898.558 744.5,897.5 Z"/></g>
<g><path style="opacity:1" fill="#f1cf02" d="M 155.5,901.5 C 159.274,902.142 162.607,903.642 165.5,906C 162.987,912.704 160.987,919.537 159.5,926.5C 164.323,927.218 168.99,928.551 173.5,930.5C 173.838,932.655 173.838,934.989 173.5,937.5C 164.833,935.167 156.167,932.833 147.5,930.5C 150.011,920.789 152.678,911.123 155.5,901.5 Z"/></g>
<g><path style="opacity:1" fill="#f0cf02" d="M 191.5,935.5 C 191.666,930.489 191.499,925.489 191,920.5C 190.209,921.745 189.709,923.078 189.5,924.5C 188.477,929.925 187.144,935.258 185.5,940.5C 183.473,940.662 181.473,940.495 179.5,940C 178.422,939.326 177.755,938.326 177.5,937C 179.666,928.502 181.832,920.002 184,911.5C 184.414,911.043 184.914,910.709 185.5,910.5C 189.71,911.773 193.876,913.106 198,914.5C 198.333,920.167 198.667,925.833 199,931.5C 201.667,926.162 204.834,921.162 208.5,916.5C 211.717,917.972 215.051,919.138 218.5,920C 219.516,920.519 220.182,921.353 220.5,922.5C 217.911,931.119 215.578,939.785 213.5,948.5C 211.073,948.477 208.74,947.977 206.5,947C 205.941,946.275 205.608,945.442 205.5,944.5C 207.025,938.398 208.525,932.398 210,926.5C 206.374,932.25 202.874,938.084 199.5,944C 196.808,944.43 194.141,944.263 191.5,943.5C 191.5,940.833 191.5,938.167 191.5,935.5 Z"/></g>
<g><path style="opacity:1" fill="#f1cf02" d="M 698.5,911.5 C 701.044,911.104 703.211,911.771 705,913.5C 710.694,921.027 716.194,928.694 721.5,936.5C 718.554,937.653 715.554,938.653 712.5,939.5C 711.238,937.619 709.571,936.286 707.5,935.5C 704.218,936.488 700.885,937.154 697.5,937.5C 697.739,939.467 697.406,941.301 696.5,943C 693.232,944.15 689.899,944.984 686.5,945.5C 688.383,934.87 690.049,924.203 691.5,913.5C 694.067,913.279 696.401,912.612 698.5,911.5 Z"/></g>
<g><path style="opacity:1" fill="#efce02" d="M 671.5,918.5 C 673.467,918.261 675.301,918.594 677,919.5C 678.912,927.649 680.746,935.816 682.5,944C 682.415,945.107 682.081,946.107 681.5,947C 678.607,948.149 675.607,948.649 672.5,948.5C 670.63,939.819 668.63,931.152 666.5,922.5C 666.608,921.558 666.941,920.725 667.5,920C 669.058,919.79 670.391,919.29 671.5,918.5 Z"/></g>
<g><path style="opacity:1" fill="#f2d001" d="M 225.5,921.5 C 228.553,921.911 231.553,922.577 234.5,923.5C 234.833,924.5 235.167,925.5 235.5,926.5C 233.683,932.739 232.85,939.072 233,945.5C 236.204,948.113 239.37,948.113 242.5,945.5C 244.09,939.219 245.423,932.885 246.5,926.5C 250.179,926.724 253.846,927.058 257.5,927.5C 255.774,934.851 253.941,942.184 252,949.5C 250.457,951.378 248.624,952.878 246.5,954C 239.457,955.281 232.79,954.281 226.5,951C 224.951,949.786 223.785,948.286 223,946.5C 222.129,937.992 222.962,929.659 225.5,921.5 Z"/></g>
<g><path style="opacity:1" fill="#302817" d="M 698.5,920.5 C 700.945,922.672 702.945,925.338 704.5,928.5C 702.696,929.768 700.696,930.435 698.5,930.5C 698.5,927.167 698.5,923.833 698.5,920.5 Z"/></g>
<g><path style="opacity:1" fill="#f1d002" d="M 645.5,924.5 C 660.426,923.655 666.593,930.655 664,945.5C 662.108,949.058 659.275,951.558 655.5,953C 649.303,954.967 642.97,956.133 636.5,956.5C 634.961,946.808 633.295,937.141 631.5,927.5C 636.412,927.102 641.079,926.102 645.5,924.5 Z"/></g>
<g><path style="opacity:1" fill="#f2d001" d="M 613.5,931.5 C 616.518,931.335 619.518,931.502 622.5,932C 628.136,935.203 628.802,939.203 624.5,944C 630.155,945.875 631.989,949.708 630,955.5C 628.891,957.815 627.057,959.315 624.5,960C 616.82,961.502 609.154,963.002 601.5,964.5C 600.166,954.498 598.833,944.498 597.5,934.5C 603.049,933.989 608.383,932.989 613.5,931.5 Z"/></g>
<g><path style="opacity:1" fill="#221c17" d="M 643.5,932.5 C 652.751,931.3 656.251,935.3 654,944.5C 651.872,947.458 649.206,948.124 646,946.5C 644.844,941.878 644.01,937.211 643.5,932.5 Z"/></g>
<g><path style="opacity:1" fill="#5b4e11" d="M 191.5,935.5 C 190.833,931.833 190.167,928.167 189.5,924.5C 189.709,923.078 190.209,921.745 191,920.5C 191.499,925.489 191.666,930.489 191.5,935.5 Z"/></g>
<g><path style="opacity:1" fill="#f1cf02" d="M 285.5,934.5 C 289.747,934.884 293.914,935.551 298,936.5C 300.805,946.385 302.972,956.385 304.5,966.5C 301.482,966.665 298.482,966.498 295.5,966C 294.594,964.301 294.261,962.467 294.5,960.5C 291.31,960.441 288.143,960.107 285,959.5C 283.045,959.641 281.545,960.474 280.5,962C 276.638,962.913 272.972,962.58 269.5,961C 275.233,952.36 280.566,943.527 285.5,934.5 Z"/></g>
<g><path style="opacity:1" fill="#f2d001" d="M 576.5,937.5 C 578.792,937.244 580.959,937.577 583,938.5C 588.041,947.415 593.207,956.249 598.5,965C 595.475,965.361 592.475,965.861 589.5,966.5C 587.431,966.215 586.098,965.048 585.5,963C 581.49,962.643 577.49,962.81 573.5,963.5C 573.5,965.167 573.5,966.833 573.5,968.5C 569.821,968.724 566.154,969.058 562.5,969.5C 565.022,959.414 567.855,949.414 571,939.5C 572.948,938.891 574.782,938.224 576.5,937.5 Z"/></g>
<g><path style="opacity:1" fill="#2e2617" d="M 608.5,938.5 C 611.187,938.336 613.854,938.503 616.5,939C 617.517,940.049 617.684,941.216 617,942.5C 611.672,946.085 608.839,944.752 608.5,938.5 Z"/></g>
<g><path style="opacity:1" fill="#edcc03" d="M 312.5,938.5 C 315.807,939.051 319.14,939.384 322.5,939.5C 321.534,946.819 321.034,954.152 321,961.5C 325.427,962.729 329.927,963.729 334.5,964.5C 335.363,966.771 335.363,969.105 334.5,971.5C 325.855,970.313 317.189,969.313 308.5,968.5C 309.368,958.425 310.701,948.425 312.5,938.5 Z"/></g>
<g><path style="opacity:1" fill="#f1cf02" d="M 543.5,961.5 C 543.5,959.5 543.5,957.5 543.5,955.5C 546.059,955.802 548.393,955.468 550.5,954.5C 553.5,954.5 556.5,954.5 559.5,954.5C 559.666,958.514 559.499,962.514 559,966.5C 551.749,972.11 543.582,973.944 534.5,972C 525.699,967.227 522.866,960.06 526,950.5C 530.26,944.454 536.093,941.788 543.5,942.5C 549.629,941.234 554.296,943.234 557.5,948.5C 555.102,950.104 552.435,951.104 549.5,951.5C 547.192,950.099 544.692,949.099 542,948.5C 539.473,949.024 537.473,950.358 536,952.5C 533.403,962.864 537.236,967.031 547.5,965C 548.973,964.29 549.64,963.124 549.5,961.5C 547.5,961.5 545.5,961.5 543.5,961.5 Z"/></g>
<g><path style="opacity:1" fill="#efce02" d="M 350.5,943.5 C 354.767,943.203 358.934,943.536 363,944.5C 365.866,954.266 369.033,963.932 372.5,973.5C 369.216,974.657 365.882,974.824 362.5,974C 361.139,972.416 360.472,970.582 360.5,968.5C 356.486,968.334 352.486,968.501 348.5,969C 347.663,970.011 347.33,971.178 347.5,972.5C 343.606,972.89 339.94,972.223 336.5,970.5C 341.448,961.604 346.114,952.604 350.5,943.5 Z"/></g>
<g><path style="opacity:1" fill="#2c2416" d="M 289.5,944.5 C 290.117,944.611 290.617,944.944 291,945.5C 291.567,948.168 292.067,950.834 292.5,953.5C 290.011,953.702 287.677,953.202 285.5,952C 286.986,949.525 288.319,947.025 289.5,944.5 Z"/></g>
<g><path style="opacity:1" fill="#f6d401" d="M 402.5,953.5 C 398.833,953.5 395.167,953.5 391.5,953.5C 391.5,954.5 391.5,955.5 391.5,956.5C 390.986,962.822 390.653,969.155 390.5,975.5C 387.167,975.5 383.833,975.5 380.5,975.5C 380.68,967.825 381.014,960.158 381.5,952.5C 378.167,952.5 374.833,952.5 371.5,952.5C 371.5,950.167 371.5,947.833 371.5,945.5C 381.835,945.792 392.168,946.125 402.5,946.5C 402.5,948.833 402.5,951.167 402.5,953.5 Z"/></g>
<g><path style="opacity:1" fill="#f4d201" d="M 497.5,964.5 C 497.5,968.167 497.5,971.833 497.5,975.5C 495.901,975.232 494.568,975.566 493.5,976.5C 491.833,976.5 490.167,976.5 488.5,976.5C 488.443,970.149 488.11,963.815 487.5,957.5C 487.5,954.167 487.5,950.833 487.5,947.5C 488.791,947.737 489.791,947.404 490.5,946.5C 492.527,946.338 494.527,946.505 496.5,947C 501.015,951.215 505.182,955.715 509,960.5C 509.499,955.511 509.666,950.511 509.5,945.5C 511.884,945.557 514.218,945.223 516.5,944.5C 517.647,944.818 518.481,945.484 519,946.5C 519.832,955.819 520.332,965.152 520.5,974.5C 516.774,974.823 513.107,974.489 509.5,973.5C 505.481,969.315 501.647,964.982 498,960.5C 497.51,961.793 497.343,963.127 497.5,964.5 Z"/></g>
<g><path style="opacity:1" fill="#a78f0a" d="M 454.5,948.5 C 463.652,947.506 472.985,947.173 482.5,947.5C 482.5,949.833 482.5,952.167 482.5,954.5C 476.833,954.5 471.167,954.5 465.5,954.5C 465.5,955.833 465.5,957.167 465.5,958.5C 464.549,957.081 464.216,955.415 464.5,953.5C 470.167,953.5 475.833,953.5 481.5,953.5C 481.5,951.833 481.5,950.167 481.5,948.5C 472.5,948.5 463.5,948.5 454.5,948.5 Z"/></g>
<g><path style="opacity:1" fill="#312817" d="M 577.5,946.5 C 579.392,949.276 581.059,952.276 582.5,955.5C 580.167,956.833 577.833,956.833 575.5,955.5C 576.423,952.553 577.089,949.553 577.5,946.5 Z"/></g>
<g><path style="opacity:1" fill="#f8d600" d="M 421.5,948.5 C 429.174,948.334 436.841,948.5 444.5,949C 449.069,951.541 450.569,955.375 449,960.5C 448.215,962.286 447.049,963.786 445.5,965C 440.964,966.379 436.297,966.879 431.5,966.5C 431.5,970.167 431.5,973.833 431.5,977.5C 428.167,977.5 424.833,977.5 421.5,977.5C 421.5,967.833 421.5,958.167 421.5,948.5 Z"/></g>
<g><path style="opacity:1" fill="#f8d600" d="M 454.5,948.5 C 463.5,948.5 472.5,948.5 481.5,948.5C 481.5,950.167 481.5,951.833 481.5,953.5C 475.833,953.5 470.167,953.5 464.5,953.5C 464.216,955.415 464.549,957.081 465.5,958.5C 470.833,958.5 476.167,958.5 481.5,958.5C 481.5,960.5 481.5,962.5 481.5,964.5C 476.167,964.5 470.833,964.5 465.5,964.5C 465.5,966.5 465.5,968.5 465.5,970.5C 471.167,970.5 476.833,970.5 482.5,970.5C 482.5,972.5 482.5,974.5 482.5,976.5C 473.5,976.5 464.5,976.5 455.5,976.5C 455.822,970.642 455.489,964.975 454.5,959.5C 454.5,955.833 454.5,952.167 454.5,948.5 Z"/></g>
<g><path style="opacity:1" fill="#2a2317" d="M 610.5,949.5 C 613.518,949.335 616.518,949.502 619.5,950C 621.013,952.454 620.346,954.121 617.5,955C 615.19,955.497 612.857,955.663 610.5,955.5C 610.5,953.5 610.5,951.5 610.5,949.5 Z"/></g>
<g><path style="opacity:1" fill="#8d790e" d="M 490.5,946.5 C 489.791,947.404 488.791,947.737 487.5,947.5C 487.5,950.833 487.5,954.167 487.5,957.5C 486.518,954.038 486.185,950.371 486.5,946.5C 487.833,946.5 489.167,946.5 490.5,946.5 Z"/></g>
<g><path style="opacity:1" fill="#251f16" d="M 355.5,952.5 C 356.791,954.949 357.791,957.616 358.5,960.5C 356.235,961.647 353.902,961.814 351.5,961C 353.249,958.337 354.582,955.503 355.5,952.5 Z"/></g>
<g><path style="opacity:1" fill="#806e0e" d="M 402.5,953.5 C 398.708,953.993 395.042,954.993 391.5,956.5C 391.5,955.5 391.5,954.5 391.5,953.5C 395.167,953.5 398.833,953.5 402.5,953.5 Z"/></g>
<g><path style="opacity:1" fill="#272016" d="M 431.5,954.5 C 433.857,954.337 436.19,954.503 438.5,955C 439.86,956.938 439.527,958.604 437.5,960C 435.527,960.495 433.527,960.662 431.5,960.5C 431.5,958.5 431.5,956.5 431.5,954.5 Z"/></g>
<g><path style="opacity:1" fill="#907b0d" d="M 550.5,954.5 C 548.393,955.468 546.059,955.802 543.5,955.5C 543.5,957.5 543.5,959.5 543.5,961.5C 542.532,959.393 542.198,957.059 542.5,954.5C 545.167,954.5 547.833,954.5 550.5,954.5 Z"/></g>
<g><path style="opacity:1" fill="#a79009" d="M 454.5,959.5 C 455.489,964.975 455.822,970.642 455.5,976.5C 464.5,976.5 473.5,976.5 482.5,976.5C 482.5,974.5 482.5,972.5 482.5,970.5C 483.468,972.607 483.802,974.941 483.5,977.5C 473.833,977.5 464.167,977.5 454.5,977.5C 454.5,971.5 454.5,965.5 454.5,959.5 Z"/></g>
<g><path style="opacity:1" fill="#89750e" d="M 497.5,964.5 C 498.483,968.298 498.817,972.298 498.5,976.5C 496.833,976.5 495.167,976.5 493.5,976.5C 494.568,975.566 495.901,975.232 497.5,975.5C 497.5,971.833 497.5,968.167 497.5,964.5 Z"/></g>
</svg>
