<?xml version="1.0" encoding="UTF-8"?>
<!DOCTYPE svg PUBLIC "-//W3C//DTD SVG 1.1//EN" "http://www.w3.org/Graphics/SVG/1.1/DTD/svg11.dtd">
<svg xmlns="http://www.w3.org/2000/svg" version="1.1" width="240px" height="234px" style="shape-rendering:geometricPrecision; text-rendering:geometricPrecision; image-rendering:optimizeQuality; fill-rule:evenodd; clip-rule:evenodd" xmlns:xlink="http://www.w3.org/1999/xlink">
<g><path style="opacity:0.998" fill="#00005b" d="M 32.5,-0.5 C 90.5,-0.5 148.5,-0.5 206.5,-0.5C 218.203,2.6087 227.37,9.27537 234,19.5C 236.349,23.7415 238.182,28.0748 239.5,32.5C 239.5,88.5 239.5,144.5 239.5,200.5C 236.391,212.203 229.725,221.37 219.5,228C 215.259,230.349 210.925,232.182 206.5,233.5C 148.5,233.5 90.5,233.5 32.5,233.5C 20.7967,230.391 11.63,223.725 5,213.5C 2.6512,209.259 0.817868,204.925 -0.5,200.5C -0.5,144.5 -0.5,88.5 -0.5,32.5C 2.6087,20.7967 9.27537,11.63 19.5,5C 23.9044,3.04129 28.2378,1.20796 32.5,-0.5 Z"/></g>
<g><path style="opacity:1" fill="#9797fd" d="M 56.5,59.5 C 71.1705,59.3334 85.8371,59.5001 100.5,60C 125.302,65.1646 135.469,80.3313 131,105.5C 125.904,120.589 115.404,129.089 99.5,131C 92.5079,131.5 85.5079,131.666 78.5,131.5C 78.5,142.5 78.5,153.5 78.5,164.5C 71.1667,164.5 63.8333,164.5 56.5,164.5C 56.5,129.5 56.5,94.5 56.5,59.5 Z"/></g>
<g><path style="opacity:1" fill="#01015c" d="M 78.5,78.5 C 87.1616,77.6627 95.4949,78.8293 103.5,82C 112.774,90.922 112.774,99.922 103.5,109C 95.4763,112.108 87.1429,113.275 78.5,112.5C 78.5,101.167 78.5,89.8333 78.5,78.5 Z"/></g>
<g><path style="opacity:1" fill="#9696fc" d="M 184.5,83.5 C 187.833,83.5 191.167,83.5 194.5,83.5C 194.666,90.5079 194.5,97.5079 194,104.5C 185.101,104.266 176.935,106.6 169.5,111.5C 168.5,129.154 168.167,146.821 168.5,164.5C 160.833,164.5 153.167,164.5 145.5,164.5C 145.5,137.833 145.5,111.167 145.5,84.5C 151.842,84.3338 158.175,84.5005 164.5,85C 165,85.5 165.5,86 166,86.5C 166.333,89.5 166.667,92.5 167,95.5C 171.935,90.0441 177.768,86.0441 184.5,83.5 Z"/></g>
</svg>
