<?xml version="1.0" encoding="UTF-8"?>
<!DOCTYPE svg PUBLIC "-//W3C//DTD SVG 1.1//EN" "http://www.w3.org/Graphics/SVG/1.1/DTD/svg11.dtd">
<svg xmlns="http://www.w3.org/2000/svg" version="1.1" width="240px" height="234px" style="shape-rendering:geometricPrecision; text-rendering:geometricPrecision; image-rendering:optimizeQuality; fill-rule:evenodd; clip-rule:evenodd" xmlns:xlink="http://www.w3.org/1999/xlink">
<g><path style="opacity:0.998" fill="#001e36" d="M 32.5,-0.5 C 90.5,-0.5 148.5,-0.5 206.5,-0.5C 218.203,2.6087 227.37,9.27537 234,19.5C 236.349,23.7415 238.182,28.0748 239.5,32.5C 239.5,88.5 239.5,144.5 239.5,200.5C 236.391,212.203 229.725,221.37 219.5,228C 215.259,230.349 210.925,232.182 206.5,233.5C 148.5,233.5 90.5,233.5 32.5,233.5C 20.7967,230.391 11.63,223.725 5,213.5C 2.6512,209.259 0.817868,204.925 -0.5,200.5C -0.5,144.5 -0.5,88.5 -0.5,32.5C 2.6087,20.7967 9.27537,11.63 19.5,5C 23.9044,3.04129 28.2378,1.20796 32.5,-0.5 Z"/></g>
<g><path style="opacity:1" fill="#30a6fc" d="M 53.5,59.5 C 68.1705,59.3334 82.8371,59.5001 97.5,60C 123.785,66.0601 133.619,82.2268 127,108.5C 121.343,121.93 111.176,129.43 96.5,131C 89.5079,131.5 82.5079,131.666 75.5,131.5C 75.5,142.5 75.5,153.5 75.5,164.5C 68.1667,164.5 60.8333,164.5 53.5,164.5C 53.5,129.5 53.5,94.5 53.5,59.5 Z"/></g>
<g><path style="opacity:1" fill="#001f37" d="M 75.5,78.5 C 84.1616,77.6627 92.4949,78.8293 100.5,82C 109.457,90.2944 109.79,98.9611 101.5,108C 93.2988,111.984 84.6322,113.484 75.5,112.5C 75.5,101.167 75.5,89.8333 75.5,78.5 Z"/></g>
<g><path style="opacity:1" fill="#30a5fb" d="M 163.5,83.5 C 173.374,82.9692 183.04,84.1359 192.5,87C 193.478,93.4102 193.811,99.9102 193.5,106.5C 186.211,104.008 178.711,102.342 171,101.5C 166.085,100.872 162.585,102.705 160.5,107C 161.439,108.944 162.773,110.611 164.5,112C 173.675,115.387 182.342,119.72 190.5,125C 198.878,134.786 199.712,145.286 193,156.5C 188.498,161.337 182.998,164.503 176.5,166C 167.833,166.667 159.167,166.667 150.5,166C 146.549,165.464 143.049,163.964 140,161.5C 139.5,155.175 139.334,148.842 139.5,142.5C 144.676,144.578 150.01,146.411 155.5,148C 162.011,149.032 168.344,148.532 174.5,146.5C 175.952,143.718 175.619,141.218 173.5,139C 164.276,135.721 155.609,131.388 147.5,126C 137.822,115.877 136.989,105.043 145,93.5C 150.457,88.6906 156.624,85.3573 163.5,83.5 Z"/></g>
</svg>
