<?xml version="1.0" standalone="no"?>
<!DOCTYPE svg PUBLIC "-//W3C//DTD SVG 20010904//EN"
 "http://www.w3.org/TR/2001/REC-SVG-20010904/DTD/svg10.dtd">
<svg version="1.0" xmlns="http://www.w3.org/2000/svg"
 width="512.000000pt" height="512.000000pt" viewBox="0 0 512.000000 512.000000"
 preserveAspectRatio="xMidYMid meet">

<g transform="translate(0.000000,512.000000) scale(0.100000,-0.100000)"
fill="#000000" stroke="none">
<path d="M2375 5093 c-626 -50 -1131 -278 -1579 -713 -491 -476 -747 -1049
-772 -1730 -16 -403 55 -777 215 -1137 235 -533 738 -1038 1274 -1281 332
-150 653 -215 1052 -215 615 0 1101 167 1575 541 115 91 320 296 414 412 296
370 479 804 537 1275 16 131 16 493 0 620 -40 315 -117 571 -252 837 -293 574
-829 1048 -1424 1257 -304 108 -715 161 -1040 134z m-673 -1553 c123 -14 232
-51 321 -109 258 -169 397 -448 423 -848 l7 -103 -711 0 -712 0 0 -60 c0 -78
25 -198 55 -265 87 -198 284 -315 530 -315 235 0 417 109 477 285 l17 50 155
3 155 3 -20 -73 c-70 -251 -256 -432 -526 -510 -69 -20 -100 -23 -268 -23
-202 0 -248 7 -377 59 -101 41 -170 88 -258 176 -127 127 -198 271 -245 495
-23 109 -31 331 -15 436 55 382 310 688 644 775 123 32 220 39 348 24z m1523
-340 c127 -186 233 -339 237 -340 3 0 115 153 249 340 l242 340 194 0 c153 0
193 -3 186 -12 -4 -7 -152 -206 -328 -443 -177 -236 -324 -436 -328 -442 -7
-10 426 -627 715 -1021 l39 -52 -212 2 -212 3 -269 399 c-147 220 -270 401
-272 403 -2 3 -127 -178 -277 -401 l-273 -406 -198 0 -198 0 73 103 c41 56
204 284 362 507 158 223 292 410 296 416 6 7 -120 186 -331 472 -187 254 -340
464 -340 467 0 3 93 5 208 5 l207 -1 230 -339z"/>
<path d="M1436 3254 c-210 -51 -369 -235 -402 -466 l-6 -48 542 0 543 0 -7 55
c-8 68 -47 174 -87 237 -116 181 -363 275 -583 222z"/>
</g>
</svg>
