<?xml version="1.0" encoding="UTF-8"?>
<svg version="1.1" xmlns="http://www.w3.org/2000/svg" width="512" height="512">
<path d="M0 0 C0.91473083 -0.00067474 1.82946167 -0.00134949 2.77191162 -0.00204468 C17.17291702 0.01480947 31.18165162 0.63180952 45.375 3.25 C46.29200684 3.41097168 47.20901367 3.57194336 48.15380859 3.73779297 C71.53723987 7.94269053 94.08971677 15.75030548 115.375 26.25 C116.46748047 26.78294678 116.46748047 26.78294678 117.58203125 27.32666016 C137.05472929 36.91827966 155.14734032 49.46744971 171.109375 64.16796875 C173.18392036 66.0744044 175.29765931 67.9176561 177.4375 69.75 C184.68854175 76.09830161 191.12363589 82.92769606 197.13671875 90.45703125 C198.57109581 92.24687348 200.03017734 94.01735706 201.51953125 95.76171875 C213.0136084 109.2853807 222.21549027 124.53172399 230.375 140.25 C230.7251416 140.92289063 231.0752832 141.59578125 231.43603516 142.2890625 C239.92869822 158.86011239 246.17867795 176.5966101 250.75 194.625 C250.9763916 195.51324463 251.2027832 196.40148926 251.43603516 197.31665039 C252.14844507 200.28377613 252.77245618 203.25857064 253.375 206.25 C253.64352783 207.52302979 253.91205566 208.79605957 254.1887207 210.10766602 C256.89525704 224.07098956 256.870225 238.11181848 256.82104492 252.28149414 C256.81188034 255.04352201 256.81873821 257.80470232 256.84155273 260.56665039 C257.02219107 282.57877563 255.41294339 303.72602073 249.125 324.9375 C248.8269043 325.96601074 248.52880859 326.99452148 248.22167969 328.05419922 C237.07737238 365.60114113 218.44361076 400.7644403 191.375 429.25 C190.18023226 430.61868963 188.99219728 431.99329976 187.8125 433.375 C181.4914356 440.60959818 174.67309163 447.01797234 167.16796875 453.01171875 C165.37812652 454.44609581 163.60764294 455.90517734 161.86328125 457.39453125 C148.3396193 468.8886084 133.09327601 478.09049027 117.375 486.25 C116.70210938 486.6001416 116.02921875 486.9502832 115.3359375 487.31103516 C94.90072509 497.78408152 72.87432005 504.84862823 50.375 509.25 C49.74931122 509.38097076 49.12362244 509.51194153 48.47897339 509.6468811 C33.4559244 512.73468227 18.47957767 512.7417097 3.1920166 512.68914795 C-0.12536577 512.68642067 -3.4425057 512.7216886 -6.75976562 512.74804688 C-67.17106828 512.91415597 -127.73791292 488.95402443 -171.625 447.25 C-172.99368963 446.05523226 -174.36829976 444.86719728 -175.75 443.6875 C-182.98459818 437.3664356 -189.39297234 430.54809163 -195.38671875 423.04296875 C-196.82109581 421.25312652 -198.28017734 419.48264294 -199.76953125 417.73828125 C-211.2636084 404.2146193 -220.46549027 388.96827601 -228.625 373.25 C-228.9751416 372.57710938 -229.3252832 371.90421875 -229.68603516 371.2109375 C-239.99304997 351.09968908 -247.08263018 329.34896186 -251.625 307.25 C-251.83527832 306.24356445 -252.04555664 305.23712891 -252.26220703 304.20019531 C-264.98825426 240.25760173 -250.6756935 170.20486233 -214.6875 116 C-207.67018116 105.61720968 -200.20661494 95.74459503 -191.70703125 86.515625 C-189.8005956 84.44107964 -187.9573439 82.32734069 -186.125 80.1875 C-179.77669839 72.93645825 -172.94730394 66.50136411 -165.41796875 60.48828125 C-163.62812652 59.05390419 -161.85764294 57.59482266 -160.11328125 56.10546875 C-146.5896193 44.6113916 -131.34327601 35.40950973 -115.625 27.25 C-114.95210937 26.8998584 -114.27921875 26.5497168 -113.5859375 26.18896484 C-87.43013303 12.78411505 -58.71874433 4.89005754 -29.625 1.25 C-28.94373047 1.1557373 -28.26246094 1.06147461 -27.56054688 0.96435547 C-18.42350265 -0.1469604 -9.18992486 0.00608413 0 0 Z " fill="#13AA52" transform="translate(255.625,-0.25)"/>
<path d="M0 0 C2.36088275 2.87506274 4.00797467 5.8991181 5.65063477 9.22827148 C9.43698363 16.84176426 13.68026367 22.24534958 20 28 C22.44592015 30.57494805 24.72546737 33.27322111 27 36 C27.43715332 36.51804199 27.87430664 37.03608398 28.32470703 37.56982422 C35.86338053 46.54515566 42.38788405 55.70626064 48 66 C48.3398291 66.6192334 48.6796582 67.2384668 49.02978516 67.87646484 C70.50857193 107.53672106 77.21636375 151.77363885 64.5078125 195.40234375 C57.90303834 216.41875299 46.22681235 234.86998124 31.625 251.1875 C31.17455322 251.69337646 30.72410645 252.19925293 30.26000977 252.72045898 C27.03713801 256.20693245 23.60847303 258.57090497 19.625 261.1875 C10.4553464 268.49234063 10.44957322 281.07314234 9 292 C8.76094365 293.58010416 8.51802526 295.15963379 8.26953125 296.73828125 C7.80012854 299.82247757 7.37122487 302.90276563 7 306 C4.69 306 2.38 306 0 306 C-0.57273959 301.37390918 -1.14231474 296.74744376 -1.70898438 292.12060547 C-1.90212873 290.54725672 -2.09613141 288.97401309 -2.29101562 287.40087891 C-2.57127981 285.13731664 -2.84843669 282.87339205 -3.125 280.609375 C-3.21249512 279.90818542 -3.29999023 279.20699585 -3.39013672 278.48455811 C-3.77857346 275.28142039 -4 272.23488147 -4 269 C-4.52335937 268.78214844 -5.04671875 268.56429688 -5.5859375 268.33984375 C-33.41391203 252.8948676 -53.75386782 217.21686885 -62.6953125 187.70507812 C-74.95471156 143.59451885 -65.51854705 96.64692915 -44 57 C-38.58915329 47.65200058 -32.06998341 39.15288579 -25 31 C-24.2471875 30.12472656 -23.494375 29.24945313 -22.71875 28.34765625 C-18.20456689 23.20736213 -13.56656792 18.03142329 -8 14 C-7.34 14 -6.68 14 -6 14 C-4.43370292 10.98029212 -3.12374836 7.91349586 -1.875 4.75 C-1.52179688 3.85796875 -1.16859375 2.9659375 -0.8046875 2.046875 C-0.53914063 1.37140625 -0.27359375 0.6959375 0 0 Z " fill="#FEFEFE" transform="translate(257,104)"/>
<path d="M0 0 C0.33 0 0.66 0 1 0 C1.97030761 7.70832357 2.37494498 15.39708054 2.71875 23.15625 C2.78200101 24.54407582 2.84544128 25.93189303 2.90905762 27.31970215 C3.04200977 30.23453741 3.17289178 33.14945604 3.30224609 36.06445312 C3.46330205 39.69104735 3.62906298 43.31740639 3.79632664 46.94371891 C4.49767835 62.18709023 5.11736068 77.43131149 5.58984375 92.68359375 C5.63125488 93.99360352 5.67266602 95.30361328 5.71533203 96.65332031 C6.09185011 109.43615009 6.10380737 122.21252934 6 135 C2.43464799 132.62309866 2.20700999 131.48842006 0.9375 127.5 C0.45603516 126.03046875 0.45603516 126.03046875 -0.03515625 124.53125 C-2.72381361 114.69098175 -3.28358685 105.38606203 -3.23046875 95.22265625 C-3.22927155 93.68737324 -3.22882492 92.15208949 -3.2290802 90.61680603 C-3.2275221 87.40017082 -3.2192995 84.18364792 -3.20581055 80.96704102 C-3.18906324 76.93113946 -3.18508334 72.89536233 -3.18562126 68.85943031 C-3.18356936 3.18356936 -3.18356936 3.18356936 0 0 Z " fill="#21AF5C" transform="translate(260,225)"/>
</svg>
