<?xml version="1.0" encoding="UTF-8"?>
<!DOCTYPE svg PUBLIC "-//W3C//DTD SVG 1.1//EN" "http://www.w3.org/Graphics/SVG/1.1/DTD/svg11.dtd">
<svg xmlns="http://www.w3.org/2000/svg" version="1.1" width="512px" height="512px" style="shape-rendering:geometricPrecision; text-rendering:geometricPrecision; image-rendering:optimizeQuality; fill-rule:evenodd; clip-rule:evenodd" xmlns:xlink="http://www.w3.org/1999/xlink">
<g><path style="opacity:0.963" fill="#00d8fe" d="M 347.5,41.5 C 373.327,40.6645 389.827,52.6645 397,77.5C 404.57,110.199 403.737,142.699 394.5,175C 425.719,183.357 453.552,197.857 478,218.5C 499.008,239.849 500.674,262.516 483,286.5C 468.88,301.644 452.38,313.477 433.5,322C 421.023,327.326 408.356,332.159 395.5,336.5C 402.705,363.496 404.539,390.83 401,418.5C 392.043,464.399 365.543,479.233 321.5,463C 296.929,451.761 275.096,436.594 256,417.5C 234.172,439.338 208.672,455.505 179.5,466C 145.725,476.031 123.225,464.531 112,431.5C 105.396,400.05 106.562,368.883 115.5,338C 89.1433,329.988 64.8099,317.988 42.5,302C 4.87536,270.28 5.20869,238.946 43.5,208C 65.3724,192.566 89.3724,181.732 115.5,175.5C 108.549,148.539 106.382,121.206 109,93.5C 118.261,45.2799 145.761,30.7799 191.5,50C 215.379,61.0177 236.546,75.851 255,94.5C 274.495,74.6769 296.995,59.1769 322.5,48C 330.762,45.0192 339.095,42.8525 347.5,41.5 Z M 153.5,63.5 C 167.723,64.1847 181.056,68.018 193.5,75C 210.302,84.7346 225.635,96.4013 239.5,110C 225.753,125.746 212.753,142.079 200.5,159C 179.56,161.659 158.727,165.159 138,169.5C 136.413,168.663 135.58,167.33 135.5,165.5C 129.118,140.048 127.951,114.381 132,88.5C 134.149,75.5378 141.316,67.2044 153.5,63.5 Z M 345.5,63.5 C 362.841,61.6618 373.341,69.3285 377,86.5C 380.845,105.032 381.512,123.698 379,142.5C 377.69,151.548 376.19,160.548 374.5,169.5C 353.293,165.328 331.96,161.994 310.5,159.5C 298.246,142.176 284.912,125.676 270.5,110C 287.377,92.8918 306.71,79.2251 328.5,69C 334.254,67.0252 339.921,65.1919 345.5,63.5 Z M 254.5,125.5 C 264.01,135.514 273.01,146.014 281.5,157C 263.833,157.667 246.167,157.667 228.5,157C 237.001,146.335 245.668,135.835 254.5,125.5 Z M 242.5,178.5 C 261.213,178.451 279.879,179.285 298.5,181C 314.306,204.098 328.473,228.265 341,253.5C 341.667,254.833 341.667,256.167 341,257.5C 328.485,283.227 313.985,307.561 297.5,330.5C 269.194,332.982 240.861,333.149 212.5,331C 195.688,307.227 181.022,282.061 168.5,255.5C 180.897,229.691 195.064,205.025 211,181.5C 221.56,180.082 232.06,179.082 242.5,178.5 Z M 179.5,183.5 C 180.873,183.343 182.207,183.51 183.5,184C 174.034,199.093 165.201,214.593 157,230.5C 151.872,217.616 147.038,204.616 142.5,191.5C 143.025,190.808 143.692,190.308 144.5,190C 156.291,187.74 167.958,185.573 179.5,183.5 Z M 326.5,184.5 C 327.097,183.861 327.93,183.528 329,183.5C 341.212,185.409 353.378,187.576 365.5,190C 366.428,190.388 367.095,191.055 367.5,192C 363.834,205.005 359.001,217.505 353,229.5C 344.702,214.07 335.869,199.07 326.5,184.5 Z M 120.5,195.5 C 127.491,215.787 135.491,235.787 144.5,255.5C 135.663,275.506 127.663,295.84 120.5,316.5C 95.9352,309.551 73.6018,298.384 53.5,283C 47.1809,277.017 42.0142,270.184 38,262.5C 36,257.5 36,252.5 38,247.5C 43.7377,237.095 51.571,228.595 61.5,222C 80.035,210.548 99.7017,201.715 120.5,195.5 Z M 388.5,196.5 C 417.625,203.143 443.125,216.477 465,236.5C 475.458,247.618 476.125,259.285 467,271.5C 453.358,286.244 437.192,297.411 418.5,305C 409.049,308.705 399.549,312.205 390,315.5C 382.947,295.005 375.114,274.838 366.5,255C 375.117,235.983 382.45,216.483 388.5,196.5 Z M 156.5,281.5 C 165.43,297.185 174.764,312.685 184.5,328C 170.482,327.08 156.648,324.914 143,321.5C 146.579,307.931 151.079,294.598 156.5,281.5 Z M 352.5,281.5 C 353.376,281.369 354.043,281.702 354.5,282.5C 360.319,294.797 364.819,307.463 368,320.5C 354.455,323.813 340.788,326.48 327,328.5C 335.951,313.279 344.451,297.612 352.5,281.5 Z M 372.5,341.5 C 373.5,341.5 374.5,341.5 375.5,341.5C 380.525,363.225 382.358,385.225 381,407.5C 380.277,420.177 376.11,431.51 368.5,441.5C 364.014,446.163 358.514,448.163 352,447.5C 338.218,446.351 325.385,442.184 313.5,435C 297.89,425.894 283.89,414.727 271.5,401.5C 285.826,385.999 298.826,369.499 310.5,352C 324.513,350.165 338.513,348.165 352.5,346C 359.415,345.021 366.082,343.521 372.5,341.5 Z M 136.5,342.5 C 157.69,346.67 179.023,350.004 200.5,352.5C 212.754,369.824 226.088,386.324 240.5,402C 224.785,417.381 207.118,430.048 187.5,440C 176.159,445.802 164.159,448.135 151.5,447C 145.887,445.383 141.387,442.216 138,437.5C 131.518,424.289 128.352,410.289 128.5,395.5C 129.308,377.508 131.975,359.841 136.5,342.5 Z M 228.5,354.5 C 246.329,353.338 264.329,353.171 282.5,354C 274.026,365.109 265.192,375.942 256,386.5C 246.594,375.936 237.428,365.269 228.5,354.5 Z"/></g>
<g><path style="opacity:0.98" fill="#00d8fe" d="M 250.5,211.5 C 285.398,213.557 300.898,231.891 297,266.5C 287.765,291.539 269.932,301.706 243.5,297C 219.061,287.875 208.894,270.375 213,244.5C 218.572,225.486 231.072,214.486 250.5,211.5 Z"/></g>
</svg>
